<?xml version="1.0" encoding="UTF-8"?>
<svg id="Vrstva_1" xmlns="http://www.w3.org/2000/svg" xmlns:serif="http://www.serif.com/" version="1.1" viewBox="0 0 257 155.89">
  <!-- Generator: Adobe Illustrator 30.3.0, SVG Export Plug-In . SVG Version: 2.1.3 Build 182)  -->
  <defs>
    <style>
      .st0, .st1, .st2 {
        fill-rule: evenodd;
      }

      .st0, .st3 {
        fill: #fff;
      }

      .st1 {
        fill: #0096ff;
      }

      .st2 {
        fill: #ff2600;
      }
    </style>
  </defs>
  <g>
    <path class="st3" d="M152.18,43.92l-.3-.46c-.43-.76-.92-1.35-1.45-1.81-.53-.43-1.19-.66-1.98-.66-.63,0-1.19.17-1.71.5-.53.33-.92.89-1.25,1.65-.3.79-.46,1.85-.46,3.23,0,1.75.2,3.1.59,4.06.43.96.96,1.65,1.62,2.01.66.4,1.35.56,2.08.56.82,0,1.55-.17,2.18-.56.63-.36,1.22-.92,1.78-1.68.49.13.92.36,1.29.73.33.33.53.73.53,1.22s-.26.99-.76,1.52c-.5.53-1.19.96-2.11,1.32-.92.36-2.04.53-3.36.53-2.74,0-4.81-.69-6.27-2.11-1.42-1.42-2.14-3.56-2.14-6.46,0-2.08.36-3.82,1.05-5.21.73-1.39,1.71-2.44,3-3.13,1.29-.69,2.74-1.02,4.42-1.02,1.42,0,2.57.2,3.5.56.89.4,1.58.89,2.01,1.45.43.59.66,1.15.66,1.75,0,.96-.76,1.58-2.24,1.91l-.66.13Z"/>
    <path class="st3" d="M156.97,55.69v-.82c0-.63.1-1.22.33-1.78.2-.53.56-1.12,1.09-1.78l6.17-7.58c.5-.56.82-1.02,1.02-1.35.2-.33.33-.69.36-1.06h-4.72l-.46,1.32c-.3.1-.66.23-1.09.3-.43.1-.86.13-1.22.13-.26,0-.53-.17-.79-.53-.26-.4-.5-.82-.66-1.32-.2-.53-.26-.99-.26-1.42,0-.5.1-.82.33-1.02.2-.23.63-.33,1.22-.33h12.56v1.06c0,.92-.1,1.68-.33,2.28-.23.63-.63,1.25-1.19,1.95l-5.84,7.12c-.33.4-.56.73-.79,1.02-.2.3-.33.63-.4.99h2.87c1.09,0,2.11-.1,3.03-.26s1.68-.36,2.31-.56c.17.3.3.66.43,1.02.1.4.16.82.16,1.25,0,.46-.13.82-.4,1.06-.23.23-.76.33-1.52.33h-12.23Z"/>
    <path class="st3" d="M185.65,47.81h-8.18c.13,1.42.4,2.54.86,3.3.43.76.99,1.29,1.68,1.58.66.3,1.42.43,2.28.43.92,0,1.68-.17,2.34-.56.63-.36,1.25-.89,1.85-1.58.46.13.86.36,1.19.69.33.3.53.69.53,1.19,0,.53-.3,1.02-.86,1.52-.56.49-1.32.89-2.34,1.22-.99.3-2.14.46-3.46.46-2.94,0-5.08-.76-6.46-2.24-1.42-1.48-2.11-3.53-2.11-6.2,0-3.23.76-5.64,2.28-7.19,1.48-1.55,3.43-2.31,5.87-2.31,1.62,0,2.97.3,4.06.89,1.06.59,1.85,1.38,2.37,2.44.49,1.02.76,2.24.76,3.59,0,.79-.07,1.42-.26,1.81-.17.4-.43.66-.82.79-.4.1-.89.17-1.55.17ZM177.48,45.17h6.46v-.23c0-1.32-.3-2.34-.82-3.07-.56-.73-1.32-1.09-2.31-1.09s-1.71.36-2.31,1.06c-.59.69-.92,1.78-1.02,3.33Z"/>
    <path class="st3" d="M202.74,43.92l-.26-.46c-.43-.76-.92-1.35-1.45-1.81-.53-.43-1.19-.66-1.98-.66-.63,0-1.22.17-1.71.5-.53.33-.96.89-1.25,1.65-.3.79-.46,1.85-.46,3.23,0,1.75.2,3.1.59,4.06s.92,1.65,1.58,2.01c.66.4,1.35.56,2.11.56s1.52-.17,2.14-.56c.63-.36,1.22-.92,1.78-1.68.53.13.92.36,1.29.73.36.33.53.73.53,1.22s-.23.99-.73,1.52c-.49.53-1.22.96-2.14,1.32-.92.36-2.04.53-3.36.53-2.74,0-4.81-.69-6.23-2.11-1.45-1.42-2.18-3.56-2.18-6.46,0-2.08.36-3.82,1.09-5.21.73-1.39,1.71-2.44,3-3.13,1.25-.69,2.74-1.02,4.42-1.02,1.38,0,2.57.2,3.46.56.92.4,1.58.89,2.01,1.45.46.59.69,1.15.69,1.75,0,.96-.76,1.58-2.28,1.91l-.66.13Z"/>
    <path class="st3" d="M208.87,53.32h.99c.07-.82.1-1.71.1-2.67.03-.99.03-2.08.03-3.3v-11.67c0-.82-.1-1.35-.36-1.62-.23-.26-.63-.4-1.22-.4h-.49c-.07-.26-.13-.53-.17-.76s-.07-.46-.07-.69c0-.69.4-1.06,1.19-1.06h5.57c-.03.86-.07,1.95-.1,3.26-.07,1.32-.07,2.67-.07,4.02v1.45c.66-.53,1.42-.96,2.28-1.29.89-.33,1.88-.49,2.97-.49,1.68,0,2.93.4,3.86,1.25.89.82,1.32,2.31,1.32,4.39v6.83c0,.79.03,1.38.13,1.78.07.4.2.63.4.76.2.13.46.2.79.2h.59c.07.23.13.46.17.69.03.23.07.43.07.63,0,.73-.4,1.05-1.19,1.05h-5.41c.03-.56.03-1.29.07-2.14.03-.82.07-1.71.1-2.61,0-.89.03-1.68.03-2.41v-2.08c0-1.29-.1-2.31-.26-3.1-.2-.76-.49-1.32-.96-1.65-.46-.33-1.09-.49-1.91-.49-.96,0-1.71.3-2.24.89-.53.56-.79,1.58-.79,3v5.08c.03.96.07,2.01.1,3.13h1.85c.1.23.17.46.2.69.03.23.03.43.03.63,0,.73-.36,1.05-1.15,1.05h-7.39c-.07-.23-.13-.46-.17-.69-.03-.23-.07-.43-.07-.63,0-.73.4-1.06,1.19-1.06Z"/>
    <path class="st3" d="M146.58,82.63v6.76c.4.26.89.49,1.45.66.56.17,1.19.26,1.81.26.73,0,1.35-.16,1.91-.53.56-.33,1.02-.92,1.35-1.78.33-.86.5-2.04.5-3.56,0-1.71-.17-3.03-.5-3.99-.33-.92-.79-1.58-1.38-1.98-.59-.4-1.25-.56-2.04-.56-1.02,0-1.78.36-2.31,1.12-.53.73-.79,1.95-.79,3.59ZM141.2,97.84h.99c.03-.96.07-1.85.1-2.7.03-.89.03-1.71.03-2.47v-12.76c0-.79-.13-1.35-.36-1.62s-.63-.4-1.22-.4h-.49c-.1-.26-.17-.53-.2-.76-.03-.23-.03-.46-.03-.66,0-.73.4-1.09,1.19-1.09h4.39c.1.26.17.59.17.92.03.33.07.63.1.89.63-.69,1.38-1.22,2.24-1.62.86-.36,1.85-.56,2.94-.56,1.55,0,2.87.33,3.92.99,1.09.66,1.88,1.58,2.44,2.84.56,1.22.82,2.7.82,4.42,0,2.24-.36,4.06-1.12,5.51-.73,1.42-1.71,2.47-3,3.17-1.29.73-2.7,1.06-4.35,1.06-.73,0-1.32-.07-1.81-.2-.5-.13-.96-.26-1.35-.43v1.02c0,.43,0,1.05.03,1.88,0,.86.03,1.71.1,2.57h2.47c.07.23.13.46.17.69.03.23.03.43.03.63,0,.73-.4,1.05-1.15,1.05h-7.98c-.1-.23-.17-.49-.2-.69-.03-.23-.03-.43-.03-.63,0-.73.4-1.06,1.19-1.06Z"/>
    <path class="st3" d="M162.27,87.55v-7.65c0-.79-.1-1.35-.3-1.62-.2-.26-.53-.4-1.06-.4h-.46c-.1-.26-.13-.53-.16-.76-.03-.23-.07-.46-.07-.66,0-.73.4-1.09,1.19-1.09h5.21c0,.59,0,1.32-.03,2.14,0,.86-.03,1.71-.03,2.54v5.9c0,1.52.2,2.57.63,3.13.43.59,1.12.86,2.04.86s1.65-.26,2.21-.82c.53-.56.79-1.55.79-2.97v-6.27c0-.79-.1-1.35-.3-1.62-.2-.26-.56-.4-1.05-.4h-.5c-.07-.26-.13-.53-.16-.76-.03-.23-.03-.46-.03-.66,0-.36.1-.63.36-.82.23-.17.56-.26.96-.26h5.05v2.14c-.03.86-.03,1.71-.03,2.57-.03.86-.03,1.58-.03,2.21v5.87c0,.86.1,1.42.3,1.68.16.26.53.36,1.02.36h.59c.1.26.13.49.16.73.03.23.07.43.07.63,0,.69-.4,1.06-1.19,1.06h-4.06c-.1-.23-.17-.53-.26-.86-.07-.33-.13-.66-.17-.96-.69.76-1.52,1.32-2.41,1.68-.89.33-1.95.49-3.1.49-1.62,0-2.87-.43-3.79-1.29-.92-.86-1.38-2.24-1.38-4.15Z"/>
    <path class="st3" d="M186.87,82.63v6.76c.4.26.86.49,1.42.66.59.17,1.19.26,1.85.26.69,0,1.32-.16,1.91-.53.56-.33,1.02-.92,1.35-1.78.33-.86.5-2.04.5-3.56,0-1.71-.17-3.03-.5-3.99-.33-.92-.82-1.58-1.42-1.98-.56-.4-1.25-.56-2.04-.56-.99,0-1.78.36-2.28,1.12-.53.73-.79,1.95-.79,3.59ZM186.18,92.03l-.53,1.02c-.26,0-.63,0-1.06-.07-.43-.03-.86-.07-1.29-.13-.43-.07-.79-.16-1.12-.26.1-.76.17-1.55.23-2.41.03-.86.07-1.68.1-2.51s.03-1.58.07-2.28v-12.79c0-.82-.1-1.35-.36-1.62-.23-.26-.63-.4-1.22-.4h-.49c-.07-.26-.13-.53-.17-.76-.03-.23-.07-.46-.07-.69,0-.73.4-1.06,1.19-1.06h5.57c0,.5,0,1.09-.03,1.78-.03.66-.03,1.42-.07,2.18-.03.76-.03,1.55-.07,2.34,0,.76-.03,1.48-.03,2.18.53-.46,1.12-.82,1.85-1.12.76-.26,1.62-.43,2.61-.43,2.37,0,4.15.76,5.37,2.21,1.22,1.45,1.85,3.46,1.85,6.03,0,2.24-.4,4.06-1.12,5.51-.76,1.42-1.75,2.47-3.03,3.17-1.25.73-2.7,1.06-4.32,1.06-.79,0-1.52-.1-2.18-.3-.69-.17-1.22-.4-1.68-.66Z"/>
    <path class="st3" d="M141.43,127.15h1.02c.03-1.09.07-2.14.07-3.1.03-.99.03-1.95.03-2.93v-4.29c0-.82-.1-1.35-.33-1.62-.26-.26-.66-.4-1.25-.4h-.49c-.07-.26-.13-.53-.17-.76-.03-.23-.07-.46-.07-.69,0-.69.4-1.05,1.19-1.05h4.45c.07.26.13.59.17.99.03.36.03.69.03,1.02.86-.73,1.75-1.32,2.7-1.71.96-.43,2.04-.66,3.3-.66,1.68,0,2.93.43,3.86,1.29.89.82,1.32,2.31,1.32,4.39v6.83c0,.79.07,1.35.13,1.75.07.4.2.66.4.79.2.13.46.17.79.17h.59c.1.26.13.49.17.73s.07.43.07.63c0,.69-.4,1.06-1.19,1.06h-5.41c.03-.59.03-1.29.07-2.14.03-.82.07-1.71.1-2.6.03-.89.03-1.71.03-2.41v-2.11c0-1.29-.1-2.31-.26-3.07-.2-.76-.5-1.32-.96-1.65-.46-.33-1.09-.5-1.91-.5-.99,0-1.71.3-2.24.89-.53.59-.79,1.62-.79,3.07v2.08c0,.99,0,1.95.03,2.93,0,.96.03,2.01.07,3.1h1.88c.07.26.13.49.17.73s.07.43.07.63c0,.69-.4,1.06-1.19,1.06h-7.39c-.07-.26-.13-.5-.17-.69-.03-.23-.07-.43-.07-.63,0-.73.4-1.09,1.19-1.09Z"/>
    <path class="st3" d="M174.11,121.68h-8.21c.13,1.42.43,2.51.86,3.3.43.76.99,1.29,1.68,1.58.69.3,1.45.43,2.28.43.92,0,1.71-.2,2.34-.56.63-.36,1.25-.89,1.85-1.58.46.13.86.36,1.22.66.33.33.5.73.5,1.22,0,.53-.3,1.02-.86,1.52-.56.5-1.32.89-2.31,1.22-1.02.3-2.18.46-3.46.46-2.97,0-5.11-.76-6.5-2.24-1.39-1.48-2.08-3.56-2.08-6.2,0-3.23.73-5.64,2.24-7.19,1.48-1.55,3.46-2.34,5.87-2.34,1.65,0,3,.3,4.06.89,1.06.59,1.85,1.42,2.37,2.47.53,1.02.79,2.21.79,3.56,0,.82-.1,1.42-.26,1.85-.2.4-.46.66-.86.79-.36.1-.89.16-1.52.16ZM165.9,119.04h6.46v-.26c0-1.29-.26-2.31-.82-3.03-.53-.73-1.32-1.09-2.31-1.09s-1.71.33-2.28,1.02c-.59.73-.96,1.81-1.05,3.36Z"/>
    <path class="st3" d="M185.59,119.57v6.76c.4.26.89.49,1.45.66s1.19.26,1.81.26c.73,0,1.35-.2,1.91-.53.56-.33,1.02-.92,1.35-1.78s.49-2.04.49-3.59c0-1.68-.16-3-.49-3.96-.33-.92-.79-1.62-1.38-1.98-.59-.4-1.29-.56-2.04-.56-1.02,0-1.78.36-2.31,1.12-.53.73-.79,1.95-.79,3.59ZM180.21,134.74h.99c.03-.92.07-1.81.1-2.7,0-.86.03-1.68.03-2.44v-12.76c0-.82-.13-1.35-.36-1.62-.23-.26-.66-.4-1.25-.4h-.46c-.1-.26-.17-.53-.2-.76-.03-.23-.07-.46-.07-.69,0-.69.43-1.05,1.22-1.05h4.39c.1.26.13.59.17.92.03.3.07.63.1.89.63-.69,1.35-1.22,2.24-1.62.86-.36,1.81-.56,2.93-.56,1.55,0,2.87.33,3.92.99,1.09.66,1.88,1.58,2.44,2.8.53,1.25.82,2.74.82,4.45,0,2.24-.36,4.06-1.12,5.51-.73,1.42-1.75,2.47-3,3.17-1.29.69-2.74,1.05-4.35,1.05-.73,0-1.35-.07-1.85-.2-.49-.13-.92-.26-1.32-.43v2.9c.03.86.07,1.71.1,2.54h2.51c.07.26.1.49.13.73.03.23.07.43.07.63,0,.69-.4,1.06-1.19,1.06h-7.95c-.1-.26-.17-.5-.2-.69-.03-.23-.07-.43-.07-.63,0-.73.43-1.09,1.22-1.09Z"/>
    <path class="st3" d="M209.56,123.62v-1.45h-2.61c-.99,0-1.68.2-2.11.66-.43.43-.66.99-.66,1.71s.2,1.32.59,1.75c.4.4.99.59,1.78.59,1.02,0,1.75-.3,2.24-.86.49-.59.76-1.38.76-2.41ZM214.48,129.23l-3.56.33c-.17-.23-.3-.53-.43-.86-.1-.33-.2-.66-.23-.92-.73.73-1.48,1.29-2.31,1.62-.79.36-1.78.53-2.94.53-1.48,0-2.7-.43-3.66-1.25s-1.45-2.11-1.45-3.79.66-3.03,1.88-3.96c1.25-.92,3.1-1.38,5.54-1.38h2.24v-.79c0-1.15-.13-2.01-.36-2.61-.2-.59-.59-1.02-1.12-1.25-.53-.23-1.25-.36-2.14-.36h-.99l-.59,2.41c-.23.1-.56.2-.92.26-.33.07-.69.1-1.05.1-.33,0-.66-.13-.99-.4-.33-.23-.59-.59-.79-.99-.2-.43-.3-.82-.3-1.29,0-.33.1-.63.3-.86.16-.23.53-.46.99-.69.69-.3,1.62-.56,2.77-.79,1.15-.2,2.37-.33,3.73-.33,2.01,0,3.46.43,4.39,1.29.89.86,1.35,2.31,1.35,4.35v7.45c0,.76.1,1.29.26,1.48.17.23.5.33.96.33h.73c.07.17.1.36.13.53.03.17.07.4.07.63,0,.4-.1.69-.33.86-.2.2-.59.33-1.15.36Z"/>
    <path class="st3" d="M218.63,127.15h.99c.03-.79.07-1.68.1-2.67.03-.96.03-2.04.03-3.26v-11.67c0-.82-.13-1.35-.36-1.62-.26-.26-.66-.4-1.25-.4h-.46c-.1-.3-.17-.53-.2-.76-.03-.23-.03-.46-.03-.69,0-.73.4-1.05,1.19-1.05h5.54c0,.86-.03,1.95-.1,3.26-.03,1.32-.07,2.64-.07,4.02v8.8c0,.99,0,1.95.03,2.93.03.96.03,2.01.1,3.1h1.85c.1.26.13.49.17.73s.07.43.07.63c0,.69-.4,1.06-1.19,1.06h-7.35c-.1-.26-.17-.5-.2-.69-.03-.23-.03-.43-.03-.63,0-.73.4-1.09,1.19-1.09Z"/>
  </g>
  <path class="st0" d="M55.25,107.49h-.15v5.17c0,2.29.15.15.15,4.57s.15,8.83.46,13.24h12.94c.3,1.22.61,2.43.76,3.65.15,1.22.3,2.28.3,3.2,0,3.65-1.98,5.63-6.09,5.63H22.38c-.46-1.37-.76-2.59-.91-3.81-.3-1.06-.3-2.13-.3-3.2,0-3.65,1.98-5.48,6.09-5.48h5.18c.3-4.87.46-9.74.46-14.16.15-4.41.15-3.35.15-7.31V43.1c0-4.26-.61-7.15-1.83-8.52-1.22-1.37-3.35-1.98-6.39-1.98h-2.43c-.46-1.37-.76-2.74-1.07-3.96-.15-1.22-.15-2.43-.15-3.5,0-3.65,1.98-5.48,6.09-5.48h22.83c.46,1.37.76,2.89.91,4.57.15,1.67.3,3.35.3,4.87,3.35-3.65,7.15-6.39,11.72-8.37,4.41-1.98,9.44-2.89,15.22-2.89,7.92,0,14.76,1.68,20.4,5.02,5.48,3.35,9.74,8.22,12.48,14.61,2.89,6.39,4.26,14,4.26,22.98,0,11.42-1.82,21.01-5.78,28.47-3.81,7.31-8.98,12.78-15.53,16.44s-14,5.33-22.53,5.33c-3.65,0-6.85-.3-9.29-.91v-18.26l34.1-.3-29.22-23.44,29.22-.15-41.1-32.88v28.31h0v44.45Z"/>
  <path class="st2" d="M62.25,49.56l14.61,11.67-14.62.12v-11.79"/>
  <path class="st1" d="M62.25,73.28l14.61,11.67-14.62.12v-11.79"/>
</svg>