<?xml version="1.0" encoding="UTF-8"?>
<svg id="Vrstva_1" xmlns="http://www.w3.org/2000/svg" xmlns:serif="http://www.serif.com/" version="1.1" viewBox="0 0 370 153.89">
  <!-- Generator: Adobe Illustrator 30.3.0, SVG Export Plug-In . SVG Version: 2.1.3 Build 182)  -->
  <defs>
    <style>
      .st0 {
        fill: #ff9300;
      }

      .st0, .st1, .st2 {
        fill-rule: evenodd;
      }

      .st1 {
        fill: #0096ff;
      }
    </style>
  </defs>
  <g>
    <path d="M196.77,59.74c0,1.65-.63,2.97-1.91,3.99-1.29,1.06-3.07,1.55-5.34,1.55-1.45,0-2.67-.17-3.69-.53-1.02-.36-1.81-.79-2.34-1.32-.56-.53-.82-1.06-.82-1.58s.2-.99.56-1.38c.36-.4.82-.69,1.32-.89.59.73,1.32,1.38,2.14,2.01.82.59,1.88.89,3.17.89.86,0,1.55-.16,2.01-.49.46-.33.66-.76.66-1.35s-.23-1.06-.73-1.42c-.49-.33-1.22-.66-2.21-.99l-1.78-.56c-1.52-.46-2.67-1.06-3.5-1.85-.79-.76-1.19-1.78-1.19-3.1,0-1.12.3-2.08.86-2.9.56-.79,1.35-1.42,2.34-1.85,1.02-.43,2.18-.63,3.5-.63s2.47.17,3.4.46c.92.33,1.62.76,2.08,1.25.46.49.69,1.02.69,1.58,0,.53-.17.96-.56,1.25-.36.33-.86.53-1.45.69l-.59.13-.23-.36c-.46-.69-.99-1.25-1.62-1.65-.63-.4-1.32-.56-2.14-.56-.63,0-1.12.17-1.52.46-.4.33-.59.76-.59,1.29,0,.56.2.99.63,1.32.43.33,1.12.59,2.04.86l1.65.49c1.85.56,3.17,1.25,3.99,2.08.79.82,1.19,1.85,1.19,3.1Z"/>
    <path d="M200.66,59.84v-7.62c0-.82-.1-1.39-.3-1.65-.2-.26-.56-.4-1.06-.4h-.49c-.07-.26-.13-.49-.17-.76-.03-.23-.03-.46-.03-.66,0-.73.4-1.09,1.15-1.09h5.21v2.14c0,.86-.03,1.71-.03,2.57-.03.82-.03,1.58-.03,2.18v3.73c0,1.52.23,2.54.66,3.1.43.59,1.12.86,2.01.86.96,0,1.68-.26,2.21-.82.53-.53.82-1.55.82-2.97v-6.23c0-.82-.1-1.39-.3-1.65-.2-.26-.56-.4-1.06-.4h-.49c-.07-.26-.13-.49-.17-.76-.03-.23-.07-.46-.07-.66,0-.36.13-.63.36-.79.23-.2.56-.3.99-.3h5.05v2.14c-.03.86-.03,1.71-.07,2.57v8.08c0,.86.1,1.42.26,1.68.2.26.53.4,1.06.4h.59c.07.23.13.46.17.69.03.23.07.43.07.63,0,.73-.4,1.05-1.19,1.05h-4.06c-.1-.23-.2-.53-.26-.86-.07-.33-.13-.66-.17-.96-.73.76-1.52,1.32-2.41,1.68-.92.33-1.95.49-3.1.49-1.62,0-2.87-.43-3.79-1.29-.92-.86-1.39-2.24-1.39-4.15Z"/>
    <path d="M220.28,62.54h.99c.03-1.12.07-2.18.1-3.13,0-.96.03-1.95.03-2.9v-4.29c0-.82-.13-1.39-.36-1.65-.23-.26-.66-.4-1.25-.4h-.46c-.1-.26-.17-.49-.2-.76-.03-.23-.07-.46-.07-.66,0-.73.43-1.09,1.22-1.09h4.45c.03.3.1.63.13.99.03.36.07.73.07,1.02.82-.73,1.75-1.29,2.7-1.71.96-.43,2.04-.63,3.26-.63,1.02,0,1.88.17,2.57.53.69.36,1.19.92,1.55,1.65.82-.73,1.68-1.29,2.54-1.65.89-.36,1.85-.53,2.97-.53,1.65,0,2.9.4,3.69,1.25.79.82,1.15,2.31,1.15,4.39v6.83c0,.79.07,1.38.13,1.78.07.4.2.63.4.76.2.13.46.2.79.2h.59c.1.23.17.46.2.69.03.23.03.43.03.63,0,.73-.4,1.05-1.19,1.05h-5.41c.03-.56.07-1.29.1-2.14,0-.82.03-1.71.07-2.61s.03-1.68.03-2.41v-2.08c0-1.95-.2-3.3-.56-4.09-.4-.76-1.15-1.15-2.24-1.15-.86,0-1.52.3-2.04.89-.49.59-.76,1.62-.76,3.07v2.11c0,.96.03,1.95.03,2.9.03.96.07,2.01.1,3.13h1.45c.1.23.17.46.2.69.03.23.03.43.03.63,0,.73-.4,1.05-1.19,1.05h-6.4c-.1-.23-.13-.46-.17-.69-.07-.23-.07-.43-.07-.63,0-.73.4-1.06,1.19-1.06h.43c.03-1.05.1-2.04.1-2.97.03-.96.03-1.85.03-2.74v-1.12c0-1.95-.2-3.3-.59-4.09-.36-.79-1.09-1.19-2.08-1.19-.92,0-1.65.3-2.14.89-.53.59-.79,1.62-.79,3.07v2.11c0,.96,0,1.95.03,2.9s.03,2.01.07,3.13h1.22c.07.23.13.46.16.69.03.23.07.43.07.63,0,.73-.4,1.05-1.19,1.05h-6.69c-.1-.23-.17-.46-.2-.69-.03-.23-.07-.43-.07-.63,0-.73.43-1.06,1.22-1.06Z"/>
    <path d="M250.56,62.54h.99c.03-1.12.07-2.18.1-3.13s.03-1.95.03-2.9v-4.29c0-.82-.13-1.39-.36-1.65-.23-.26-.66-.4-1.22-.4h-.49c-.1-.26-.17-.49-.2-.76-.03-.23-.03-.46-.03-.66,0-.73.4-1.09,1.19-1.09h4.45c.07.3.1.63.13.99.03.36.07.73.07,1.02.82-.73,1.75-1.29,2.7-1.71.96-.43,2.04-.63,3.26-.63,1.02,0,1.88.17,2.57.53.69.36,1.19.92,1.55,1.65.86-.73,1.68-1.29,2.57-1.65.86-.36,1.85-.53,2.93-.53,1.65,0,2.9.4,3.69,1.25.79.82,1.19,2.31,1.19,4.39v6.83c0,.79.03,1.38.1,1.78.1.4.23.63.4.76.2.13.46.2.79.2h.59c.1.23.17.46.2.69.03.23.03.43.03.63,0,.73-.4,1.05-1.19,1.05h-5.37c0-.56.03-1.29.07-2.14.03-.82.03-1.71.07-2.61s.03-1.68.03-2.41v-2.08c0-1.95-.2-3.3-.56-4.09-.4-.76-1.12-1.15-2.21-1.15-.86,0-1.55.3-2.04.89-.53.59-.79,1.62-.79,3.07v2.11c0,.96.03,1.95.03,2.9.03.96.07,2.01.1,3.13h1.48c.07.23.13.46.17.69.03.23.07.43.07.63,0,.73-.4,1.05-1.19,1.05h-6.43c-.07-.23-.13-.46-.16-.69-.03-.23-.07-.43-.07-.63,0-.73.4-1.06,1.19-1.06h.43c.07-1.05.1-2.04.1-2.97.03-.96.03-1.85.03-2.74v-1.12c0-1.95-.2-3.3-.56-4.09-.4-.79-1.09-1.19-2.11-1.19-.92,0-1.62.3-2.14.89-.53.59-.79,1.62-.79,3.07v2.11c0,.96.03,1.95.03,2.9.03.96.07,2.01.1,3.13h1.19c.1.23.13.46.17.69.03.23.07.43.07.63,0,.73-.4,1.05-1.19,1.05h-6.69c-.1-.23-.17-.46-.2-.69-.03-.23-.03-.43-.03-.63,0-.73.4-1.06,1.19-1.06Z"/>
    <path d="M280.83,62.54h.99c.03-1.12.1-2.18.1-3.13.03-.96.03-1.95.03-2.9v-4.29c0-.82-.13-1.39-.36-1.65-.23-.26-.63-.4-1.22-.4h-.5c-.1-.26-.13-.49-.2-.76-.03-.23-.03-.46-.03-.66,0-.73.4-1.09,1.19-1.09h5.54c0,.89-.03,1.88-.07,3.03-.07,1.19-.1,2.41-.1,3.73v2.08c0,.96.03,1.95.03,2.9.03.96.07,2.01.1,3.13h1.88c.07.23.1.46.17.69.03.23.03.43.03.63,0,.73-.4,1.05-1.19,1.05h-7.35c-.1-.23-.13-.46-.2-.69-.03-.23-.03-.43-.03-.63,0-.73.4-1.06,1.19-1.06ZM283.8,45.23c-1.15,0-1.91-.17-2.28-.53-.4-.36-.59-.92-.59-1.68,0-.66.23-1.22.66-1.62.43-.4,1.15-.59,2.21-.59,1.12,0,1.85.16,2.24.53.4.36.59.92.59,1.71,0,.66-.2,1.19-.66,1.58-.43.4-1.15.59-2.18.59Z"/>
    <path d="M292.34,59.58v-9.04h-2.51c-.1-.26-.17-.5-.23-.73-.03-.23-.07-.53-.07-.82,0-.86.43-1.32,1.25-1.32h1.55l1.15-4.55,1.25.07c.73.07,1.19.23,1.48.53.26.3.4.86.4,1.68v2.28h5.74c.1.26.17.5.2.73.07.23.07.5.07.82,0,.86-.4,1.32-1.25,1.32h-4.75v8.14c0,1.25.17,2.11.56,2.67.36.53.92.82,1.65.82.46,0,.89-.13,1.25-.36.4-.2.73-.49,1.02-.89.43.1.82.3,1.12.63.33.3.5.69.5,1.12,0,.66-.46,1.25-1.39,1.81-.92.53-2.14.79-3.63.79-1.88,0-3.23-.49-4.09-1.48s-1.29-2.41-1.29-4.22Z"/>
    <path d="M317.99,59.74c0,1.65-.63,2.97-1.91,3.99-1.32,1.06-3.07,1.55-5.34,1.55-1.45,0-2.67-.17-3.69-.53-1.02-.36-1.81-.79-2.34-1.32-.56-.53-.82-1.06-.82-1.58s.2-.99.56-1.38c.36-.4.82-.69,1.32-.89.59.73,1.32,1.38,2.14,2.01.82.59,1.88.89,3.17.89.86,0,1.55-.16,1.98-.49.46-.33.69-.76.69-1.35s-.23-1.06-.73-1.42c-.49-.33-1.22-.66-2.21-.99l-1.81-.56c-1.48-.46-2.67-1.06-3.46-1.85-.79-.76-1.19-1.78-1.19-3.1,0-1.12.26-2.08.86-2.9.56-.79,1.35-1.42,2.34-1.85,1.02-.43,2.18-.63,3.5-.63s2.47.17,3.4.46c.89.33,1.62.76,2.08,1.25.46.49.69,1.02.69,1.58,0,.53-.17.96-.56,1.25-.36.33-.86.53-1.45.69l-.59.13-.23-.36c-.43-.69-.99-1.25-1.62-1.65-.63-.4-1.35-.56-2.14-.56-.63,0-1.12.17-1.52.46-.4.33-.59.76-.59,1.29,0,.56.2.99.63,1.32.43.33,1.12.59,2.04.86l1.62.49c1.88.56,3.2,1.25,4.02,2.08.79.82,1.19,1.85,1.19,3.1Z"/>
    <path d="M195.88,93.97h-8.21c.13,1.42.43,2.51.86,3.3.43.76.99,1.29,1.68,1.58.69.3,1.45.43,2.28.43.92,0,1.71-.2,2.34-.56.63-.36,1.25-.89,1.85-1.58.5.13.89.36,1.22.66.33.33.49.73.49,1.22,0,.53-.3,1.02-.86,1.52-.53.5-1.32.89-2.31,1.22-1.02.3-2.18.46-3.46.46-2.93,0-5.11-.76-6.5-2.24s-2.08-3.56-2.08-6.2c0-3.23.76-5.64,2.24-7.19s3.46-2.34,5.87-2.34c1.65,0,3,.33,4.06.89,1.06.59,1.85,1.42,2.37,2.47.53,1.02.79,2.21.79,3.59,0,.79-.1,1.42-.26,1.81-.2.4-.46.66-.86.79-.36.1-.89.17-1.52.17ZM187.67,91.33h6.46v-.23c0-1.32-.26-2.34-.82-3.07-.53-.73-1.32-1.09-2.31-1.09-.92,0-1.68.33-2.28,1.02-.59.73-.96,1.81-1.06,3.36Z"/>
    <path d="M211.41,93.87l-1.78-2.18,2.84-4.58h-1.68c-.07-.23-.13-.46-.17-.66-.07-.2-.07-.43-.07-.69,0-.76.4-1.15,1.22-1.15h6.13c.07.23.13.46.16.66.07.2.07.43.07.69,0,.4-.1.69-.26.86-.2.2-.5.3-.92.3h-.99l-4.55,6.76ZM206.73,84.61c.49,1.15,1.12,2.37,1.81,3.63.73,1.22,1.62,2.64,2.67,4.19,1.02,1.52,2.31,3.3,3.79,5.28.53.76.96,1.22,1.29,1.45.33.2.69.3,1.15.3h.63c.07.26.13.49.17.73.03.23.07.43.07.63,0,.69-.4,1.06-1.19,1.06h-4.58c-.36-.63-.79-1.42-1.32-2.31-.56-.89-1.19-1.91-1.91-3.03-.76-1.12-1.55-2.37-2.47-3.69-.89-1.32-1.88-2.74-2.97-4.25-.4-.56-.73-.96-1.06-1.15-.3-.2-.73-.3-1.25-.3h-.79c-.07-.26-.13-.53-.16-.76-.03-.23-.07-.46-.07-.66,0-.36.1-.63.26-.82.2-.17.5-.26.92-.26h5.01ZM207.06,92.39l1.78,2.21-2.87,4.85h1.75c.07.23.13.49.17.73.03.23.07.43.07.63,0,.36-.1.63-.3.79-.17.2-.46.26-.89.26h-6.27c-.1-.26-.13-.5-.2-.73-.03-.23-.03-.43-.03-.63,0-.73.4-1.05,1.19-1.05h.99l4.62-7.06Z"/>
    <path d="M226.12,91.86v6.76c.4.26.86.49,1.45.66.56.17,1.15.26,1.81.26s1.32-.16,1.91-.53c.56-.33.99-.92,1.35-1.78.33-.86.49-2.04.49-3.56,0-1.71-.17-3.03-.49-3.99-.36-.92-.82-1.58-1.39-1.98-.59-.4-1.29-.56-2.08-.56-.99,0-1.78.36-2.28,1.12-.53.73-.79,1.95-.79,3.59ZM220.71,107.06h.99c.07-.96.1-1.85.1-2.7.03-.89.03-1.71.03-2.47v-12.76c0-.79-.1-1.35-.36-1.62-.23-.26-.63-.4-1.22-.4h-.5c-.07-.26-.13-.53-.17-.76-.03-.23-.07-.46-.07-.66,0-.73.4-1.09,1.19-1.09h4.42c.07.26.13.59.17.92.03.33.07.63.07.89.66-.69,1.39-1.22,2.24-1.62.86-.36,1.85-.56,2.93-.56,1.58,0,2.87.33,3.96.99,1.06.66,1.88,1.58,2.41,2.84.56,1.22.82,2.7.82,4.42,0,2.24-.36,4.06-1.09,5.51-.76,1.42-1.75,2.47-3.03,3.17-1.25.73-2.7,1.06-4.32,1.06-.73,0-1.35-.07-1.85-.2-.49-.13-.92-.26-1.32-.43v2.9c0,.86.03,1.71.1,2.57h2.47c.07.23.13.46.17.69.03.23.07.43.07.63,0,.73-.4,1.05-1.19,1.05h-7.98c-.07-.23-.13-.49-.17-.69-.03-.23-.07-.43-.07-.63,0-.73.4-1.06,1.19-1.06Z"/>
    <path d="M252.86,93.97h-8.21c.13,1.42.43,2.51.86,3.3.43.76.99,1.29,1.68,1.58.69.3,1.42.43,2.28.43.92,0,1.68-.2,2.34-.56.63-.36,1.25-.89,1.85-1.58.46.13.86.36,1.22.66.33.33.49.73.49,1.22,0,.53-.3,1.02-.86,1.52-.56.5-1.32.89-2.34,1.22-.99.3-2.14.46-3.46.46-2.93,0-5.08-.76-6.46-2.24s-2.08-3.56-2.08-6.2c0-3.23.73-5.64,2.24-7.19,1.48-1.55,3.46-2.34,5.87-2.34,1.65,0,3,.33,4.06.89,1.05.59,1.85,1.42,2.37,2.47.53,1.02.76,2.21.76,3.59,0,.79-.07,1.42-.26,1.81-.17.4-.43.66-.82.79-.36.1-.89.17-1.52.17ZM244.65,91.33h6.46v-.23c0-1.32-.26-2.34-.82-3.07-.53-.73-1.32-1.09-2.31-1.09s-1.71.33-2.28,1.02c-.59.73-.96,1.81-1.06,3.36Z"/>
    <path d="M269.81,95.16v-7.32c-.4-.3-.89-.5-1.45-.66-.56-.16-1.15-.23-1.85-.23-1.15,0-2.04.43-2.74,1.29-.66.86-.99,2.37-.99,4.52,0,1.71.17,3.03.53,3.96.33.96.82,1.58,1.42,1.95.59.36,1.22.53,1.95.53,1.02,0,1.81-.33,2.34-.99.53-.66.79-1.65.79-3.03ZM275.02,101.85h-4.02c-.1-.23-.2-.53-.26-.86-.1-.33-.13-.66-.16-.96-.59.66-1.29,1.19-2.14,1.58-.86.4-1.85.59-3.03.59-2.28,0-4.06-.73-5.31-2.21-1.25-1.45-1.88-3.53-1.88-6.17,0-2.31.36-4.15,1.12-5.57.73-1.38,1.75-2.41,3.03-3.07,1.29-.63,2.74-.96,4.35-.96.66,0,1.25.07,1.75.17.53.1.96.2,1.35.36v-2.93c0-.82-.1-1.35-.33-1.62-.26-.26-.66-.4-1.25-.4h-1.09c-.07-.26-.13-.53-.17-.76-.03-.23-.07-.46-.07-.69,0-.73.4-1.06,1.19-1.06h6.17c0,.56-.03,1.29-.03,2.14-.03.86-.07,1.75-.1,2.64-.03.92-.03,1.75-.03,2.51v12.73c0,.89.07,1.48.26,1.75s.53.36,1.02.36h.63c.07.26.13.49.17.73.03.23.03.43.03.63,0,.69-.4,1.06-1.19,1.06Z"/>
    <path d="M279.21,99.44h1.02c.03-1.09.07-2.14.1-3.1v-7.22c0-.79-.1-1.35-.33-1.62s-.66-.4-1.25-.4h-.5c-.07-.26-.13-.53-.16-.76-.03-.23-.07-.46-.07-.66,0-.73.4-1.09,1.19-1.09h5.57c0,.89-.03,1.88-.1,3.03-.03,1.15-.07,2.41-.07,3.73v2.08c0,.96,0,1.95.03,2.9,0,.96.03,2.01.07,3.1h1.88c.07.26.13.49.17.73.03.23.07.43.07.63,0,.69-.4,1.06-1.19,1.06h-7.39c-.07-.23-.13-.5-.16-.69-.03-.23-.07-.43-.07-.63,0-.73.4-1.09,1.19-1.09ZM282.18,82.16c-1.12,0-1.88-.16-2.28-.53-.4-.36-.59-.92-.59-1.71,0-.66.23-1.19.66-1.58.43-.4,1.19-.59,2.21-.59,1.12,0,1.88.17,2.28.53.4.36.59.92.59,1.71,0,.66-.23,1.19-.66,1.58-.43.4-1.15.59-2.21.59Z"/>
    <path d="M290.75,96.48v-9h-2.54c-.1-.26-.17-.49-.2-.73-.07-.23-.1-.53-.1-.82,0-.86.43-1.32,1.29-1.32h1.55l1.12-4.55,1.29.07c.69.07,1.19.23,1.45.53.26.3.4.86.4,1.68v2.28h5.77c.1.26.17.49.2.73.03.23.07.49.07.82,0,.86-.43,1.32-1.25,1.32h-4.78v8.14c0,1.25.2,2.11.56,2.67.4.53.92.79,1.65.79.46,0,.89-.1,1.29-.33.4-.2.73-.53.99-.89.46.1.82.3,1.15.63.3.3.46.69.46,1.12,0,.66-.46,1.25-1.39,1.81-.92.53-2.11.79-3.59.79-1.88,0-3.26-.49-4.09-1.48-.86-.99-1.29-2.41-1.29-4.25Z"/>
    <path d="M303.81,99.44h.99c.03-1.09.07-2.14.1-3.1s.03-1.95.03-2.9v-4.32c0-.79-.13-1.35-.36-1.62-.23-.26-.66-.4-1.22-.4h-.5c-.1-.26-.16-.53-.2-.76-.03-.23-.03-.46-.03-.66,0-.73.4-1.09,1.19-1.09h5.54c0,.89-.03,1.88-.1,3.03-.03,1.15-.07,2.41-.07,3.73v2.08c0,.96,0,1.95.03,2.9s.07,2.01.1,3.1h1.85c.1.26.13.49.17.73.07.23.07.43.07.63,0,.69-.4,1.06-1.19,1.06h-7.35c-.1-.23-.16-.5-.2-.69-.03-.23-.03-.43-.03-.63,0-.73.4-1.09,1.19-1.09ZM306.75,82.16c-1.12,0-1.88-.16-2.28-.53-.36-.36-.56-.92-.56-1.71,0-.66.2-1.19.66-1.58.43-.4,1.15-.59,2.18-.59,1.12,0,1.88.17,2.28.53.4.36.59.92.59,1.71,0,.66-.2,1.19-.66,1.58-.43.4-1.15.59-2.21.59Z"/>
    <path d="M318.06,92.72c0,2.51.3,4.29.96,5.31.63.99,1.55,1.52,2.7,1.52.63,0,1.22-.2,1.71-.56.53-.36.92-.96,1.22-1.81.33-.82.46-1.98.46-3.4,0-2.54-.33-4.32-.96-5.31-.63-1.02-1.55-1.52-2.74-1.52-.59,0-1.15.16-1.68.53s-.92.96-1.22,1.81c-.33.86-.46,1.98-.46,3.43ZM313.44,93.77c0-2.04.36-3.79,1.05-5.21.69-1.42,1.65-2.47,2.94-3.2,1.25-.76,2.74-1.12,4.45-1.12,2.64,0,4.62.76,5.9,2.28,1.29,1.48,1.95,3.53,1.95,6.17,0,2.08-.36,3.82-1.06,5.24-.69,1.42-1.65,2.47-2.9,3.2-1.25.73-2.77,1.09-4.49,1.09-2.64,0-4.62-.76-5.9-2.24-1.29-1.48-1.95-3.56-1.95-6.2Z"/>
    <path d="M333.19,99.44h.99c.07-1.09.1-2.14.1-3.1.03-.96.03-1.95.03-2.9v-4.32c0-.79-.1-1.35-.36-1.62-.23-.26-.63-.4-1.22-.4h-.49c-.1-.26-.13-.53-.17-.76-.07-.23-.07-.46-.07-.66,0-.73.4-1.09,1.19-1.09h4.45c.07.26.1.59.13.99.07.36.07.73.07,1.02.86-.73,1.75-1.29,2.7-1.71.96-.43,2.04-.66,3.3-.66,1.65,0,2.93.43,3.82,1.29.89.82,1.35,2.31,1.35,4.39v6.83c0,.79.03,1.38.13,1.78.07.36.2.63.4.76s.46.17.79.17h.59c.07.26.13.49.17.73.03.23.03.43.03.63,0,.69-.36,1.06-1.15,1.06h-5.41c0-.56.03-1.29.07-2.14.03-.82.07-1.71.1-2.61,0-.89.03-1.71.03-2.41v-2.11c0-1.25-.1-2.31-.3-3.07-.17-.76-.49-1.32-.92-1.65-.46-.33-1.09-.5-1.91-.5-.99,0-1.75.3-2.28.89-.53.59-.76,1.62-.76,3.07v5.01c.03.96.07,2.01.1,3.1h1.88c.07.26.13.49.17.73.03.23.03.43.03.63,0,.69-.4,1.06-1.15,1.06h-7.39c-.1-.23-.13-.5-.17-.69-.07-.23-.07-.43-.07-.63,0-.73.4-1.09,1.19-1.09Z"/>
  </g>
  <path class="st2" d="M24.22,119.96h17.69c.15-4.83.3-9.51.45-13.89v-60.97c0-3.95-.6-6.72-1.78-8.33-1.19-1.61-3.27-2.49-6.25-2.49h-12.78c-.45-1.02-.74-2.19-1.04-3.51-.3-1.31-.45-2.48-.45-3.66,0-2.05.6-3.66,1.79-4.68,1.04-1.02,3.12-1.61,5.95-1.61h37.47c0,2.78-.15,5.99-.3,9.94-.15,3.8-.3,7.75-.3,11.84-.15,3.95-.15,7.9-.15,11.4v39.48c0,3.95,0,8.19.15,12.58,0,4.38.15,9.06.45,13.89h18.88c.74,2.34,1.19,4.68,1.19,6.72,0,3.51-1.79,5.27-5.35,5.27H19.91c-.3-1.32-.6-2.49-.74-3.37-.29-1.02-.29-2.19-.29-3.36,0-3.51,1.78-5.26,5.35-5.26ZM124.87,102.42h-51.89v-4.53c0-3.66.45-6.72,1.04-9.21.74-2.34,2.23-5.41,4.75-9.21l27.21-42.98c2.97-4.53,5.8-7.9,8.62-9.94,2.82-2.19,6.09-3.66,9.66-4.53,3.72-.73,7.88-1.17,12.79-1.17h11.45v9.65c-.15,3.66-.15,7.31-.3,11.11v47.37h13.68c.3.88.74,2.05,1.04,3.66.3,1.61.45,3.07.45,4.53,0,1.9-.45,3.22-1.49,4.09-1.04.73-2.38,1.17-4.31,1.17h-9.36c0,2.78,0,5.55.15,8.48s.3,6,.3,9.07h13.38c.74,2.34,1.19,4.68,1.19,6.72,0,3.51-1.93,5.27-5.65,5.27h-50.25c-.74-2.34-1.04-4.53-1.04-6.73,0-3.51,1.79-5.26,5.5-5.26h19.32v-55.12h0v-28.22l-36.57,30.99,26.02.15-26.02,22.08,30.33.29v12.28Z"/>
  <path class="st0" d="M124.94,50.56l-13,11.01,13.01.11v-11.12"/>
  <path class="st1" d="M124.94,72.94l-13,11.01,13.01.11v-11.12"/>
</svg>