<?xml version="1.0" encoding="UTF-8" standalone="no"?>
<!DOCTYPE svg PUBLIC "-//W3C//DTD SVG 1.1//EN" "http://www.w3.org/Graphics/SVG/1.1/DTD/svg11.dtd">
<svg width="100%" height="100%" viewBox="0 0 1080 1081" version="1.1" xmlns="http://www.w3.org/2000/svg" xmlns:xlink="http://www.w3.org/1999/xlink" xml:space="preserve" xmlns:serif="http://www.serif.com/" style="fill-rule:evenodd;clip-rule:evenodd;stroke-linejoin:round;stroke-miterlimit:2;">
    <g transform="matrix(1,0,0,1,0,-2315)">
        <g id="honza_trava_logo_pub_V1" transform="matrix(1.00089,0,0,1.00089,-12297.1,1554.21)">
            <rect x="12286.1" y="760.158" width="1079.04" height="1079.04" style="fill:none;"/>
            <g transform="matrix(5.97741,0,0,5.97741,-1568.5,-17362.6)">
                <path d="M2416.65,3111.08L2416.56,3110.94C2416.43,3110.71 2416.28,3110.53 2416.12,3110.39C2415.96,3110.26 2415.76,3110.19 2415.52,3110.19C2415.33,3110.19 2415.16,3110.24 2415,3110.34C2414.84,3110.44 2414.72,3110.61 2414.62,3110.84C2414.53,3111.08 2414.48,3111.4 2414.48,3111.82C2414.48,3112.35 2414.54,3112.76 2414.66,3113.05C2414.79,3113.34 2414.95,3113.55 2415.15,3113.66C2415.35,3113.78 2415.56,3113.83 2415.78,3113.83C2416.03,3113.83 2416.25,3113.78 2416.44,3113.66C2416.63,3113.55 2416.81,3113.38 2416.98,3113.15C2417.13,3113.19 2417.26,3113.26 2417.37,3113.37C2417.47,3113.47 2417.53,3113.59 2417.53,3113.74C2417.53,3113.89 2417.45,3114.04 2417.3,3114.2C2417.15,3114.36 2416.94,3114.49 2416.66,3114.6C2416.38,3114.71 2416.04,3114.76 2415.64,3114.76C2414.81,3114.76 2414.18,3114.55 2413.74,3114.12C2413.31,3113.69 2413.09,3113.04 2413.09,3112.16C2413.09,3111.53 2413.2,3111 2413.41,3110.58C2413.63,3110.16 2413.93,3109.84 2414.32,3109.63C2414.71,3109.42 2415.15,3109.32 2415.66,3109.32C2416.09,3109.32 2416.44,3109.38 2416.72,3109.49C2416.99,3109.61 2417.2,3109.76 2417.33,3109.93C2417.46,3110.11 2417.53,3110.28 2417.53,3110.46C2417.53,3110.75 2417.3,3110.94 2416.85,3111.04L2416.65,3111.08Z" style="fill-rule:nonzero;"/>
                <path d="M2418.1,3114.65L2418.1,3114.4C2418.1,3114.21 2418.13,3114.03 2418.2,3113.86C2418.26,3113.7 2418.37,3113.52 2418.53,3113.32L2420.4,3111.02C2420.55,3110.85 2420.65,3110.71 2420.71,3110.61C2420.77,3110.51 2420.81,3110.4 2420.82,3110.29L2419.39,3110.29L2419.25,3110.69C2419.16,3110.72 2419.05,3110.76 2418.92,3110.78C2418.79,3110.81 2418.66,3110.82 2418.55,3110.82C2418.47,3110.82 2418.39,3110.77 2418.31,3110.66C2418.23,3110.54 2418.16,3110.41 2418.11,3110.26C2418.05,3110.1 2418.03,3109.96 2418.03,3109.83C2418.03,3109.68 2418.06,3109.58 2418.13,3109.52C2418.19,3109.45 2418.32,3109.42 2418.5,3109.42L2422.31,3109.42L2422.31,3109.74C2422.31,3110.02 2422.28,3110.25 2422.21,3110.43C2422.14,3110.62 2422.02,3110.81 2421.85,3111.02L2420.08,3113.18C2419.98,3113.3 2419.91,3113.4 2419.84,3113.49C2419.78,3113.58 2419.74,3113.68 2419.72,3113.79L2420.59,3113.79C2420.92,3113.79 2421.23,3113.76 2421.51,3113.71C2421.79,3113.66 2422.02,3113.6 2422.21,3113.54C2422.26,3113.63 2422.3,3113.74 2422.34,3113.85C2422.37,3113.97 2422.39,3114.1 2422.39,3114.23C2422.39,3114.37 2422.35,3114.48 2422.27,3114.55C2422.2,3114.62 2422.04,3114.65 2421.81,3114.65L2418.1,3114.65Z" style="fill-rule:nonzero;"/>
                <path d="M2426.8,3112.26L2424.32,3112.26C2424.36,3112.69 2424.44,3113.03 2424.58,3113.26C2424.71,3113.49 2424.88,3113.65 2425.09,3113.74C2425.29,3113.83 2425.52,3113.87 2425.78,3113.87C2426.06,3113.87 2426.29,3113.82 2426.49,3113.7C2426.68,3113.59 2426.87,3113.43 2427.05,3113.22C2427.19,3113.26 2427.31,3113.33 2427.41,3113.43C2427.51,3113.52 2427.57,3113.64 2427.57,3113.79C2427.57,3113.95 2427.48,3114.1 2427.31,3114.25C2427.14,3114.4 2426.91,3114.52 2426.6,3114.62C2426.3,3114.71 2425.95,3114.76 2425.55,3114.76C2424.66,3114.76 2424.01,3114.53 2423.59,3114.08C2423.16,3113.63 2422.95,3113.01 2422.95,3112.2C2422.95,3111.22 2423.18,3110.49 2423.64,3110.02C2424.09,3109.55 2424.68,3109.32 2425.42,3109.32C2425.91,3109.32 2426.32,3109.41 2426.65,3109.59C2426.97,3109.77 2427.21,3110.01 2427.37,3110.33C2427.52,3110.64 2427.6,3111.01 2427.6,3111.42C2427.6,3111.66 2427.58,3111.85 2427.52,3111.97C2427.47,3112.09 2427.39,3112.17 2427.27,3112.21C2427.15,3112.24 2427,3112.26 2426.8,3112.26ZM2424.32,3111.46L2426.28,3111.46L2426.28,3111.39C2426.28,3110.99 2426.19,3110.68 2426.03,3110.46C2425.86,3110.24 2425.63,3110.13 2425.33,3110.13C2425.04,3110.13 2424.81,3110.24 2424.63,3110.45C2424.45,3110.66 2424.35,3110.99 2424.32,3111.46Z" style="fill-rule:nonzero;"/>
                <path d="M2431.98,3111.08L2431.9,3110.94C2431.77,3110.71 2431.62,3110.53 2431.46,3110.39C2431.3,3110.26 2431.1,3110.19 2430.86,3110.19C2430.67,3110.19 2430.49,3110.24 2430.34,3110.34C2430.18,3110.44 2430.05,3110.61 2429.96,3110.84C2429.87,3111.08 2429.82,3111.4 2429.82,3111.82C2429.82,3112.35 2429.88,3112.76 2430,3113.05C2430.12,3113.34 2430.28,3113.55 2430.48,3113.66C2430.68,3113.78 2430.89,3113.83 2431.12,3113.83C2431.36,3113.83 2431.58,3113.78 2431.77,3113.66C2431.96,3113.55 2432.14,3113.38 2432.31,3113.15C2432.47,3113.19 2432.59,3113.26 2432.7,3113.37C2432.81,3113.47 2432.86,3113.59 2432.86,3113.74C2432.86,3113.89 2432.79,3114.04 2432.64,3114.2C2432.49,3114.36 2432.27,3114.49 2431.99,3114.6C2431.71,3114.71 2431.37,3114.76 2430.97,3114.76C2430.14,3114.76 2429.51,3114.55 2429.08,3114.12C2428.64,3113.69 2428.42,3113.04 2428.42,3112.16C2428.42,3111.53 2428.53,3111 2428.75,3110.58C2428.97,3110.16 2429.27,3109.84 2429.66,3109.63C2430.04,3109.42 2430.49,3109.32 2431,3109.32C2431.42,3109.32 2431.78,3109.38 2432.05,3109.49C2432.33,3109.61 2432.53,3109.76 2432.66,3109.93C2432.8,3110.11 2432.87,3110.28 2432.87,3110.46C2432.87,3110.75 2432.64,3110.94 2432.18,3111.04L2431.98,3111.08Z" style="fill-rule:nonzero;"/>
                <path d="M2433.84,3113.93L2434.14,3113.93C2434.16,3113.68 2434.17,3113.41 2434.17,3113.12C2434.18,3112.82 2434.18,3112.49 2434.18,3112.12L2434.18,3108.58C2434.18,3108.33 2434.15,3108.17 2434.07,3108.09C2434,3108.01 2433.88,3107.97 2433.7,3107.97L2433.55,3107.97C2433.53,3107.89 2433.51,3107.81 2433.5,3107.74C2433.49,3107.67 2433.48,3107.6 2433.48,3107.53C2433.48,3107.32 2433.6,3107.21 2433.84,3107.21L2435.53,3107.21C2435.52,3107.47 2435.51,3107.8 2435.5,3108.2C2435.48,3108.6 2435.48,3109.01 2435.48,3109.42L2435.48,3109.86C2435.68,3109.7 2435.91,3109.57 2436.17,3109.47C2436.44,3109.37 2436.74,3109.32 2437.07,3109.32C2437.58,3109.32 2437.96,3109.44 2438.24,3109.7C2438.51,3109.95 2438.64,3110.4 2438.64,3111.03L2438.64,3113.1C2438.64,3113.34 2438.65,3113.52 2438.68,3113.64C2438.7,3113.76 2438.74,3113.83 2438.8,3113.87C2438.86,3113.91 2438.94,3113.93 2439.04,3113.93L2439.22,3113.93C2439.24,3114 2439.26,3114.07 2439.27,3114.14C2439.28,3114.21 2439.29,3114.27 2439.29,3114.33C2439.29,3114.55 2439.17,3114.65 2438.93,3114.65L2437.29,3114.65C2437.3,3114.48 2437.3,3114.26 2437.31,3114C2437.32,3113.75 2437.33,3113.48 2437.34,3113.21C2437.34,3112.94 2437.35,3112.7 2437.35,3112.48L2437.35,3111.85C2437.35,3111.46 2437.32,3111.15 2437.27,3110.91C2437.21,3110.68 2437.12,3110.51 2436.98,3110.41C2436.84,3110.31 2436.65,3110.26 2436.4,3110.26C2436.11,3110.26 2435.88,3110.35 2435.72,3110.53C2435.56,3110.7 2435.48,3111.01 2435.48,3111.44L2435.48,3112.1C2435.48,3112.39 2435.48,3112.69 2435.48,3112.98C2435.49,3113.27 2435.5,3113.59 2435.51,3113.93L2436.07,3113.93C2436.1,3114 2436.12,3114.07 2436.13,3114.14C2436.14,3114.21 2436.14,3114.27 2436.14,3114.33C2436.14,3114.55 2436.03,3114.65 2435.79,3114.65L2433.55,3114.65C2433.53,3114.58 2433.51,3114.51 2433.5,3114.44C2433.49,3114.37 2433.48,3114.31 2433.48,3114.25C2433.48,3114.03 2433.6,3113.93 2433.84,3113.93Z" style="fill-rule:nonzero;"/>
                <path d="M2414.95,3122.82L2414.95,3124.87C2415.07,3124.95 2415.22,3125.02 2415.39,3125.07C2415.56,3125.12 2415.75,3125.15 2415.94,3125.15C2416.16,3125.15 2416.35,3125.1 2416.52,3124.99C2416.69,3124.89 2416.83,3124.71 2416.93,3124.45C2417.03,3124.19 2417.08,3123.83 2417.08,3123.37C2417.08,3122.85 2417.03,3122.45 2416.93,3122.16C2416.83,3121.88 2416.69,3121.68 2416.51,3121.56C2416.33,3121.44 2416.13,3121.39 2415.89,3121.39C2415.58,3121.39 2415.35,3121.5 2415.19,3121.73C2415.03,3121.95 2414.95,3122.32 2414.95,3122.82ZM2413.32,3127.43L2413.62,3127.43C2413.63,3127.14 2413.64,3126.87 2413.65,3126.61C2413.66,3126.34 2413.66,3126.09 2413.66,3125.86L2413.66,3121.99C2413.66,3121.75 2413.62,3121.58 2413.55,3121.5C2413.48,3121.42 2413.36,3121.38 2413.18,3121.38L2413.03,3121.38C2413,3121.3 2412.98,3121.22 2412.97,3121.15C2412.96,3121.08 2412.96,3121.01 2412.96,3120.95C2412.96,3120.73 2413.08,3120.62 2413.32,3120.62L2414.65,3120.62C2414.68,3120.7 2414.7,3120.8 2414.7,3120.9C2414.71,3121 2414.72,3121.09 2414.73,3121.17C2414.92,3120.96 2415.15,3120.8 2415.41,3120.68C2415.67,3120.57 2415.97,3120.51 2416.3,3120.51C2416.77,3120.51 2417.17,3120.61 2417.49,3120.81C2417.82,3121.01 2418.06,3121.29 2418.23,3121.67C2418.4,3122.04 2418.48,3122.49 2418.48,3123.01C2418.48,3123.69 2418.37,3124.24 2418.14,3124.68C2417.92,3125.11 2417.62,3125.43 2417.23,3125.64C2416.84,3125.86 2416.41,3125.96 2415.91,3125.96C2415.69,3125.96 2415.51,3125.94 2415.36,3125.9C2415.21,3125.86 2415.07,3125.82 2414.95,3125.77L2414.95,3126.08C2414.95,3126.21 2414.95,3126.4 2414.96,3126.65C2414.96,3126.91 2414.97,3127.17 2414.99,3127.43L2415.74,3127.43C2415.76,3127.5 2415.78,3127.57 2415.79,3127.64C2415.8,3127.71 2415.8,3127.77 2415.8,3127.83C2415.8,3128.05 2415.68,3128.15 2415.45,3128.15L2413.03,3128.15C2413,3128.08 2412.98,3128 2412.97,3127.94C2412.96,3127.87 2412.96,3127.81 2412.96,3127.75C2412.96,3127.53 2413.08,3127.43 2413.32,3127.43Z" style="fill-rule:nonzero;"/>
                <path d="M2419.71,3124.31L2419.71,3121.99C2419.71,3121.75 2419.68,3121.58 2419.62,3121.5C2419.56,3121.42 2419.46,3121.38 2419.3,3121.38L2419.16,3121.38C2419.13,3121.3 2419.12,3121.22 2419.11,3121.15C2419.1,3121.08 2419.09,3121.01 2419.09,3120.95C2419.09,3120.73 2419.21,3120.62 2419.45,3120.62L2421.03,3120.62C2421.03,3120.8 2421.03,3121.02 2421.02,3121.27C2421.02,3121.53 2421.01,3121.79 2421.01,3122.04C2421.01,3122.3 2421.01,3122.53 2421.01,3122.71L2421.01,3123.83C2421.01,3124.29 2421.07,3124.61 2421.2,3124.78C2421.33,3124.96 2421.54,3125.04 2421.82,3125.04C2422.1,3125.04 2422.32,3124.96 2422.49,3124.79C2422.65,3124.62 2422.73,3124.32 2422.73,3123.89L2422.73,3121.99C2422.73,3121.75 2422.7,3121.58 2422.64,3121.5C2422.58,3121.42 2422.47,3121.38 2422.32,3121.38L2422.17,3121.38C2422.15,3121.3 2422.13,3121.22 2422.12,3121.15C2422.11,3121.08 2422.11,3121.01 2422.11,3120.95C2422.11,3120.84 2422.14,3120.76 2422.22,3120.7C2422.29,3120.65 2422.39,3120.62 2422.51,3120.62L2424.04,3120.62C2424.04,3120.79 2424.04,3121.01 2424.04,3121.27C2424.03,3121.53 2424.03,3121.79 2424.03,3122.05C2424.02,3122.31 2424.02,3122.53 2424.02,3122.72L2424.02,3124.5C2424.02,3124.76 2424.05,3124.93 2424.11,3125.01C2424.16,3125.09 2424.27,3125.12 2424.42,3125.12L2424.6,3125.12C2424.63,3125.2 2424.64,3125.27 2424.65,3125.34C2424.66,3125.41 2424.67,3125.47 2424.67,3125.53C2424.67,3125.74 2424.55,3125.85 2424.31,3125.85L2423.08,3125.85C2423.05,3125.78 2423.03,3125.69 2423,3125.59C2422.98,3125.49 2422.96,3125.39 2422.95,3125.3C2422.74,3125.53 2422.49,3125.7 2422.22,3125.81C2421.95,3125.91 2421.63,3125.96 2421.28,3125.96C2420.79,3125.96 2420.41,3125.83 2420.13,3125.57C2419.85,3125.31 2419.71,3124.89 2419.71,3124.31Z" style="fill-rule:nonzero;"/>
                <path d="M2427.17,3122.82L2427.17,3124.87C2427.29,3124.95 2427.43,3125.02 2427.6,3125.07C2427.78,3125.12 2427.96,3125.15 2428.16,3125.15C2428.37,3125.15 2428.56,3125.1 2428.74,3124.99C2428.91,3124.89 2429.05,3124.71 2429.15,3124.45C2429.25,3124.19 2429.3,3123.83 2429.3,3123.37C2429.3,3122.85 2429.25,3122.45 2429.15,3122.16C2429.05,3121.88 2428.9,3121.68 2428.72,3121.56C2428.55,3121.44 2428.34,3121.39 2428.1,3121.39C2427.8,3121.39 2427.56,3121.5 2427.41,3121.73C2427.25,3121.95 2427.17,3122.32 2427.17,3122.82ZM2426.96,3125.67L2426.8,3125.98C2426.72,3125.98 2426.61,3125.98 2426.48,3125.96C2426.35,3125.95 2426.22,3125.94 2426.09,3125.92C2425.96,3125.9 2425.85,3125.87 2425.75,3125.84C2425.78,3125.61 2425.8,3125.37 2425.82,3125.11C2425.83,3124.85 2425.84,3124.6 2425.85,3124.35C2425.86,3124.1 2425.86,3123.87 2425.87,3123.66C2425.87,3123.45 2425.87,3123.29 2425.87,3123.16L2425.87,3119.78C2425.87,3119.53 2425.84,3119.37 2425.76,3119.29C2425.69,3119.21 2425.57,3119.17 2425.39,3119.17L2425.24,3119.17C2425.22,3119.09 2425.2,3119.01 2425.19,3118.94C2425.18,3118.87 2425.17,3118.8 2425.17,3118.73C2425.17,3118.51 2425.29,3118.41 2425.53,3118.41L2427.22,3118.41C2427.22,3118.56 2427.22,3118.74 2427.21,3118.95C2427.2,3119.15 2427.2,3119.38 2427.19,3119.61C2427.18,3119.84 2427.18,3120.08 2427.17,3120.32C2427.17,3120.55 2427.16,3120.77 2427.16,3120.98C2427.32,3120.84 2427.5,3120.73 2427.72,3120.64C2427.95,3120.56 2428.21,3120.51 2428.51,3120.51C2429.23,3120.51 2429.77,3120.74 2430.14,3121.18C2430.51,3121.62 2430.7,3122.23 2430.7,3123.01C2430.7,3123.69 2430.58,3124.24 2430.36,3124.68C2430.13,3125.11 2429.83,3125.43 2429.44,3125.64C2429.06,3125.86 2428.62,3125.96 2428.13,3125.96C2427.89,3125.96 2427.67,3125.93 2427.47,3125.87C2427.26,3125.82 2427.1,3125.75 2426.96,3125.67Z" style="fill-rule:nonzero;"/>
                <path d="M2413.39,3136.32L2413.7,3136.32C2413.71,3135.99 2413.72,3135.67 2413.72,3135.38C2413.73,3135.08 2413.73,3134.79 2413.73,3134.49L2413.73,3133.19C2413.73,3132.94 2413.7,3132.78 2413.63,3132.7C2413.55,3132.62 2413.43,3132.58 2413.25,3132.58L2413.1,3132.58C2413.08,3132.5 2413.06,3132.42 2413.05,3132.35C2413.04,3132.28 2413.03,3132.21 2413.03,3132.14C2413.03,3131.93 2413.15,3131.82 2413.39,3131.82L2414.74,3131.82C2414.76,3131.9 2414.78,3132 2414.79,3132.12C2414.8,3132.23 2414.8,3132.33 2414.8,3132.43C2415.06,3132.21 2415.33,3132.03 2415.62,3131.91C2415.91,3131.78 2416.24,3131.71 2416.62,3131.71C2417.13,3131.71 2417.51,3131.84 2417.79,3132.1C2418.06,3132.35 2418.19,3132.8 2418.19,3133.43L2418.19,3135.5C2418.19,3135.74 2418.21,3135.91 2418.23,3136.03C2418.25,3136.15 2418.29,3136.23 2418.35,3136.27C2418.41,3136.31 2418.49,3136.32 2418.59,3136.32L2418.77,3136.32C2418.8,3136.4 2418.81,3136.47 2418.82,3136.54C2418.83,3136.61 2418.84,3136.67 2418.84,3136.73C2418.84,3136.94 2418.72,3137.05 2418.48,3137.05L2416.84,3137.05C2416.85,3136.87 2416.85,3136.66 2416.86,3136.4C2416.87,3136.15 2416.88,3135.88 2416.89,3135.61C2416.9,3135.34 2416.9,3135.09 2416.9,3134.88L2416.9,3134.24C2416.9,3133.85 2416.87,3133.54 2416.82,3133.31C2416.76,3133.08 2416.67,3132.91 2416.53,3132.81C2416.39,3132.71 2416.2,3132.66 2415.95,3132.66C2415.65,3132.66 2415.43,3132.75 2415.27,3132.93C2415.11,3133.11 2415.03,3133.42 2415.03,3133.86L2415.03,3134.49C2415.03,3134.79 2415.03,3135.08 2415.04,3135.38C2415.04,3135.67 2415.05,3135.99 2415.06,3136.32L2415.63,3136.32C2415.65,3136.4 2415.67,3136.47 2415.68,3136.54C2415.69,3136.61 2415.7,3136.67 2415.7,3136.73C2415.7,3136.94 2415.58,3137.05 2415.34,3137.05L2413.1,3137.05C2413.08,3136.97 2413.06,3136.9 2413.05,3136.84C2413.04,3136.77 2413.03,3136.71 2413.03,3136.65C2413.03,3136.43 2413.15,3136.32 2413.39,3136.32Z" style="fill-rule:nonzero;"/>
                <path d="M2423.3,3134.66L2420.81,3134.66C2420.85,3135.09 2420.94,3135.42 2421.07,3135.66C2421.2,3135.89 2421.37,3136.05 2421.58,3136.14C2421.79,3136.23 2422.02,3136.27 2422.27,3136.27C2422.55,3136.27 2422.79,3136.21 2422.98,3136.1C2423.17,3135.99 2423.36,3135.83 2423.54,3135.62C2423.68,3135.66 2423.8,3135.73 2423.91,3135.82C2424.01,3135.92 2424.06,3136.04 2424.06,3136.19C2424.06,3136.35 2423.97,3136.5 2423.8,3136.65C2423.63,3136.8 2423.4,3136.92 2423.1,3137.02C2422.79,3137.11 2422.44,3137.16 2422.05,3137.16C2421.15,3137.16 2420.5,3136.93 2420.08,3136.48C2419.66,3136.03 2419.45,3135.4 2419.45,3134.6C2419.45,3133.62 2419.67,3132.89 2420.13,3132.42C2420.58,3131.95 2421.18,3131.71 2421.91,3131.71C2422.41,3131.71 2422.82,3131.8 2423.14,3131.98C2423.46,3132.16 2423.7,3132.41 2423.86,3132.73C2424.02,3133.04 2424.1,3133.4 2424.1,3133.81C2424.1,3134.06 2424.07,3134.24 2424.02,3134.37C2423.96,3134.49 2423.88,3134.57 2423.76,3134.61C2423.65,3134.64 2423.49,3134.66 2423.3,3134.66ZM2420.81,3133.86L2422.77,3133.86L2422.77,3133.78C2422.77,3133.39 2422.69,3133.08 2422.52,3132.86C2422.36,3132.64 2422.12,3132.53 2421.82,3132.53C2421.53,3132.53 2421.3,3132.63 2421.13,3132.84C2420.95,3133.06 2420.84,3133.39 2420.81,3133.86Z" style="fill-rule:nonzero;"/>
                <path d="M2426.78,3134.02L2426.78,3136.07C2426.9,3136.15 2427.05,3136.22 2427.22,3136.27C2427.39,3136.32 2427.58,3136.35 2427.77,3136.35C2427.99,3136.35 2428.18,3136.29 2428.35,3136.19C2428.52,3136.09 2428.66,3135.91 2428.76,3135.65C2428.86,3135.39 2428.91,3135.03 2428.91,3134.56C2428.91,3134.05 2428.86,3133.65 2428.76,3133.36C2428.66,3133.08 2428.52,3132.87 2428.34,3132.76C2428.16,3132.64 2427.95,3132.59 2427.72,3132.59C2427.41,3132.59 2427.18,3132.7 2427.02,3132.93C2426.86,3133.15 2426.78,3133.52 2426.78,3134.02ZM2425.15,3138.62L2425.45,3138.62C2425.46,3138.34 2425.47,3138.07 2425.48,3137.8C2425.48,3137.54 2425.49,3137.29 2425.49,3137.06L2425.49,3133.19C2425.49,3132.94 2425.45,3132.78 2425.38,3132.7C2425.31,3132.62 2425.18,3132.58 2425,3132.58L2424.86,3132.58C2424.83,3132.5 2424.81,3132.42 2424.8,3132.35C2424.79,3132.28 2424.78,3132.21 2424.78,3132.14C2424.78,3131.93 2424.91,3131.82 2425.15,3131.82L2426.48,3131.82C2426.51,3131.9 2426.52,3132 2426.53,3132.1C2426.54,3132.19 2426.55,3132.29 2426.56,3132.37C2426.75,3132.16 2426.97,3132 2427.24,3131.88C2427.5,3131.77 2427.79,3131.71 2428.13,3131.71C2428.6,3131.71 2429,3131.81 2429.32,3132.01C2429.65,3132.21 2429.89,3132.49 2430.06,3132.86C2430.22,3133.24 2430.31,3133.69 2430.31,3134.21C2430.31,3134.89 2430.2,3135.44 2429.97,3135.88C2429.75,3136.31 2429.44,3136.63 2429.06,3136.84C2428.67,3137.05 2428.23,3137.16 2427.74,3137.16C2427.52,3137.16 2427.33,3137.14 2427.18,3137.1C2427.03,3137.06 2426.9,3137.02 2426.78,3136.97L2426.78,3137.27C2426.78,3137.41 2426.78,3137.6 2426.78,3137.85C2426.79,3138.11 2426.8,3138.37 2426.81,3138.62L2427.57,3138.62C2427.59,3138.7 2427.6,3138.77 2427.61,3138.84C2427.62,3138.91 2427.63,3138.97 2427.63,3139.03C2427.63,3139.24 2427.51,3139.35 2427.27,3139.35L2424.86,3139.35C2424.83,3139.27 2424.81,3139.2 2424.8,3139.14C2424.79,3139.07 2424.78,3139.01 2424.78,3138.95C2424.78,3138.73 2424.91,3138.62 2425.15,3138.62Z" style="fill-rule:nonzero;"/>
                <path d="M2434.05,3135.25L2434.05,3134.81L2433.26,3134.81C2432.96,3134.81 2432.75,3134.87 2432.62,3135.01C2432.49,3135.14 2432.42,3135.31 2432.42,3135.53C2432.42,3135.75 2432.48,3135.93 2432.6,3136.06C2432.72,3136.18 2432.9,3136.24 2433.14,3136.24C2433.45,3136.24 2433.67,3136.15 2433.82,3135.98C2433.97,3135.8 2434.05,3135.56 2434.05,3135.25ZM2435.54,3136.95L2434.46,3137.05C2434.41,3136.98 2434.37,3136.89 2434.33,3136.79C2434.3,3136.69 2434.27,3136.59 2434.26,3136.51C2434.04,3136.73 2433.81,3136.9 2433.56,3137C2433.32,3137.11 2433.02,3137.16 2432.67,3137.16C2432.22,3137.16 2431.85,3137.03 2431.56,3136.78C2431.27,3136.53 2431.12,3136.14 2431.12,3135.63C2431.12,3135.11 2431.32,3134.71 2431.69,3134.43C2432.07,3134.15 2432.63,3134.01 2433.37,3134.01L2434.05,3134.01L2434.05,3133.77C2434.05,3133.42 2434.01,3133.16 2433.94,3132.98C2433.88,3132.8 2433.76,3132.67 2433.6,3132.6C2433.44,3132.53 2433.22,3132.49 2432.95,3132.49L2432.65,3132.49L2432.47,3133.22C2432.4,3133.25 2432.3,3133.28 2432.19,3133.3C2432.09,3133.32 2431.98,3133.33 2431.87,3133.33C2431.77,3133.33 2431.67,3133.29 2431.57,3133.21C2431.47,3133.14 2431.39,3133.03 2431.33,3132.91C2431.27,3132.78 2431.24,3132.66 2431.24,3132.52C2431.24,3132.42 2431.27,3132.33 2431.33,3132.26C2431.38,3132.19 2431.49,3132.12 2431.63,3132.05C2431.84,3131.96 2432.12,3131.88 2432.47,3131.81C2432.82,3131.75 2433.19,3131.71 2433.6,3131.71C2434.21,3131.71 2434.65,3131.84 2434.93,3132.1C2435.2,3132.36 2435.34,3132.8 2435.34,3133.42L2435.34,3135.68C2435.34,3135.91 2435.37,3136.07 2435.42,3136.13C2435.47,3136.2 2435.57,3136.23 2435.71,3136.23L2435.93,3136.23C2435.95,3136.28 2435.96,3136.34 2435.97,3136.39C2435.98,3136.44 2435.99,3136.51 2435.99,3136.58C2435.99,3136.7 2435.96,3136.79 2435.89,3136.84C2435.83,3136.9 2435.71,3136.94 2435.54,3136.95Z" style="fill-rule:nonzero;"/>
                <path d="M2436.8,3136.32L2437.1,3136.32C2437.11,3136.08 2437.12,3135.81 2437.13,3135.51C2437.14,3135.22 2437.14,3134.89 2437.14,3134.52L2437.14,3130.98C2437.14,3130.73 2437.1,3130.57 2437.03,3130.49C2436.95,3130.41 2436.83,3130.37 2436.65,3130.37L2436.51,3130.37C2436.48,3130.28 2436.46,3130.21 2436.45,3130.14C2436.44,3130.07 2436.44,3130 2436.44,3129.93C2436.44,3129.71 2436.56,3129.61 2436.8,3129.61L2438.48,3129.61C2438.48,3129.87 2438.47,3130.2 2438.45,3130.6C2438.44,3131 2438.43,3131.4 2438.43,3131.82L2438.43,3134.49C2438.43,3134.79 2438.43,3135.08 2438.44,3135.38C2438.45,3135.67 2438.45,3135.99 2438.47,3136.32L2439.03,3136.32C2439.06,3136.4 2439.07,3136.47 2439.08,3136.54C2439.09,3136.61 2439.1,3136.67 2439.1,3136.73C2439.1,3136.94 2438.98,3137.05 2438.74,3137.05L2436.51,3137.05C2436.48,3136.97 2436.46,3136.9 2436.45,3136.84C2436.44,3136.77 2436.44,3136.71 2436.44,3136.65C2436.44,3136.43 2436.56,3136.32 2436.8,3136.32Z" style="fill-rule:nonzero;"/>
            </g>
            <g transform="matrix(27.591,0,0,27.591,-53937.5,-84585)">
                <path d="M2415.23,3114.56C2415.23,3114.56 2415.22,3114.56 2415.22,3114.56L2415.22,3114.9C2415.22,3115.05 2415.23,3114.91 2415.23,3115.2C2415.23,3115.48 2415.24,3115.78 2415.26,3116.07L2416.11,3116.07C2416.13,3116.15 2416.15,3116.23 2416.16,3116.31C2416.17,3116.39 2416.18,3116.46 2416.18,3116.52C2416.18,3116.76 2416.05,3116.89 2415.78,3116.89L2413.07,3116.89C2413.04,3116.8 2413.02,3116.72 2413.01,3116.64C2412.99,3116.57 2412.99,3116.5 2412.99,3116.43C2412.99,3116.19 2413.12,3116.07 2413.39,3116.07L2413.73,3116.07C2413.75,3115.75 2413.76,3115.43 2413.76,3115.14C2413.77,3114.85 2413.77,3114.92 2413.77,3114.66L2413.77,3110.33C2413.77,3110.05 2413.73,3109.86 2413.65,3109.77C2413.57,3109.68 2413.43,3109.64 2413.23,3109.64L2413.07,3109.64C2413.04,3109.55 2413.02,3109.46 2413,3109.38C2412.99,3109.3 2412.99,3109.22 2412.99,3109.15C2412.99,3108.91 2413.12,3108.79 2413.39,3108.79L2414.89,3108.79C2414.92,3108.88 2414.94,3108.98 2414.95,3109.09C2414.96,3109.2 2414.97,3109.31 2414.97,3109.41C2415.19,3109.17 2415.44,3108.99 2415.74,3108.86C2416.03,3108.73 2416.36,3108.67 2416.74,3108.67C2417.26,3108.67 2417.71,3108.78 2418.08,3109C2418.44,3109.22 2418.72,3109.54 2418.9,3109.96C2419.09,3110.38 2419.18,3110.88 2419.18,3111.47C2419.18,3112.22 2419.06,3112.85 2418.8,3113.34C2418.55,3113.82 2418.21,3114.18 2417.78,3114.42C2417.35,3114.66 2416.86,3114.77 2416.3,3114.77C2416.06,3114.77 2415.85,3114.75 2415.69,3114.71L2415.69,3113.51L2417.93,3113.49L2416.01,3111.95L2417.93,3111.94L2415.23,3109.78L2415.23,3111.64L2415.23,3111.64L2415.23,3114.56Z"/>
            </g>
            <g transform="matrix(-0.343607,0,0,0.22342,13861.2,-15.9126)">
                <path d="M3339.33,5638.39L3262.24,5733.09L3339.37,5734.03L3339.33,5638.39" style="fill:rgb(255,38,0);"/>
            </g>
            <g transform="matrix(-0.343607,0,0,0.22342,13861.2,27.0943)">
                <path d="M3339.33,5638.39L3262.24,5733.09L3339.37,5734.03L3339.33,5638.39" style="fill:rgb(0,150,255);"/>
            </g>
        </g>
    </g>
</svg>
