<?xml version="1.0" encoding="UTF-8" standalone="no"?>
<!DOCTYPE svg PUBLIC "-//W3C//DTD SVG 1.1//EN" "http://www.w3.org/Graphics/SVG/1.1/DTD/svg11.dtd">
<svg width="100%" height="100%" viewBox="0 0 1080 1080" version="1.1" xmlns="http://www.w3.org/2000/svg" xmlns:xlink="http://www.w3.org/1999/xlink" xml:space="preserve" xmlns:serif="http://www.serif.com/" style="fill-rule:evenodd;clip-rule:evenodd;stroke-linejoin:round;stroke-miterlimit:2;">
    <g transform="matrix(1,0,0,1,-1131,-1155)">
        <g id="honza_trava_logo_hotel_negativni_V1" transform="matrix(1.00089,0,0,1.00089,-11166.1,394.163)">
            <rect x="12286.1" y="760.158" width="1079.04" height="1079.04" style="fill:none;"/>
            <g transform="matrix(26.7128,0,0,26.7128,-51917.4,-81789.9)">
                <path d="M2415.29,3114.65L2413.12,3114.65C2413.09,3114.57 2413.07,3114.49 2413.06,3114.41C2413.04,3114.34 2413.04,3114.27 2413.04,3114.2C2413.04,3113.96 2413.17,3113.84 2413.44,3113.84L2413.78,3113.84C2413.8,3113.56 2413.81,3113.26 2413.82,3112.93C2413.82,3112.6 2413.83,3112.23 2413.83,3111.81L2413.83,3107.84C2413.83,3107.56 2413.78,3107.38 2413.7,3107.29C2413.62,3107.2 2413.48,3107.15 2413.28,3107.15L2413.12,3107.15C2413.09,3107.06 2413.07,3106.98 2413.06,3106.9C2413.04,3106.82 2413.04,3106.74 2413.04,3106.66C2413.04,3106.42 2413.17,3106.3 2413.44,3106.3L2415.33,3106.3C2415.33,3106.6 2415.32,3106.97 2415.3,3107.42C2415.28,3107.86 2415.28,3108.32 2415.28,3108.78L2415.28,3109.28C2415.5,3109.1 2415.76,3108.95 2416.06,3108.84C2416.36,3108.72 2416.69,3108.67 2417.06,3108.67C2417.63,3108.67 2418.07,3108.81 2418.37,3109.1C2418.68,3109.38 2418.83,3109.88 2418.83,3110.59L2418.83,3112.91C2418.83,3113.18 2418.84,3113.38 2418.87,3113.51C2418.89,3113.65 2418.94,3113.73 2419.01,3113.78C2419.07,3113.82 2419.16,3113.84 2419.27,3113.84L2419.48,3113.84C2419.5,3113.92 2419.52,3114 2419.53,3114.08C2419.54,3114.16 2419.55,3114.23 2419.55,3114.29C2419.55,3114.53 2419.42,3114.65 2419.15,3114.65L2415.75,3114.65L2415.75,3113.57L2417.98,3113.55L2416.07,3112.02L2417.98,3112L2415.29,3109.85L2415.29,3111.81L2415.29,3114.65Z" style="fill:white;"/>
            </g>
            <g transform="matrix(-0.3319,0,0,0.215808,13722.3,91.8982)">
                <path d="M3339.33,5638.39L3262.24,5733.09L3339.37,5734.03L3339.33,5638.39" style="fill:rgb(0,166,33);"/>
            </g>
            <g transform="matrix(-0.3319,0,0,0.215808,13722.3,133.44)">
                <path d="M3339.33,5638.39L3262.24,5733.09L3339.37,5734.03L3339.33,5638.39" style="fill:rgb(0,150,255);"/>
            </g>
            <g transform="matrix(5.97741,0,0,5.97741,-1660.39,-17361.1)">
                <path d="M2413.36,3113.93L2413.67,3113.93C2413.68,3113.68 2413.69,3113.41 2413.7,3113.12C2413.7,3112.82 2413.7,3112.49 2413.7,3112.12L2413.7,3108.58C2413.7,3108.33 2413.67,3108.17 2413.6,3108.09C2413.52,3108.01 2413.4,3107.97 2413.22,3107.97L2413.07,3107.97C2413.05,3107.89 2413.03,3107.81 2413.02,3107.74C2413.01,3107.67 2413,3107.6 2413,3107.53C2413,3107.32 2413.12,3107.21 2413.36,3107.21L2415.05,3107.21C2415.05,3107.47 2415.03,3107.8 2415.02,3108.2C2415.01,3108.6 2415,3109.01 2415,3109.42L2415,3109.86C2415.2,3109.7 2415.43,3109.57 2415.7,3109.47C2415.96,3109.37 2416.26,3109.32 2416.59,3109.32C2417.1,3109.32 2417.49,3109.44 2417.76,3109.7C2418.03,3109.95 2418.16,3110.4 2418.16,3111.03L2418.16,3113.1C2418.16,3113.34 2418.18,3113.52 2418.2,3113.64C2418.22,3113.76 2418.26,3113.83 2418.32,3113.87C2418.38,3113.91 2418.46,3113.93 2418.56,3113.93L2418.74,3113.93C2418.76,3114 2418.78,3114.07 2418.79,3114.14C2418.8,3114.21 2418.81,3114.27 2418.81,3114.33C2418.81,3114.55 2418.69,3114.65 2418.45,3114.65L2416.81,3114.65C2416.82,3114.48 2416.82,3114.26 2416.83,3114C2416.84,3113.75 2416.85,3113.48 2416.86,3113.21C2416.87,3112.94 2416.87,3112.7 2416.87,3112.48L2416.87,3111.85C2416.87,3111.46 2416.84,3111.15 2416.79,3110.91C2416.73,3110.68 2416.64,3110.51 2416.5,3110.41C2416.37,3110.31 2416.17,3110.26 2415.92,3110.26C2415.63,3110.26 2415.4,3110.35 2415.24,3110.53C2415.08,3110.7 2415,3111.01 2415,3111.44L2415,3112.1C2415,3112.39 2415,3112.69 2415,3112.98C2415.01,3113.27 2415.02,3113.59 2415.03,3113.93L2415.6,3113.93C2415.62,3114 2415.64,3114.07 2415.65,3114.14C2415.66,3114.21 2415.67,3114.27 2415.67,3114.33C2415.67,3114.55 2415.55,3114.65 2415.31,3114.65L2413.07,3114.65C2413.05,3114.58 2413.03,3114.51 2413.02,3114.44C2413.01,3114.37 2413,3114.31 2413,3114.25C2413,3114.03 2413.12,3113.93 2413.36,3113.93Z" style="fill:white;fill-rule:nonzero;"/>
                <path d="M2420.81,3111.88C2420.81,3112.64 2420.91,3113.18 2421.11,3113.49C2421.3,3113.79 2421.58,3113.95 2421.93,3113.95C2422.12,3113.95 2422.3,3113.89 2422.45,3113.78C2422.6,3113.67 2422.73,3113.49 2422.82,3113.23C2422.91,3112.98 2422.96,3112.63 2422.96,3112.2C2422.96,3111.43 2422.86,3110.89 2422.67,3110.59C2422.48,3110.28 2422.2,3110.13 2421.84,3110.13C2421.65,3110.13 2421.48,3110.18 2421.33,3110.29C2421.17,3110.4 2421.05,3110.59 2420.95,3110.84C2420.86,3111.1 2420.81,3111.44 2420.81,3111.88ZM2419.42,3112.2C2419.42,3111.58 2419.52,3111.05 2419.73,3110.62C2419.94,3110.19 2420.24,3109.87 2420.62,3109.65C2421.01,3109.43 2421.46,3109.32 2421.97,3109.32C2422.78,3109.32 2423.37,3109.54 2423.76,3110C2424.16,3110.45 2424.35,3111.08 2424.35,3111.87C2424.35,3112.5 2424.25,3113.03 2424.04,3113.46C2423.83,3113.89 2423.53,3114.21 2423.15,3114.43C2422.77,3114.65 2422.32,3114.76 2421.8,3114.76C2421,3114.76 2420.4,3114.53 2420.01,3114.08C2419.61,3113.63 2419.42,3113 2419.42,3112.2Z" style="fill:white;fill-rule:nonzero;"/>
                <path d="M2425.67,3113.03L2425.67,3110.29L2424.91,3110.29C2424.88,3110.21 2424.86,3110.14 2424.84,3110.07C2424.83,3110 2424.82,3109.91 2424.82,3109.82C2424.82,3109.56 2424.95,3109.42 2425.2,3109.42L2425.67,3109.42L2426.02,3108.04L2426.4,3108.06C2426.62,3108.08 2426.77,3108.13 2426.85,3108.22C2426.93,3108.31 2426.97,3108.48 2426.97,3108.73L2426.97,3109.42L2428.71,3109.42C2428.74,3109.5 2428.76,3109.57 2428.77,3109.64C2428.79,3109.71 2428.79,3109.79 2428.79,3109.89C2428.79,3110.15 2428.67,3110.29 2428.41,3110.29L2426.97,3110.29L2426.97,3112.76C2426.97,3113.14 2427.02,3113.4 2427.14,3113.57C2427.25,3113.73 2427.42,3113.82 2427.64,3113.82C2427.78,3113.82 2427.91,3113.78 2428.03,3113.71C2428.14,3113.65 2428.24,3113.56 2428.33,3113.44C2428.46,3113.47 2428.58,3113.53 2428.67,3113.63C2428.77,3113.72 2428.82,3113.84 2428.82,3113.97C2428.82,3114.17 2428.68,3114.35 2428.4,3114.52C2428.12,3114.68 2427.76,3114.76 2427.3,3114.76C2426.73,3114.76 2426.32,3114.61 2426.06,3114.31C2425.8,3114.01 2425.67,3113.58 2425.67,3113.03Z" style="fill:white;fill-rule:nonzero;"/>
                <path d="M2433.18,3112.26L2430.7,3112.26C2430.73,3112.69 2430.82,3113.03 2430.95,3113.26C2431.08,3113.49 2431.25,3113.65 2431.46,3113.74C2431.67,3113.83 2431.9,3113.87 2432.15,3113.87C2432.43,3113.87 2432.67,3113.82 2432.86,3113.7C2433.05,3113.59 2433.24,3113.43 2433.42,3113.22C2433.57,3113.26 2433.69,3113.33 2433.79,3113.43C2433.89,3113.52 2433.94,3113.64 2433.94,3113.79C2433.94,3113.95 2433.85,3114.1 2433.68,3114.25C2433.51,3114.4 2433.28,3114.52 2432.98,3114.62C2432.68,3114.71 2432.33,3114.76 2431.93,3114.76C2431.04,3114.76 2430.38,3114.53 2429.96,3114.08C2429.54,3113.63 2429.33,3113.01 2429.33,3112.2C2429.33,3111.22 2429.55,3110.49 2430.01,3110.02C2430.46,3109.55 2431.06,3109.32 2431.79,3109.32C2432.29,3109.32 2432.7,3109.41 2433.02,3109.59C2433.34,3109.77 2433.58,3110.01 2433.74,3110.33C2433.9,3110.64 2433.98,3111.01 2433.98,3111.42C2433.98,3111.66 2433.95,3111.85 2433.9,3111.97C2433.84,3112.09 2433.76,3112.17 2433.64,3112.21C2433.53,3112.24 2433.37,3112.26 2433.18,3112.26ZM2430.69,3111.46L2432.65,3111.46L2432.65,3111.39C2432.65,3110.99 2432.57,3110.68 2432.4,3110.46C2432.24,3110.24 2432,3110.13 2431.7,3110.13C2431.42,3110.13 2431.19,3110.24 2431.01,3110.45C2430.83,3110.66 2430.72,3110.99 2430.69,3111.46Z" style="fill:white;fill-rule:nonzero;"/>
                <path d="M2434.97,3113.93L2435.28,3113.93C2435.29,3113.68 2435.3,3113.41 2435.31,3113.12C2435.31,3112.82 2435.32,3112.49 2435.32,3112.12L2435.32,3108.58C2435.32,3108.33 2435.28,3108.17 2435.21,3108.09C2435.13,3108.01 2435.01,3107.97 2434.83,3107.97L2434.68,3107.97C2434.66,3107.89 2434.64,3107.81 2434.63,3107.74C2434.62,3107.67 2434.61,3107.6 2434.61,3107.53C2434.61,3107.32 2434.74,3107.21 2434.97,3107.21L2436.66,3107.21C2436.66,3107.47 2436.65,3107.8 2436.63,3108.2C2436.62,3108.6 2436.61,3109.01 2436.61,3109.42L2436.61,3112.1C2436.61,3112.39 2436.61,3112.69 2436.62,3112.98C2436.62,3113.27 2436.63,3113.59 2436.64,3113.93L2437.21,3113.93C2437.24,3114 2437.25,3114.07 2437.26,3114.14C2437.27,3114.21 2437.28,3114.27 2437.28,3114.33C2437.28,3114.55 2437.16,3114.65 2436.92,3114.65L2434.68,3114.65C2434.66,3114.58 2434.64,3114.51 2434.63,3114.44C2434.62,3114.37 2434.61,3114.31 2434.61,3114.25C2434.61,3114.03 2434.74,3113.93 2434.97,3113.93Z" style="fill:white;fill-rule:nonzero;"/>
                <path d="M2413.26,3125.12L2413.57,3125.12C2413.58,3124.88 2413.59,3124.61 2413.6,3124.31C2413.6,3124.02 2413.61,3123.69 2413.61,3123.32L2413.61,3119.78C2413.61,3119.53 2413.57,3119.37 2413.5,3119.29C2413.42,3119.21 2413.3,3119.17 2413.12,3119.17L2412.97,3119.17C2412.95,3119.09 2412.93,3119.01 2412.92,3118.94C2412.91,3118.87 2412.91,3118.8 2412.91,3118.73C2412.91,3118.51 2413.03,3118.41 2413.26,3118.41L2414.95,3118.41C2414.95,3118.67 2414.94,3119 2414.92,3119.4C2414.91,3119.8 2414.9,3120.2 2414.9,3120.62L2414.9,3122.88C2415.06,3122.74 2415.23,3122.59 2415.41,3122.42C2415.59,3122.25 2415.76,3122.08 2415.94,3121.9C2416.11,3121.72 2416.27,3121.54 2416.42,3121.38L2415.96,3121.38C2415.94,3121.31 2415.92,3121.24 2415.91,3121.18C2415.89,3121.12 2415.89,3121.05 2415.89,3120.97C2415.89,3120.74 2416.01,3120.62 2416.25,3120.62L2418.31,3120.62C2418.34,3120.69 2418.36,3120.76 2418.37,3120.82C2418.39,3120.88 2418.39,3120.95 2418.39,3121.03C2418.39,3121.15 2418.36,3121.24 2418.31,3121.29C2418.25,3121.35 2418.16,3121.38 2418.02,3121.38L2417.81,3121.38C2417.58,3121.6 2417.34,3121.81 2417.1,3122.04C2416.85,3122.26 2416.61,3122.48 2416.38,3122.68L2417.43,3124.4C2417.6,3124.69 2417.73,3124.88 2417.85,3124.98C2417.96,3125.08 2418.09,3125.12 2418.22,3125.12L2418.47,3125.12C2418.5,3125.2 2418.51,3125.27 2418.53,3125.34C2418.53,3125.41 2418.54,3125.47 2418.54,3125.53C2418.54,3125.74 2418.42,3125.85 2418.18,3125.85L2416.7,3125.85C2416.65,3125.76 2416.58,3125.62 2416.49,3125.43C2416.39,3125.24 2416.29,3125.03 2416.17,3124.8C2416.05,3124.57 2415.93,3124.33 2415.81,3124.1C2415.69,3123.87 2415.58,3123.68 2415.48,3123.51L2414.9,3124.03C2414.9,3124.16 2414.9,3124.32 2414.91,3124.53C2414.91,3124.73 2414.92,3124.93 2414.93,3125.12L2415.5,3125.12C2415.53,3125.2 2415.54,3125.27 2415.55,3125.34C2415.56,3125.41 2415.57,3125.47 2415.57,3125.53C2415.57,3125.74 2415.45,3125.85 2415.21,3125.85L2412.97,3125.85C2412.95,3125.78 2412.93,3125.7 2412.92,3125.64C2412.91,3125.57 2412.91,3125.51 2412.91,3125.45C2412.91,3125.23 2413.03,3125.12 2413.26,3125.12Z" style="fill:white;fill-rule:nonzero;"/>
                <path d="M2422.01,3124.05L2422.01,3123.61L2421.22,3123.61C2420.93,3123.61 2420.71,3123.68 2420.58,3123.81C2420.45,3123.94 2420.38,3124.11 2420.38,3124.33C2420.38,3124.55 2420.44,3124.73 2420.56,3124.86C2420.68,3124.98 2420.86,3125.04 2421.1,3125.04C2421.41,3125.04 2421.64,3124.95 2421.78,3124.78C2421.93,3124.6 2422.01,3124.36 2422.01,3124.05ZM2423.5,3125.75L2422.42,3125.85C2422.37,3125.78 2422.33,3125.69 2422.29,3125.59C2422.26,3125.49 2422.23,3125.39 2422.22,3125.31C2422,3125.54 2421.77,3125.7 2421.53,3125.81C2421.28,3125.91 2420.98,3125.96 2420.63,3125.96C2420.18,3125.96 2419.81,3125.83 2419.52,3125.58C2419.23,3125.33 2419.09,3124.94 2419.09,3124.43C2419.09,3123.91 2419.28,3123.51 2419.65,3123.23C2420.03,3122.95 2420.59,3122.81 2421.33,3122.81L2422.01,3122.81L2422.01,3122.57C2422.01,3122.22 2421.97,3121.96 2421.9,3121.78C2421.84,3121.6 2421.72,3121.47 2421.56,3121.4C2421.4,3121.33 2421.19,3121.3 2420.91,3121.3L2420.61,3121.3L2420.43,3122.03C2420.36,3122.06 2420.26,3122.08 2420.16,3122.1C2420.05,3122.12 2419.94,3122.13 2419.83,3122.13C2419.73,3122.13 2419.63,3122.09 2419.53,3122.01C2419.43,3121.94 2419.35,3121.83 2419.29,3121.71C2419.23,3121.58 2419.2,3121.46 2419.2,3121.32C2419.2,3121.22 2419.23,3121.13 2419.29,3121.06C2419.34,3120.99 2419.45,3120.92 2419.59,3120.85C2419.8,3120.76 2420.08,3120.68 2420.43,3120.61C2420.78,3120.55 2421.16,3120.51 2421.56,3120.51C2422.17,3120.51 2422.62,3120.64 2422.89,3120.9C2423.16,3121.16 2423.3,3121.6 2423.3,3122.22L2423.3,3124.49C2423.3,3124.72 2423.33,3124.87 2423.38,3124.93C2423.43,3125 2423.53,3125.03 2423.67,3125.03L2423.89,3125.03C2423.91,3125.09 2423.92,3125.14 2423.93,3125.19C2423.94,3125.24 2423.95,3125.31 2423.95,3125.38C2423.95,3125.5 2423.92,3125.59 2423.85,3125.64C2423.79,3125.7 2423.67,3125.74 2423.5,3125.75Z" style="fill:white;fill-rule:nonzero;"/>
                <path d="M2425.15,3124.22L2425.15,3121.49L2424.38,3121.49C2424.36,3121.41 2424.34,3121.34 2424.32,3121.27C2424.3,3121.2 2424.3,3121.11 2424.3,3121.02C2424.3,3120.76 2424.42,3120.62 2424.68,3120.62L2425.15,3120.62L2425.5,3119.24L2425.88,3119.26C2426.1,3119.28 2426.24,3119.33 2426.32,3119.42C2426.4,3119.51 2426.45,3119.68 2426.45,3119.93L2426.45,3120.62L2428.19,3120.62C2428.22,3120.7 2428.24,3120.77 2428.25,3120.84C2428.26,3120.91 2428.27,3120.99 2428.27,3121.09C2428.27,3121.35 2428.14,3121.49 2427.89,3121.49L2426.45,3121.49L2426.45,3123.96C2426.45,3124.34 2426.5,3124.6 2426.62,3124.77C2426.73,3124.93 2426.9,3125.01 2427.12,3125.01C2427.26,3125.01 2427.39,3124.98 2427.5,3124.91C2427.62,3124.85 2427.72,3124.75 2427.81,3124.64C2427.94,3124.67 2428.05,3124.73 2428.15,3124.83C2428.25,3124.92 2428.29,3125.04 2428.29,3125.17C2428.29,3125.37 2428.15,3125.55 2427.88,3125.72C2427.6,3125.88 2427.23,3125.96 2426.78,3125.96C2426.21,3125.96 2425.8,3125.81 2425.54,3125.51C2425.28,3125.21 2425.15,3124.78 2425.15,3124.22Z" style="fill:white;fill-rule:nonzero;"/>
                <path d="M2429.08,3125.12L2429.38,3125.12C2429.4,3124.88 2429.41,3124.61 2429.41,3124.31C2429.42,3124.02 2429.42,3123.69 2429.42,3123.32L2429.42,3119.78C2429.42,3119.53 2429.39,3119.37 2429.31,3119.29C2429.24,3119.21 2429.12,3119.17 2428.94,3119.17L2428.79,3119.17C2428.76,3119.09 2428.75,3119.01 2428.74,3118.94C2428.72,3118.87 2428.72,3118.8 2428.72,3118.73C2428.72,3118.51 2428.84,3118.41 2429.08,3118.41L2430.77,3118.41C2430.76,3118.67 2430.75,3119 2430.74,3119.4C2430.72,3119.8 2430.72,3120.2 2430.72,3120.62L2430.72,3121.06C2430.91,3120.9 2431.15,3120.77 2431.41,3120.67C2431.68,3120.57 2431.98,3120.51 2432.31,3120.51C2432.82,3120.51 2433.2,3120.64 2433.47,3120.9C2433.75,3121.15 2433.88,3121.6 2433.88,3122.23L2433.88,3124.3C2433.88,3124.54 2433.89,3124.72 2433.92,3124.84C2433.94,3124.95 2433.98,3125.03 2434.04,3125.07C2434.1,3125.11 2434.18,3125.12 2434.28,3125.12L2434.46,3125.12C2434.48,3125.2 2434.5,3125.27 2434.51,3125.34C2434.52,3125.41 2434.53,3125.47 2434.53,3125.53C2434.53,3125.74 2434.41,3125.85 2434.17,3125.85L2432.53,3125.85C2432.53,3125.68 2432.54,3125.46 2432.55,3125.2C2432.56,3124.95 2432.57,3124.68 2432.57,3124.41C2432.58,3124.14 2432.59,3123.89 2432.59,3123.68L2432.59,3123.04C2432.59,3122.66 2432.56,3122.34 2432.51,3122.11C2432.45,3121.88 2432.36,3121.71 2432.22,3121.61C2432.08,3121.51 2431.89,3121.46 2431.64,3121.46C2431.35,3121.46 2431.12,3121.55 2430.96,3121.72C2430.8,3121.9 2430.72,3122.21 2430.72,3122.64L2430.72,3123.3C2430.72,3123.59 2430.72,3123.89 2430.72,3124.18C2430.73,3124.47 2430.74,3124.79 2430.75,3125.12L2431.31,3125.12C2431.34,3125.2 2431.36,3125.27 2431.37,3125.34C2431.38,3125.41 2431.38,3125.47 2431.38,3125.53C2431.38,3125.74 2431.26,3125.85 2431.03,3125.85L2428.79,3125.85C2428.76,3125.78 2428.75,3125.7 2428.74,3125.64C2428.72,3125.57 2428.72,3125.51 2428.72,3125.45C2428.72,3125.23 2428.84,3125.12 2429.08,3125.12Z" style="fill:white;fill-rule:nonzero;"/>
                <path d="M2435.44,3125.12L2435.74,3125.12C2435.76,3124.79 2435.77,3124.47 2435.77,3124.18C2435.78,3123.89 2435.78,3123.59 2435.78,3123.3L2435.78,3121.99C2435.78,3121.75 2435.74,3121.58 2435.67,3121.5C2435.6,3121.42 2435.48,3121.38 2435.3,3121.38L2435.15,3121.38C2435.12,3121.3 2435.11,3121.22 2435.1,3121.15C2435.08,3121.08 2435.08,3121.01 2435.08,3120.95C2435.08,3120.73 2435.2,3120.62 2435.44,3120.62L2436.79,3120.62C2436.81,3120.7 2436.82,3120.8 2436.84,3120.92C2436.85,3121.03 2436.85,3121.14 2436.85,3121.23C2437.11,3121.01 2437.38,3120.84 2437.67,3120.71C2437.96,3120.58 2438.29,3120.51 2438.67,3120.51C2438.98,3120.51 2439.23,3120.57 2439.44,3120.68C2439.65,3120.79 2439.81,3120.96 2439.91,3121.18C2440.17,3120.96 2440.43,3120.79 2440.69,3120.68C2440.95,3120.57 2441.25,3120.51 2441.58,3120.51C2442.09,3120.51 2442.46,3120.64 2442.7,3120.9C2442.94,3121.15 2443.06,3121.6 2443.06,3122.23L2443.06,3124.3C2443.06,3124.54 2443.07,3124.72 2443.09,3124.84C2443.12,3124.95 2443.16,3125.03 2443.22,3125.07C2443.28,3125.11 2443.35,3125.12 2443.45,3125.12L2443.64,3125.12C2443.66,3125.2 2443.68,3125.27 2443.69,3125.34C2443.7,3125.41 2443.71,3125.47 2443.71,3125.53C2443.71,3125.74 2443.59,3125.85 2443.35,3125.85L2441.71,3125.85C2441.72,3125.68 2441.72,3125.46 2441.73,3125.2C2441.74,3124.95 2441.75,3124.68 2441.75,3124.41C2441.76,3124.14 2441.76,3123.89 2441.76,3123.68L2441.76,3123.04C2441.76,3122.46 2441.71,3122.05 2441.59,3121.81C2441.47,3121.58 2441.25,3121.46 2440.92,3121.46C2440.66,3121.46 2440.45,3121.55 2440.3,3121.73C2440.14,3121.91 2440.07,3122.22 2440.07,3122.66L2440.07,3123.3C2440.07,3123.59 2440.07,3123.89 2440.08,3124.18C2440.08,3124.47 2440.09,3124.79 2440.11,3125.12L2440.55,3125.12C2440.57,3125.2 2440.59,3125.27 2440.6,3125.34C2440.61,3125.41 2440.62,3125.47 2440.62,3125.53C2440.62,3125.74 2440.5,3125.85 2440.26,3125.85L2438.31,3125.85C2438.29,3125.78 2438.27,3125.7 2438.26,3125.64C2438.25,3125.57 2438.24,3125.51 2438.24,3125.45C2438.24,3125.23 2438.36,3125.12 2438.6,3125.12L2438.73,3125.12C2438.75,3124.81 2438.76,3124.51 2438.76,3124.22C2438.77,3123.94 2438.77,3123.67 2438.77,3123.4L2438.77,3123.06C2438.77,3122.47 2438.71,3122.06 2438.6,3121.82C2438.48,3121.58 2438.27,3121.46 2437.96,3121.46C2437.68,3121.46 2437.47,3121.55 2437.31,3121.73C2437.15,3121.91 2437.08,3122.22 2437.08,3122.66L2437.08,3123.3C2437.08,3123.59 2437.08,3123.89 2437.08,3124.18C2437.09,3124.47 2437.1,3124.79 2437.11,3125.12L2437.47,3125.12C2437.5,3125.2 2437.51,3125.27 2437.53,3125.34C2437.54,3125.41 2437.54,3125.47 2437.54,3125.53C2437.54,3125.74 2437.42,3125.85 2437.18,3125.85L2435.15,3125.85C2435.12,3125.78 2435.11,3125.7 2435.1,3125.64C2435.08,3125.57 2435.08,3125.51 2435.08,3125.45C2435.08,3125.23 2435.2,3125.12 2435.44,3125.12Z" style="fill:white;fill-rule:nonzero;"/>
                <path d="M2447.32,3124.05L2447.32,3123.61L2446.54,3123.61C2446.24,3123.61 2446.03,3123.68 2445.89,3123.81C2445.76,3123.94 2445.7,3124.11 2445.7,3124.33C2445.7,3124.55 2445.76,3124.73 2445.88,3124.86C2446,3124.98 2446.18,3125.04 2446.41,3125.04C2446.72,3125.04 2446.95,3124.95 2447.1,3124.78C2447.25,3124.6 2447.32,3124.36 2447.32,3124.05ZM2448.81,3125.75L2447.74,3125.85C2447.69,3125.78 2447.64,3125.69 2447.61,3125.59C2447.57,3125.49 2447.55,3125.39 2447.53,3125.31C2447.32,3125.54 2447.09,3125.7 2446.84,3125.81C2446.6,3125.91 2446.3,3125.96 2445.95,3125.96C2445.5,3125.96 2445.13,3125.83 2444.84,3125.58C2444.55,3125.33 2444.4,3124.94 2444.4,3124.43C2444.4,3123.91 2444.59,3123.51 2444.97,3123.23C2445.35,3122.95 2445.91,3122.81 2446.65,3122.81L2447.32,3122.81L2447.32,3122.57C2447.32,3122.22 2447.29,3121.96 2447.22,3121.78C2447.15,3121.6 2447.04,3121.47 2446.88,3121.4C2446.72,3121.33 2446.5,3121.3 2446.23,3121.3L2445.93,3121.3L2445.75,3122.03C2445.67,3122.06 2445.58,3122.08 2445.47,3122.1C2445.36,3122.12 2445.25,3122.13 2445.15,3122.13C2445.05,3122.13 2444.94,3122.09 2444.85,3122.01C2444.74,3121.94 2444.66,3121.83 2444.61,3121.71C2444.54,3121.58 2444.51,3121.46 2444.51,3121.32C2444.51,3121.22 2444.54,3121.13 2444.6,3121.06C2444.66,3120.99 2444.76,3120.92 2444.91,3120.85C2445.11,3120.76 2445.39,3120.68 2445.74,3120.61C2446.09,3120.55 2446.47,3120.51 2446.87,3120.51C2447.49,3120.51 2447.93,3120.64 2448.2,3120.9C2448.48,3121.16 2448.62,3121.6 2448.62,3122.22L2448.62,3124.49C2448.62,3124.72 2448.64,3124.87 2448.7,3124.93C2448.75,3125 2448.85,3125.03 2448.99,3125.03L2449.21,3125.03C2449.23,3125.09 2449.24,3125.14 2449.25,3125.19C2449.26,3125.24 2449.26,3125.31 2449.26,3125.38C2449.26,3125.5 2449.23,3125.59 2449.17,3125.64C2449.11,3125.7 2448.99,3125.74 2448.81,3125.75Z" style="fill:white;fill-rule:nonzero;"/>
                <path d="M2450.2,3125.12L2450.5,3125.12C2450.52,3124.79 2450.53,3124.47 2450.53,3124.18C2450.54,3123.89 2450.54,3123.59 2450.54,3123.3L2450.54,3121.99C2450.54,3121.75 2450.51,3121.58 2450.43,3121.5C2450.36,3121.42 2450.24,3121.38 2450.06,3121.38L2449.91,3121.38C2449.89,3121.3 2449.87,3121.22 2449.86,3121.15C2449.85,3121.08 2449.84,3121.01 2449.84,3120.95C2449.84,3120.73 2449.96,3120.62 2450.2,3120.62L2451.55,3120.62C2451.57,3120.7 2451.58,3120.8 2451.6,3120.92C2451.61,3121.03 2451.61,3121.14 2451.61,3121.23C2451.87,3121.01 2452.14,3120.84 2452.43,3120.71C2452.72,3120.58 2453.05,3120.51 2453.43,3120.51C2453.93,3120.51 2454.32,3120.64 2454.6,3120.9C2454.87,3121.15 2455,3121.6 2455,3122.23L2455,3124.3C2455,3124.54 2455.01,3124.72 2455.04,3124.84C2455.06,3124.95 2455.1,3125.03 2455.16,3125.07C2455.22,3125.11 2455.3,3125.12 2455.4,3125.12L2455.58,3125.12C2455.61,3125.2 2455.62,3125.27 2455.63,3125.34C2455.64,3125.41 2455.64,3125.47 2455.64,3125.53C2455.64,3125.74 2455.53,3125.85 2455.29,3125.85L2453.65,3125.85C2453.66,3125.68 2453.66,3125.46 2453.67,3125.2C2453.68,3124.95 2453.69,3124.68 2453.7,3124.41C2453.7,3124.14 2453.71,3123.89 2453.71,3123.68L2453.71,3123.04C2453.71,3122.66 2453.68,3122.34 2453.62,3122.11C2453.57,3121.88 2453.47,3121.71 2453.34,3121.61C2453.2,3121.51 2453.01,3121.46 2452.76,3121.46C2452.46,3121.46 2452.23,3121.55 2452.08,3121.73C2451.91,3121.91 2451.84,3122.22 2451.84,3122.66L2451.84,3123.3C2451.84,3123.59 2451.84,3123.89 2451.84,3124.18C2451.85,3124.47 2451.86,3124.79 2451.87,3125.12L2452.44,3125.12C2452.46,3125.2 2452.48,3125.27 2452.49,3125.34C2452.5,3125.41 2452.5,3125.47 2452.5,3125.53C2452.5,3125.74 2452.39,3125.85 2452.15,3125.85L2449.91,3125.85C2449.89,3125.78 2449.87,3125.7 2449.86,3125.64C2449.85,3125.57 2449.84,3125.51 2449.84,3125.45C2449.84,3125.23 2449.96,3125.12 2450.2,3125.12Z" style="fill:white;fill-rule:nonzero;"/>
                <path d="M2459.78,3123.82L2459.78,3121.6C2459.66,3121.51 2459.51,3121.45 2459.34,3121.4C2459.17,3121.35 2458.99,3121.33 2458.78,3121.33C2458.43,3121.33 2458.16,3121.46 2457.95,3121.72C2457.75,3121.98 2457.65,3122.44 2457.65,3123.09C2457.65,3123.61 2457.7,3124.01 2457.81,3124.29C2457.91,3124.58 2458.06,3124.77 2458.24,3124.88C2458.42,3124.99 2458.61,3125.04 2458.83,3125.04C2459.14,3125.04 2459.38,3124.94 2459.54,3124.74C2459.7,3124.54 2459.78,3124.24 2459.78,3123.82ZM2461.36,3125.85L2460.14,3125.85C2460.11,3125.78 2460.08,3125.69 2460.06,3125.59C2460.03,3125.49 2460.02,3125.39 2460.01,3125.3C2459.83,3125.5 2459.62,3125.66 2459.36,3125.78C2459.1,3125.9 2458.8,3125.96 2458.44,3125.96C2457.75,3125.96 2457.21,3125.74 2456.83,3125.29C2456.45,3124.85 2456.26,3124.22 2456.26,3123.42C2456.26,3122.72 2456.37,3122.16 2456.59,3121.73C2456.82,3121.31 2457.13,3121 2457.52,3120.8C2457.91,3120.61 2458.35,3120.51 2458.84,3120.51C2459.04,3120.51 2459.22,3120.53 2459.37,3120.56C2459.53,3120.59 2459.66,3120.62 2459.78,3120.67L2459.78,3119.78C2459.78,3119.53 2459.75,3119.37 2459.68,3119.29C2459.6,3119.21 2459.48,3119.17 2459.3,3119.17L2458.97,3119.17C2458.95,3119.09 2458.93,3119.01 2458.92,3118.94C2458.91,3118.87 2458.9,3118.8 2458.9,3118.73C2458.9,3118.51 2459.02,3118.41 2459.26,3118.41L2461.13,3118.41C2461.13,3118.58 2461.12,3118.8 2461.12,3119.06C2461.11,3119.32 2461.1,3119.59 2461.09,3119.86C2461.08,3120.14 2461.08,3120.39 2461.08,3120.62L2461.08,3124.48C2461.08,3124.75 2461.11,3124.93 2461.16,3125.01C2461.22,3125.09 2461.32,3125.12 2461.47,3125.12L2461.65,3125.12C2461.68,3125.2 2461.7,3125.27 2461.71,3125.34C2461.72,3125.41 2461.72,3125.47 2461.72,3125.53C2461.72,3125.74 2461.6,3125.85 2461.36,3125.85Z" style="fill:white;fill-rule:nonzero;"/>
                <path d="M2462.83,3124.31L2462.83,3121.99C2462.83,3121.75 2462.8,3121.58 2462.74,3121.5C2462.68,3121.42 2462.57,3121.38 2462.42,3121.38L2462.27,3121.38C2462.25,3121.3 2462.23,3121.22 2462.22,3121.15C2462.21,3121.08 2462.21,3121.01 2462.21,3120.95C2462.21,3120.73 2462.33,3120.62 2462.56,3120.62L2464.14,3120.62C2464.14,3120.8 2464.14,3121.02 2464.14,3121.27C2464.14,3121.53 2464.13,3121.79 2464.13,3122.04C2464.13,3122.3 2464.12,3122.53 2464.12,3122.71L2464.12,3123.83C2464.12,3124.29 2464.19,3124.61 2464.32,3124.78C2464.45,3124.96 2464.66,3125.04 2464.94,3125.04C2465.22,3125.04 2465.44,3124.96 2465.6,3124.79C2465.76,3124.62 2465.85,3124.32 2465.85,3123.89L2465.85,3121.99C2465.85,3121.75 2465.82,3121.58 2465.76,3121.5C2465.7,3121.42 2465.59,3121.38 2465.44,3121.38L2465.29,3121.38C2465.27,3121.3 2465.25,3121.22 2465.24,3121.15C2465.23,3121.08 2465.22,3121.01 2465.22,3120.95C2465.22,3120.84 2465.26,3120.76 2465.33,3120.7C2465.41,3120.65 2465.51,3120.62 2465.63,3120.62L2467.16,3120.62C2467.16,3120.79 2467.16,3121.01 2467.16,3121.27C2467.15,3121.53 2467.15,3121.79 2467.15,3122.05C2467.14,3122.31 2467.14,3122.53 2467.14,3122.72L2467.14,3124.5C2467.14,3124.76 2467.17,3124.93 2467.22,3125.01C2467.28,3125.09 2467.39,3125.12 2467.54,3125.12L2467.72,3125.12C2467.74,3125.2 2467.76,3125.27 2467.77,3125.34C2467.78,3125.41 2467.79,3125.47 2467.79,3125.53C2467.79,3125.74 2467.67,3125.85 2467.43,3125.85L2466.2,3125.85C2466.17,3125.78 2466.14,3125.69 2466.12,3125.59C2466.1,3125.49 2466.08,3125.39 2466.07,3125.3C2465.86,3125.53 2465.61,3125.7 2465.34,3125.81C2465.07,3125.91 2464.75,3125.96 2464.4,3125.96C2463.91,3125.96 2463.53,3125.83 2463.25,3125.57C2462.97,3125.31 2462.83,3124.89 2462.83,3124.31Z" style="fill:white;fill-rule:nonzero;"/>
                <path d="M2414.9,3134.02L2414.9,3136.07C2415.02,3136.15 2415.16,3136.22 2415.34,3136.27C2415.51,3136.32 2415.7,3136.35 2415.89,3136.35C2416.11,3136.35 2416.3,3136.29 2416.47,3136.19C2416.64,3136.09 2416.78,3135.91 2416.88,3135.65C2416.98,3135.39 2417.03,3135.03 2417.03,3134.56C2417.03,3134.05 2416.98,3133.65 2416.88,3133.36C2416.78,3133.08 2416.64,3132.87 2416.46,3132.76C2416.28,3132.64 2416.07,3132.59 2415.83,3132.59C2415.53,3132.59 2415.3,3132.7 2415.14,3132.93C2414.98,3133.15 2414.9,3133.52 2414.9,3134.02ZM2414.7,3136.87L2414.54,3137.18C2414.45,3137.18 2414.34,3137.18 2414.21,3137.16C2414.08,3137.15 2413.95,3137.14 2413.82,3137.12C2413.69,3137.1 2413.58,3137.07 2413.49,3137.03C2413.51,3136.81 2413.53,3136.57 2413.55,3136.31C2413.57,3136.05 2413.58,3135.8 2413.59,3135.55C2413.59,3135.3 2413.6,3135.07 2413.6,3134.86C2413.6,3134.65 2413.61,3134.49 2413.61,3134.36L2413.61,3130.98C2413.61,3130.73 2413.57,3130.57 2413.5,3130.49C2413.42,3130.41 2413.3,3130.37 2413.12,3130.37L2412.97,3130.37C2412.95,3130.28 2412.93,3130.21 2412.92,3130.14C2412.91,3130.07 2412.91,3130 2412.91,3129.93C2412.91,3129.71 2413.03,3129.61 2413.26,3129.61L2414.95,3129.61C2414.95,3129.76 2414.95,3129.93 2414.94,3130.14C2414.94,3130.35 2414.93,3130.58 2414.92,3130.81C2414.92,3131.04 2414.91,3131.28 2414.9,3131.51C2414.9,3131.75 2414.9,3131.97 2414.9,3132.18C2415.05,3132.04 2415.24,3131.93 2415.46,3131.84C2415.68,3131.76 2415.94,3131.71 2416.25,3131.71C2416.96,3131.71 2417.5,3131.93 2417.87,3132.38C2418.24,3132.82 2418.43,3133.43 2418.43,3134.21C2418.43,3134.89 2418.32,3135.44 2418.09,3135.88C2417.87,3136.31 2417.56,3136.63 2417.18,3136.84C2416.79,3137.05 2416.35,3137.16 2415.86,3137.16C2415.62,3137.16 2415.4,3137.13 2415.2,3137.07C2415,3137.02 2414.83,3136.95 2414.7,3136.87Z" style="fill:white;fill-rule:nonzero;"/>
                <path d="M2422.18,3135.25L2422.18,3134.81L2421.4,3134.81C2421.1,3134.81 2420.89,3134.87 2420.75,3135.01C2420.62,3135.14 2420.56,3135.31 2420.56,3135.53C2420.56,3135.75 2420.62,3135.93 2420.74,3136.06C2420.86,3136.18 2421.04,3136.24 2421.28,3136.24C2421.58,3136.24 2421.81,3136.15 2421.96,3135.98C2422.11,3135.8 2422.18,3135.56 2422.18,3135.25ZM2423.67,3136.95L2422.6,3137.05C2422.55,3136.98 2422.5,3136.89 2422.47,3136.79C2422.43,3136.69 2422.41,3136.59 2422.39,3136.51C2422.18,3136.73 2421.94,3136.9 2421.7,3137C2421.46,3137.11 2421.16,3137.16 2420.81,3137.16C2420.36,3137.16 2419.99,3137.03 2419.7,3136.78C2419.41,3136.53 2419.26,3136.14 2419.26,3135.63C2419.26,3135.11 2419.45,3134.71 2419.83,3134.43C2420.21,3134.15 2420.77,3134.01 2421.51,3134.01L2422.18,3134.01L2422.18,3133.77C2422.18,3133.42 2422.15,3133.16 2422.08,3132.98C2422.01,3132.8 2421.9,3132.67 2421.74,3132.6C2421.58,3132.53 2421.36,3132.49 2421.09,3132.49L2420.79,3132.49L2420.61,3133.22C2420.53,3133.25 2420.44,3133.28 2420.33,3133.3C2420.22,3133.32 2420.11,3133.33 2420.01,3133.33C2419.91,3133.33 2419.8,3133.29 2419.7,3133.21C2419.61,3133.14 2419.53,3133.03 2419.46,3132.91C2419.4,3132.78 2419.37,3132.66 2419.37,3132.52C2419.37,3132.42 2419.4,3132.33 2419.46,3132.26C2419.52,3132.19 2419.62,3132.12 2419.77,3132.05C2419.97,3131.96 2420.25,3131.88 2420.6,3131.81C2420.95,3131.75 2421.33,3131.71 2421.73,3131.71C2422.35,3131.71 2422.79,3131.84 2423.07,3132.1C2423.34,3132.36 2423.48,3132.8 2423.48,3133.42L2423.48,3135.68C2423.48,3135.91 2423.5,3136.07 2423.55,3136.13C2423.61,3136.2 2423.7,3136.23 2423.85,3136.23L2424.07,3136.23C2424.09,3136.28 2424.1,3136.34 2424.11,3136.39C2424.12,3136.44 2424.12,3136.51 2424.12,3136.58C2424.12,3136.7 2424.09,3136.79 2424.03,3136.84C2423.96,3136.9 2423.85,3136.94 2423.67,3136.95Z" style="fill:white;fill-rule:nonzero;"/>
                <path d="M2428.88,3135.48C2428.88,3135.97 2428.68,3136.38 2428.29,3136.69C2427.9,3137 2427.37,3137.16 2426.68,3137.16C2426.24,3137.16 2425.87,3137.11 2425.55,3137C2425.24,3136.89 2425.01,3136.76 2424.85,3136.6C2424.68,3136.44 2424.6,3136.28 2424.6,3136.12C2424.6,3135.95 2424.66,3135.81 2424.77,3135.7C2424.88,3135.58 2425.01,3135.49 2425.17,3135.42C2425.35,3135.65 2425.57,3135.85 2425.82,3136.03C2426.07,3136.22 2426.39,3136.31 2426.78,3136.31C2427.04,3136.31 2427.24,3136.26 2427.38,3136.16C2427.52,3136.06 2427.59,3135.92 2427.59,3135.75C2427.59,3135.57 2427.52,3135.42 2427.37,3135.32C2427.22,3135.21 2427,3135.12 2426.7,3135.02L2426.15,3134.85C2425.69,3134.71 2425.34,3134.52 2425.1,3134.29C2424.86,3134.06 2424.74,3133.74 2424.74,3133.35C2424.74,3133.01 2424.82,3132.72 2425,3132.47C2425.17,3132.23 2425.41,3132.04 2425.71,3131.91C2426.02,3131.78 2426.37,3131.71 2426.77,3131.71C2427.18,3131.71 2427.52,3131.76 2427.8,3131.86C2428.07,3131.96 2428.28,3132.08 2428.43,3132.24C2428.57,3132.39 2428.64,3132.55 2428.64,3132.72C2428.64,3132.88 2428.59,3133.01 2428.47,3133.1C2428.36,3133.19 2428.21,3133.26 2428.03,3133.31L2427.85,3133.35L2427.78,3133.24C2427.64,3133.03 2427.48,3132.86 2427.29,3132.74C2427.1,3132.62 2426.88,3132.56 2426.63,3132.56C2426.45,3132.56 2426.29,3132.61 2426.18,3132.71C2426.06,3132.81 2426,3132.94 2426,3133.1C2426,3133.27 2426.06,3133.4 2426.19,3133.49C2426.32,3133.59 2426.52,3133.68 2426.8,3133.76L2427.3,3133.91C2427.87,3134.08 2428.27,3134.28 2428.51,3134.53C2428.76,3134.78 2428.88,3135.1 2428.88,3135.48Z" style="fill:white;fill-rule:nonzero;"/>
                <path d="M2433.41,3134.66L2430.92,3134.66C2430.96,3135.09 2431.05,3135.42 2431.18,3135.66C2431.31,3135.89 2431.48,3136.05 2431.69,3136.14C2431.9,3136.23 2432.12,3136.27 2432.38,3136.27C2432.66,3136.27 2432.89,3136.21 2433.09,3136.1C2433.28,3135.99 2433.47,3135.83 2433.65,3135.62C2433.79,3135.66 2433.91,3135.73 2434.01,3135.82C2434.12,3135.92 2434.17,3136.04 2434.17,3136.19C2434.17,3136.35 2434.08,3136.5 2433.91,3136.65C2433.74,3136.8 2433.51,3136.92 2433.2,3137.02C2432.9,3137.11 2432.55,3137.16 2432.15,3137.16C2431.26,3137.16 2430.61,3136.93 2430.19,3136.48C2429.77,3136.03 2429.56,3135.4 2429.56,3134.6C2429.56,3133.62 2429.78,3132.89 2430.24,3132.42C2430.69,3131.95 2431.28,3131.71 2432.02,3131.71C2432.52,3131.71 2432.93,3131.8 2433.25,3131.98C2433.57,3132.16 2433.81,3132.41 2433.97,3132.73C2434.13,3133.04 2434.2,3133.4 2434.2,3133.81C2434.2,3134.06 2434.18,3134.24 2434.12,3134.37C2434.07,3134.49 2433.99,3134.57 2433.87,3134.61C2433.76,3134.64 2433.6,3134.66 2433.41,3134.66ZM2430.92,3133.86L2432.88,3133.86L2432.88,3133.78C2432.88,3133.39 2432.8,3133.08 2432.63,3132.86C2432.47,3132.64 2432.23,3132.53 2431.93,3132.53C2431.64,3132.53 2431.41,3132.63 2431.24,3132.84C2431.06,3133.06 2430.95,3133.39 2430.92,3133.86Z" style="fill:white;fill-rule:nonzero;"/>
                <path d="M2440.94,3133.48L2440.85,3133.33C2440.72,3133.11 2440.58,3132.92 2440.41,3132.79C2440.25,3132.65 2440.05,3132.59 2439.82,3132.59C2439.62,3132.59 2439.45,3132.64 2439.29,3132.74C2439.13,3132.84 2439.01,3133.01 2438.91,3133.24C2438.82,3133.48 2438.77,3133.8 2438.77,3134.21C2438.77,3134.74 2438.84,3135.16 2438.96,3135.45C2439.08,3135.74 2439.24,3135.94 2439.44,3136.06C2439.64,3136.17 2439.85,3136.23 2440.07,3136.23C2440.32,3136.23 2440.54,3136.18 2440.73,3136.06C2440.92,3135.95 2441.1,3135.78 2441.27,3135.55C2441.42,3135.59 2441.55,3135.66 2441.66,3135.76C2441.76,3135.86 2441.82,3135.99 2441.82,3136.14C2441.82,3136.29 2441.74,3136.44 2441.59,3136.6C2441.44,3136.76 2441.23,3136.89 2440.95,3137C2440.67,3137.11 2440.33,3137.16 2439.93,3137.16C2439.1,3137.16 2438.47,3136.95 2438.03,3136.52C2437.6,3136.09 2437.38,3135.43 2437.38,3134.56C2437.38,3133.92 2437.49,3133.4 2437.7,3132.98C2437.92,3132.56 2438.22,3132.24 2438.61,3132.03C2439,3131.82 2439.44,3131.71 2439.95,3131.71C2440.38,3131.71 2440.73,3131.77 2441.01,3131.89C2441.28,3132.01 2441.49,3132.16 2441.62,3132.33C2441.75,3132.51 2441.82,3132.68 2441.82,3132.85C2441.82,3133.15 2441.59,3133.34 2441.14,3133.44L2440.94,3133.48Z" style="fill:white;fill-rule:nonzero;"/>
                <path d="M2445.45,3135.25L2445.45,3134.81L2444.67,3134.81C2444.37,3134.81 2444.16,3134.87 2444.02,3135.01C2443.89,3135.14 2443.83,3135.31 2443.83,3135.53C2443.83,3135.75 2443.89,3135.93 2444.01,3136.06C2444.13,3136.18 2444.31,3136.24 2444.55,3136.24C2444.85,3136.24 2445.08,3136.15 2445.23,3135.98C2445.38,3135.8 2445.45,3135.56 2445.45,3135.25ZM2446.94,3136.95L2445.87,3137.05C2445.82,3136.98 2445.77,3136.89 2445.74,3136.79C2445.7,3136.69 2445.68,3136.59 2445.66,3136.51C2445.45,3136.73 2445.21,3136.9 2444.97,3137C2444.73,3137.11 2444.43,3137.16 2444.08,3137.16C2443.63,3137.16 2443.26,3137.03 2442.97,3136.78C2442.68,3136.53 2442.53,3136.14 2442.53,3135.63C2442.53,3135.11 2442.72,3134.71 2443.1,3134.43C2443.48,3134.15 2444.04,3134.01 2444.78,3134.01L2445.45,3134.01L2445.45,3133.77C2445.45,3133.42 2445.42,3133.16 2445.35,3132.98C2445.28,3132.8 2445.17,3132.67 2445.01,3132.6C2444.85,3132.53 2444.63,3132.49 2444.36,3132.49L2444.06,3132.49L2443.88,3133.22C2443.8,3133.25 2443.71,3133.28 2443.6,3133.3C2443.49,3133.32 2443.38,3133.33 2443.28,3133.33C2443.18,3133.33 2443.07,3133.29 2442.97,3133.21C2442.88,3133.14 2442.8,3133.03 2442.73,3132.91C2442.67,3132.78 2442.64,3132.66 2442.64,3132.52C2442.64,3132.42 2442.67,3132.33 2442.73,3132.26C2442.79,3132.19 2442.89,3132.12 2443.04,3132.05C2443.24,3131.96 2443.52,3131.88 2443.87,3131.81C2444.22,3131.75 2444.6,3131.71 2445,3131.71C2445.62,3131.71 2446.06,3131.84 2446.34,3132.1C2446.61,3132.36 2446.75,3132.8 2446.75,3133.42L2446.75,3135.68C2446.75,3135.91 2446.77,3136.07 2446.83,3136.13C2446.88,3136.2 2446.97,3136.23 2447.12,3136.23L2447.34,3136.23C2447.36,3136.28 2447.37,3136.34 2447.38,3136.39C2447.39,3136.44 2447.39,3136.51 2447.39,3136.58C2447.39,3136.7 2447.36,3136.79 2447.3,3136.84C2447.23,3136.9 2447.12,3136.94 2446.94,3136.95Z" style="fill:white;fill-rule:nonzero;"/>
                <path d="M2448.33,3136.32L2448.63,3136.32C2448.65,3135.99 2448.66,3135.67 2448.66,3135.38C2448.67,3135.08 2448.67,3134.79 2448.67,3134.49L2448.67,3133.19C2448.67,3132.94 2448.64,3132.78 2448.56,3132.7C2448.49,3132.62 2448.37,3132.58 2448.19,3132.58L2448.04,3132.58C2448.01,3132.5 2448,3132.42 2447.99,3132.35C2447.97,3132.28 2447.97,3132.21 2447.97,3132.14C2447.97,3131.93 2448.09,3131.82 2448.33,3131.82L2449.68,3131.82C2449.7,3131.9 2449.71,3132 2449.72,3132.12C2449.74,3132.23 2449.74,3132.33 2449.74,3132.43C2450,3132.21 2450.27,3132.03 2450.56,3131.91C2450.85,3131.78 2451.18,3131.71 2451.56,3131.71C2451.87,3131.71 2452.12,3131.77 2452.33,3131.88C2452.54,3131.99 2452.7,3132.16 2452.8,3132.38C2453.06,3132.16 2453.32,3131.99 2453.58,3131.88C2453.84,3131.77 2454.14,3131.71 2454.47,3131.71C2454.98,3131.71 2455.35,3131.84 2455.59,3132.1C2455.83,3132.35 2455.95,3132.8 2455.95,3133.43L2455.95,3135.5C2455.95,3135.74 2455.96,3135.91 2455.99,3136.03C2456.01,3136.15 2456.05,3136.23 2456.11,3136.27C2456.16,3136.31 2456.24,3136.32 2456.35,3136.32L2456.53,3136.32C2456.56,3136.4 2456.58,3136.47 2456.58,3136.54C2456.59,3136.61 2456.6,3136.67 2456.6,3136.73C2456.6,3136.94 2456.48,3137.05 2456.24,3137.05L2454.6,3137.05C2454.61,3136.87 2454.61,3136.66 2454.62,3136.4C2454.63,3136.15 2454.64,3135.88 2454.64,3135.61C2454.65,3135.34 2454.66,3135.09 2454.66,3134.88L2454.66,3134.24C2454.66,3133.66 2454.6,3133.25 2454.48,3133.01C2454.36,3132.78 2454.14,3132.66 2453.81,3132.66C2453.55,3132.66 2453.34,3132.75 2453.19,3132.93C2453.03,3133.11 2452.96,3133.42 2452.96,3133.86L2452.96,3134.49C2452.96,3134.79 2452.96,3135.08 2452.97,3135.38C2452.97,3135.67 2452.98,3135.99 2452.99,3136.32L2453.44,3136.32C2453.46,3136.4 2453.48,3136.47 2453.49,3136.54C2453.5,3136.61 2453.51,3136.67 2453.51,3136.73C2453.51,3136.94 2453.39,3137.05 2453.15,3137.05L2451.2,3137.05C2451.18,3136.97 2451.16,3136.9 2451.15,3136.84C2451.14,3136.77 2451.13,3136.71 2451.13,3136.65C2451.13,3136.43 2451.25,3136.32 2451.49,3136.32L2451.62,3136.32C2451.64,3136.01 2451.65,3135.71 2451.66,3135.42C2451.66,3135.14 2451.66,3134.87 2451.66,3134.6L2451.66,3134.25C2451.66,3133.67 2451.61,3133.26 2451.49,3133.02C2451.37,3132.78 2451.16,3132.66 2450.85,3132.66C2450.58,3132.66 2450.36,3132.75 2450.2,3132.93C2450.04,3133.11 2449.97,3133.42 2449.97,3133.86L2449.97,3134.49C2449.97,3134.79 2449.97,3135.08 2449.97,3135.38C2449.98,3135.67 2449.99,3135.99 2450,3136.32L2450.37,3136.32C2450.39,3136.4 2450.41,3136.47 2450.41,3136.54C2450.43,3136.61 2450.43,3136.67 2450.43,3136.73C2450.43,3136.94 2450.31,3137.05 2450.08,3137.05L2448.04,3137.05C2448.01,3136.97 2448,3136.9 2447.99,3136.84C2447.97,3136.77 2447.97,3136.71 2447.97,3136.65C2447.97,3136.43 2448.09,3136.32 2448.33,3136.32Z" style="fill:white;fill-rule:nonzero;"/>
                <path d="M2459.07,3134.02L2459.07,3136.07C2459.19,3136.15 2459.34,3136.22 2459.51,3136.27C2459.68,3136.32 2459.87,3136.35 2460.06,3136.35C2460.28,3136.35 2460.47,3136.29 2460.64,3136.19C2460.81,3136.09 2460.95,3135.91 2461.05,3135.65C2461.15,3135.39 2461.2,3135.03 2461.2,3134.56C2461.2,3134.05 2461.15,3133.65 2461.05,3133.36C2460.95,3133.08 2460.81,3132.87 2460.63,3132.76C2460.45,3132.64 2460.24,3132.59 2460.01,3132.59C2459.7,3132.59 2459.47,3132.7 2459.31,3132.93C2459.15,3133.15 2459.07,3133.52 2459.07,3134.02ZM2457.44,3138.62L2457.74,3138.62C2457.75,3138.34 2457.76,3138.07 2457.77,3137.8C2457.77,3137.54 2457.78,3137.29 2457.78,3137.06L2457.78,3133.19C2457.78,3132.94 2457.74,3132.78 2457.67,3132.7C2457.6,3132.62 2457.47,3132.58 2457.29,3132.58L2457.15,3132.58C2457.12,3132.5 2457.1,3132.42 2457.09,3132.35C2457.08,3132.28 2457.08,3132.21 2457.08,3132.14C2457.08,3131.93 2457.2,3131.82 2457.44,3131.82L2458.77,3131.82C2458.8,3131.9 2458.81,3132 2458.82,3132.1C2458.83,3132.19 2458.84,3132.29 2458.85,3132.37C2459.04,3132.16 2459.27,3132 2459.53,3131.88C2459.79,3131.77 2460.08,3131.71 2460.42,3131.71C2460.89,3131.71 2461.29,3131.81 2461.61,3132.01C2461.94,3132.21 2462.18,3132.49 2462.35,3132.86C2462.51,3133.24 2462.6,3133.69 2462.6,3134.21C2462.6,3134.89 2462.49,3135.44 2462.26,3135.88C2462.04,3136.31 2461.73,3136.63 2461.35,3136.84C2460.96,3137.05 2460.52,3137.16 2460.03,3137.16C2459.81,3137.16 2459.62,3137.14 2459.47,3137.1C2459.33,3137.06 2459.19,3137.02 2459.07,3136.97L2459.07,3137.27C2459.07,3137.41 2459.07,3137.6 2459.08,3137.85C2459.08,3138.11 2459.09,3138.37 2459.11,3138.62L2459.86,3138.62C2459.88,3138.7 2459.89,3138.77 2459.91,3138.84C2459.92,3138.91 2459.92,3138.97 2459.92,3139.03C2459.92,3139.24 2459.8,3139.35 2459.57,3139.35L2457.15,3139.35C2457.12,3139.27 2457.1,3139.2 2457.09,3139.14C2457.08,3139.07 2457.08,3139.01 2457.08,3138.95C2457.08,3138.73 2457.2,3138.62 2457.44,3138.62Z" style="fill:white;fill-rule:nonzero;"/>
            </g>
        </g>
    </g>
</svg>
