<?xml version="1.0" encoding="UTF-8"?>
<svg id="Vrstva_1" xmlns="http://www.w3.org/2000/svg" xmlns:serif="http://www.serif.com/" version="1.1" viewBox="0 0 356 218.89">
  <!-- Generator: Adobe Illustrator 30.3.0, SVG Export Plug-In . SVG Version: 2.1.3 Build 182)  -->
  <defs>
    <style>
      .st0, .st1, .st2 {
        fill-rule: evenodd;
      }

      .st0, .st3 {
        fill: #fff;
      }

      .st1 {
        fill: #0096ff;
      }

      .st2 {
        fill: #ff2600;
      }
    </style>
  </defs>
  <path class="st0" d="M105.5,164.74l-88.44-.7,75.86-60.6-75.86-.6L123.66,17.69l.06,85.99h-.04l.04,61.21h-.01v36.2h-18.2v-36.35Z"/>
  <path class="st2" d="M105.5,54.97l-37.88,30.25,37.9.3-.02-30.55"/>
  <path class="st1" d="M105.5,116.47l-37.88,30.25,37.9.3-.02-30.55"/>
  <g>
    <path class="st3" d="M169.04,101.12h1.72c.1-1.46.15-3.03.2-4.75,0-1.72.05-3.66.05-5.85v-20.74c0-1.46-.25-2.4-.66-2.87-.4-.47-1.12-.73-2.13-.73h-.81c-.15-.47-.25-.89-.3-1.31-.1-.42-.1-.84-.1-1.25,0-1.25.66-1.88,2.03-1.88h9.58c0,1.57-.05,3.5-.15,5.85-.1,2.3-.1,4.7-.1,7.1v2.61c1.12-.94,2.43-1.72,3.95-2.3,1.52-.63,3.19-.89,5.07-.89,2.89,0,5.12.73,6.64,2.25,1.57,1.46,2.33,4.07,2.33,7.78v12.12c0,1.41.05,2.45.2,3.13.1.73.35,1.15.71,1.41.3.21.76.31,1.32.31h1.06c.1.42.2.84.25,1.25.05.42.1.78.1,1.1,0,1.25-.66,1.88-2.03,1.88h-9.33c.05-1.04.05-2.3.1-3.76.05-1.52.1-3.08.15-4.65.05-1.62.1-3.03.1-4.28v-3.76c0-2.25-.15-4.07-.51-5.43-.3-1.36-.81-2.35-1.62-2.93-.76-.63-1.87-.89-3.29-.89-1.67,0-2.94.52-3.85,1.52-.91,1.04-1.37,2.82-1.37,5.38v9.04c.05,1.72.1,3.55.15,5.54h3.24c.1.42.25.84.3,1.25.05.42.1.78.1,1.1,0,1.25-.71,1.88-2.03,1.88h-12.72c-.15-.42-.25-.84-.3-1.25-.1-.36-.1-.73-.1-1.1,0-1.25.66-1.88,2.03-1.88Z"/>
    <path class="st3" d="M211.42,89.1c0,4.49.56,7.63,1.67,9.46,1.12,1.78,2.64,2.66,4.66,2.66,1.12,0,2.08-.31,2.94-.94.91-.68,1.62-1.72,2.13-3.24.51-1.52.81-3.5.81-6.06,0-4.49-.56-7.68-1.67-9.45-1.06-1.78-2.63-2.66-4.71-2.66-1.06,0-2.03.31-2.89.94-.91.68-1.62,1.72-2.13,3.24-.56,1.46-.81,3.5-.81,6.06ZM203.46,91.03c0-3.71.61-6.79,1.83-9.3,1.17-2.51,2.89-4.44,5.07-5.69,2.18-1.31,4.71-1.93,7.65-1.93,4.56,0,7.96,1.31,10.19,3.97,2.23,2.66,3.35,6.32,3.35,10.97,0,3.71-.61,6.79-1.77,9.3-1.22,2.51-2.89,4.44-5.02,5.69-2.18,1.31-4.76,1.93-7.7,1.93-4.56,0-7.96-1.31-10.24-3.97-2.23-2.66-3.35-6.32-3.35-10.97Z"/>
    <path class="st3" d="M237.52,101.12h1.72c.1-1.99.15-3.81.2-5.54,0-1.72.05-3.45.05-5.17v-7.63c0-1.46-.2-2.45-.61-2.93s-1.17-.68-2.18-.68h-.81c-.15-.47-.25-.94-.3-1.36-.1-.42-.1-.84-.1-1.2,0-1.25.66-1.88,2.03-1.88h7.7c.1.47.2,1.04.25,1.72.05.63.1,1.25.1,1.83,1.42-1.31,2.99-2.3,4.61-3.08,1.67-.73,3.55-1.1,5.68-1.1,2.89,0,5.12.73,6.64,2.25,1.57,1.46,2.33,4.07,2.33,7.78v12.12c0,1.41.05,2.45.2,3.13.15.73.36,1.15.66,1.41.36.21.81.31,1.37.31h1.06c.1.42.2.84.3,1.25,0,.42.05.78.05,1.1,0,1.25-.66,1.88-2.03,1.88h-9.33c.05-1.04.1-2.3.15-3.76.05-1.52.1-3.08.1-4.65.05-1.62.1-3.03.1-4.28v-3.76c0-2.25-.15-4.07-.51-5.43-.3-1.36-.86-2.35-1.62-2.93-.76-.63-1.87-.89-3.29-.89-1.67,0-2.99.52-3.9,1.57-.86,1.04-1.32,2.87-1.32,5.49v3.71c0,1.72,0,3.45.05,5.17,0,1.72.05,3.55.1,5.54h3.24c.15.42.25.84.3,1.25.05.42.1.78.1,1.1,0,1.25-.71,1.88-2.03,1.88h-12.72c-.15-.42-.25-.84-.3-1.25-.1-.36-.1-.73-.1-1.1,0-1.25.66-1.88,2.03-1.88Z"/>
    <path class="st3" d="M271.23,105.35v-1.46c0-1.15.2-2.19.56-3.19.36-.94.96-1.99,1.93-3.13l10.59-13.48c.81-1.05,1.42-1.83,1.77-2.4.36-.58.56-1.2.61-1.88h-8.16l-.76,2.3c-.51.26-1.12.42-1.87.58s-1.47.26-2.13.26c-.46,0-.86-.37-1.32-.99-.46-.68-.86-1.46-1.17-2.35-.3-.89-.46-1.72-.46-2.51,0-.84.15-1.46.56-1.83.36-.36,1.07-.52,2.13-.52h21.64v1.83c0,1.67-.2,3.03-.56,4.07-.41,1.05-1.06,2.19-2.03,3.45l-10.09,12.69c-.56.63-1.01,1.2-1.37,1.78-.36.52-.61,1.1-.71,1.72h4.97c1.88,0,3.65-.1,5.22-.42,1.62-.31,2.94-.68,3.95-1.05.3.58.56,1.2.76,1.88.2.68.3,1.41.3,2.19,0,.84-.2,1.46-.66,1.88s-1.32.57-2.64.57h-21.09Z"/>
    <path class="st3" d="M315.89,94.79v-2.56h-4.41c-1.72,0-2.94.37-3.7,1.15-.76.78-1.12,1.78-1.12,3.03,0,1.36.35,2.35,1.06,3.08.66.78,1.67,1.1,3.04,1.1,1.72,0,3.04-.47,3.85-1.52.86-1.04,1.27-2.45,1.27-4.28ZM324.4,104.77l-6.13.57c-.3-.42-.51-.89-.71-1.51-.2-.63-.36-1.15-.46-1.67-1.22,1.36-2.53,2.3-3.9,2.93-1.42.63-3.09.89-5.07.89-2.58,0-4.71-.73-6.34-2.19-1.67-1.52-2.48-3.76-2.48-6.74s1.07-5.38,3.24-7.05c2.13-1.67,5.32-2.45,9.53-2.45h3.8v-1.41c0-2.04-.15-3.55-.56-4.6-.41-1.1-1.01-1.83-1.93-2.25-.91-.42-2.18-.63-3.7-.63h-1.72l-1.01,4.28c-.4.16-.96.31-1.57.47-.61.1-1.22.16-1.83.16s-1.17-.21-1.72-.68c-.61-.47-1.06-1.05-1.37-1.78-.36-.73-.56-1.52-.56-2.3,0-.63.2-1.1.51-1.52.35-.42.91-.84,1.77-1.25,1.17-.52,2.74-.99,4.71-1.36,2.03-.42,4.16-.58,6.44-.58,3.5,0,6.03.73,7.6,2.25,1.52,1.51,2.33,4.13,2.33,7.73v13.27c0,1.36.15,2.25.4,2.61.3.42.86.63,1.72.63h1.22c.1.26.15.58.25.89.05.31.05.68.05,1.1,0,.73-.15,1.25-.51,1.57-.41.37-1.06.58-2.03.63Z"/>
    <path class="st3" d="M170.71,152.62v-16.09h-4.36c-.15-.42-.25-.84-.35-1.25-.1-.42-.1-.89-.1-1.46,0-1.57.71-2.35,2.13-2.35h2.69l1.98-8.1,2.18.16c1.22.05,2.08.37,2.53.89.46.57.66,1.57.66,3.03v4.02h9.93c.15.47.3.89.36,1.25.1.42.1.94.1,1.52,0,1.52-.71,2.3-2.13,2.3h-8.26v14.52c0,2.19.36,3.76,1.01,4.7.66.99,1.57,1.46,2.84,1.46.81,0,1.52-.21,2.18-.58.66-.42,1.27-.94,1.72-1.62.76.16,1.42.52,1.98,1.1.56.57.81,1.25.81,2.04,0,1.15-.81,2.19-2.38,3.19-1.57.94-3.65,1.41-6.23,1.41-3.24,0-5.58-.89-7.05-2.61-1.47-1.78-2.23-4.28-2.23-7.52Z"/>
    <path class="st3" d="M193.27,157.9h1.67c.1-1.98.15-3.87.2-5.59,0-1.67.05-3.39.05-5.17v-7.63c0-1.46-.2-2.4-.61-2.87-.41-.47-1.12-.68-2.18-.68h-.81c-.15-.47-.25-.94-.3-1.36s-.1-.84-.1-1.2c0-1.25.71-1.93,2.08-1.93h7.65c.1.52.2,1.15.25,1.93.05.84.1,1.67.1,2.56,1.52-1.62,3.19-2.87,4.97-3.76,1.82-.89,3.6-1.36,5.47-1.36,1.17,0,2.03.26,2.53.68.51.47.76,1.31.76,2.45,0,1.05-.15,2.04-.46,2.87-.35.89-.71,1.46-1.06,1.78-.56.52-1.27.84-2.13.99s-1.83.26-2.84.26l-1.06-3.19c-1.67.73-2.89,1.72-3.7,2.98-.81,1.2-1.22,2.93-1.22,5.22v2.25c0,1.78,0,3.5.05,5.17.05,1.72.05,3.61.15,5.59h4.26c.1.42.2.84.25,1.25.1.37.1.73.1,1.1,0,1.25-.66,1.88-2.03,1.88h-13.74c-.15-.47-.25-.84-.3-1.25s-.1-.73-.1-1.1c0-1.25.71-1.88,2.08-1.88Z"/>
    <path class="st3" d="M235.24,151.52v-2.56h-4.46c-1.67,0-2.94.42-3.65,1.15-.76.78-1.17,1.83-1.17,3.08s.36,2.35,1.06,3.08c.66.73,1.67,1.1,3.04,1.1,1.72,0,3.04-.52,3.9-1.52.81-1.04,1.27-2.45,1.27-4.34ZM243.71,161.55l-6.08.58c-.3-.42-.56-.94-.76-1.52-.2-.63-.36-1.15-.41-1.67-1.27,1.36-2.59,2.3-3.95,2.93-1.37.58-3.09.89-5.07.89-2.53,0-4.66-.73-6.34-2.19-1.62-1.52-2.48-3.76-2.48-6.74s1.06-5.38,3.24-7.05c2.13-1.67,5.32-2.51,9.53-2.51h3.85v-1.36c0-2.04-.2-3.55-.61-4.6-.35-1.1-1.01-1.83-1.93-2.25s-2.13-.63-3.7-.63h-1.67l-1.06,4.28c-.41.16-.96.31-1.57.42-.61.1-1.22.21-1.82.21s-1.17-.26-1.77-.73c-.56-.42-1.01-1.04-1.37-1.78-.3-.73-.51-1.46-.51-2.19,0-.63.2-1.15.51-1.57.36-.42.96-.84,1.77-1.25,1.17-.57,2.74-1.04,4.76-1.41,1.98-.36,4.16-.57,6.39-.57,3.5,0,6.03.78,7.6,2.3s2.33,4.13,2.33,7.73v13.27c0,1.36.15,2.25.46,2.66.3.37.86.58,1.67.58h1.27c.1.31.15.57.2.89.1.31.1.68.1,1.04,0,.78-.15,1.31-.56,1.62-.36.37-1.01.57-2.03.63ZM228.6,126.66l6.74-10.13,1.17.63c1.06.47,1.83.99,2.33,1.57.51.52.76,1.15.76,1.88,0,.68-.2,1.36-.66,1.93-.46.58-1.12,1.2-2.08,1.93l-5.73,4.6-2.53-2.4Z"/>
    <path class="st3" d="M258.31,162.13l-6.69-22.51c-.41-1.46-.81-2.45-1.27-2.93-.46-.52-1.22-.73-2.28-.73h-.81c-.15-.47-.25-.94-.3-1.36s-.1-.84-.1-1.2c0-.63.15-1.1.51-1.41.3-.37.81-.52,1.52-.52h8.77l.76,4.18c.2,1.1.51,2.56.91,4.23.41,1.72.91,3.6,1.42,5.54.56,1.98,1.06,3.92,1.67,5.85.56,1.88,1.12,3.55,1.62,5.07.56-1.78,1.12-3.6,1.67-5.48.56-1.88,1.06-3.71,1.52-5.49.51-1.83.96-3.5,1.32-5.12.4-1.62.76-3.08,1.01-4.28h-2.79c-.15-.42-.25-.84-.36-1.2-.05-.37-.1-.78-.1-1.25,0-1.36.71-2.04,2.08-2.04h11.25c.15.42.25.84.36,1.2.05.37.1.78.1,1.25,0,.63-.15,1.15-.46,1.51-.36.31-.86.52-1.62.52h-1.67c-1.17,3.55-2.33,7.16-3.5,10.76-1.12,3.55-2.28,7.16-3.4,10.76-.25.89-.56,1.67-.91,2.4-.36.68-.86,1.25-1.62,1.67-.71.37-1.77.58-3.14.58h-5.47Z"/>
    <path class="st3" d="M299.57,151.58v-2.56h-4.41c-1.72,0-2.94.37-3.7,1.15-.76.73-1.12,1.78-1.12,3.03,0,1.36.35,2.35,1.01,3.08.71.73,1.72,1.1,3.09,1.1,1.72,0,3.04-.52,3.85-1.52.86-1.04,1.27-2.45,1.27-4.28ZM308.08,161.55l-6.13.58c-.3-.42-.56-.94-.76-1.52-.2-.63-.3-1.15-.41-1.67-1.22,1.36-2.53,2.3-3.95,2.93-1.37.58-3.04.89-5.02.89-2.59,0-4.71-.73-6.34-2.19-1.67-1.52-2.48-3.76-2.48-6.74s1.06-5.38,3.19-7.05c2.18-1.67,5.37-2.51,9.58-2.51h3.8v-1.36c0-2.04-.15-3.55-.56-4.65-.41-1.04-1.01-1.78-1.93-2.19s-2.18-.63-3.7-.63h-1.72l-1.01,4.28c-.46.16-.96.31-1.57.42-.66.16-1.27.21-1.83.21-.61,0-1.17-.21-1.77-.68-.56-.47-1.01-1.1-1.37-1.83-.3-.73-.51-1.46-.51-2.25,0-.63.2-1.15.51-1.57.36-.42.91-.78,1.77-1.2,1.17-.52,2.74-.99,4.71-1.41,2.03-.36,4.16-.57,6.44-.57,3.5,0,6.03.78,7.55,2.3,1.57,1.52,2.38,4.07,2.38,7.73v13.27c0,1.36.15,2.19.41,2.61.3.42.86.63,1.72.63h1.22c.1.26.15.57.25.89.05.31.05.68.05,1.1,0,.68-.15,1.2-.56,1.57-.36.31-1.01.52-1.98.63Z"/>
  </g>
</svg>