<?xml version="1.0" encoding="UTF-8" standalone="no"?>
<!DOCTYPE svg PUBLIC "-//W3C//DTD SVG 1.1//EN" "http://www.w3.org/Graphics/SVG/1.1/DTD/svg11.dtd">
<svg width="100%" height="100%" viewBox="0 0 1080 1081" version="1.1" xmlns="http://www.w3.org/2000/svg" xmlns:xlink="http://www.w3.org/1999/xlink" xml:space="preserve" xmlns:serif="http://www.serif.com/" style="fill-rule:evenodd;clip-rule:evenodd;stroke-linejoin:round;stroke-miterlimit:2;">
    <g transform="matrix(1,0,0,1,-1143,-3488)">
        <g id="honza_trava_logo_14_negativni_V1" transform="matrix(1.00089,0,0,1.00089,-11154.1,2728.15)">
            <rect x="12286.1" y="760.158" width="1079.04" height="1079.04" style="fill:none;"/>
            <g transform="matrix(5.97741,0,0,5.97741,-1601.63,-17338.8)">
                <path d="M2417.21,3113.08C2417.21,3113.58 2417.02,3113.98 2416.63,3114.29C2416.24,3114.61 2415.7,3114.76 2415.01,3114.76C2414.57,3114.76 2414.2,3114.71 2413.89,3114.6C2413.58,3114.49 2413.34,3114.36 2413.18,3114.2C2413.01,3114.04 2412.93,3113.88 2412.93,3113.72C2412.93,3113.56 2412.99,3113.42 2413.1,3113.3C2413.21,3113.18 2413.35,3113.09 2413.5,3113.03C2413.68,3113.25 2413.9,3113.45 2414.15,3113.64C2414.4,3113.82 2414.72,3113.91 2415.11,3113.91C2415.37,3113.91 2415.58,3113.86 2415.72,3113.76C2415.86,3113.66 2415.92,3113.53 2415.92,3113.35C2415.92,3113.17 2415.85,3113.03 2415.7,3112.92C2415.55,3112.82 2415.33,3112.72 2415.03,3112.62L2414.49,3112.45C2414.03,3112.31 2413.68,3112.13 2413.43,3111.89C2413.19,3111.66 2413.07,3111.35 2413.07,3110.95C2413.07,3110.61 2413.16,3110.32 2413.33,3110.07C2413.5,3109.83 2413.74,3109.64 2414.04,3109.51C2414.35,3109.38 2414.7,3109.32 2415.1,3109.32C2415.51,3109.32 2415.85,3109.37 2416.13,3109.46C2416.41,3109.56 2416.62,3109.69 2416.76,3109.84C2416.9,3109.99 2416.97,3110.15 2416.97,3110.32C2416.97,3110.48 2416.92,3110.61 2416.8,3110.7C2416.69,3110.8 2416.54,3110.86 2416.36,3110.91L2416.18,3110.95L2416.11,3110.84C2415.97,3110.63 2415.81,3110.46 2415.62,3110.34C2415.43,3110.22 2415.22,3110.17 2414.97,3110.17C2414.78,3110.17 2414.63,3110.22 2414.51,3110.31C2414.39,3110.41 2414.33,3110.54 2414.33,3110.7C2414.33,3110.87 2414.39,3111 2414.52,3111.1C2414.65,3111.2 2414.86,3111.28 2415.14,3111.36L2415.64,3111.51C2416.2,3111.68 2416.6,3111.89 2416.85,3112.14C2417.09,3112.39 2417.21,3112.7 2417.21,3113.08Z" style="fill:white;fill-rule:nonzero;"/>
                <path d="M2418.39,3113.11L2418.39,3110.8C2418.39,3110.55 2418.36,3110.38 2418.3,3110.3C2418.24,3110.22 2418.13,3110.18 2417.98,3110.18L2417.83,3110.18C2417.81,3110.1 2417.79,3110.03 2417.78,3109.95C2417.77,3109.88 2417.77,3109.81 2417.77,3109.75C2417.77,3109.53 2417.89,3109.42 2418.12,3109.42L2419.7,3109.42C2419.7,3109.6 2419.7,3109.82 2419.7,3110.07C2419.7,3110.33 2419.69,3110.59 2419.69,3110.85C2419.68,3111.1 2419.68,3111.33 2419.68,3111.51L2419.68,3112.64C2419.68,3113.1 2419.75,3113.41 2419.88,3113.58C2420.01,3113.76 2420.22,3113.84 2420.49,3113.84C2420.78,3113.84 2421,3113.76 2421.16,3113.59C2421.32,3113.43 2421.41,3113.12 2421.41,3112.69L2421.41,3110.8C2421.41,3110.55 2421.38,3110.38 2421.32,3110.3C2421.26,3110.22 2421.15,3110.18 2421,3110.18L2420.85,3110.18C2420.83,3110.1 2420.81,3110.03 2420.8,3109.95C2420.79,3109.88 2420.78,3109.81 2420.78,3109.75C2420.78,3109.64 2420.82,3109.56 2420.89,3109.51C2420.96,3109.45 2421.06,3109.42 2421.19,3109.42L2422.72,3109.42C2422.72,3109.59 2422.72,3109.81 2422.72,3110.07C2422.71,3110.33 2422.71,3110.59 2422.7,3110.85C2422.7,3111.11 2422.7,3111.33 2422.7,3111.52L2422.7,3113.3C2422.7,3113.56 2422.73,3113.73 2422.78,3113.81C2422.84,3113.89 2422.94,3113.93 2423.1,3113.93L2423.28,3113.93C2423.3,3114 2423.32,3114.07 2423.33,3114.14C2423.34,3114.21 2423.35,3114.27 2423.35,3114.33C2423.35,3114.55 2423.23,3114.65 2422.99,3114.65L2421.76,3114.65C2421.73,3114.58 2421.7,3114.49 2421.68,3114.39C2421.66,3114.29 2421.64,3114.19 2421.63,3114.1C2421.41,3114.33 2421.17,3114.5 2420.9,3114.61C2420.62,3114.71 2420.31,3114.76 2419.96,3114.76C2419.47,3114.76 2419.09,3114.63 2418.81,3114.37C2418.53,3114.11 2418.39,3113.69 2418.39,3113.11Z" style="fill:white;fill-rule:nonzero;"/>
                <path d="M2424.34,3113.93L2424.64,3113.93C2424.65,3113.59 2424.66,3113.27 2424.67,3112.98C2424.67,3112.69 2424.68,3112.39 2424.68,3112.1L2424.68,3110.8C2424.68,3110.55 2424.64,3110.38 2424.57,3110.3C2424.5,3110.22 2424.37,3110.18 2424.19,3110.18L2424.05,3110.18C2424.02,3110.1 2424,3110.03 2423.99,3109.95C2423.98,3109.88 2423.97,3109.81 2423.97,3109.75C2423.97,3109.53 2424.1,3109.42 2424.34,3109.42L2425.69,3109.42C2425.7,3109.51 2425.72,3109.61 2425.73,3109.72C2425.74,3109.83 2425.75,3109.94 2425.75,3110.03C2426,3109.81 2426.28,3109.64 2426.57,3109.51C2426.86,3109.38 2427.19,3109.32 2427.56,3109.32C2427.87,3109.32 2428.13,3109.37 2428.34,3109.48C2428.55,3109.59 2428.7,3109.76 2428.81,3109.98C2429.06,3109.76 2429.32,3109.59 2429.58,3109.48C2429.85,3109.37 2430.14,3109.32 2430.48,3109.32C2430.98,3109.32 2431.36,3109.44 2431.6,3109.7C2431.84,3109.95 2431.95,3110.4 2431.95,3111.03L2431.95,3113.1C2431.95,3113.34 2431.97,3113.52 2431.99,3113.64C2432.01,3113.76 2432.05,3113.83 2432.11,3113.87C2432.17,3113.91 2432.25,3113.93 2432.35,3113.93L2432.53,3113.93C2432.56,3114 2432.58,3114.07 2432.59,3114.14C2432.6,3114.21 2432.6,3114.27 2432.6,3114.33C2432.6,3114.55 2432.48,3114.65 2432.24,3114.65L2430.6,3114.65C2430.61,3114.48 2430.62,3114.26 2430.63,3114C2430.63,3113.75 2430.64,3113.48 2430.65,3113.21C2430.66,3112.94 2430.66,3112.7 2430.66,3112.48L2430.66,3111.85C2430.66,3111.26 2430.6,3110.85 2430.49,3110.61C2430.37,3110.38 2430.14,3110.26 2429.81,3110.26C2429.55,3110.26 2429.35,3110.35 2429.19,3110.53C2429.04,3110.71 2428.96,3111.02 2428.96,3111.46L2428.96,3112.1C2428.96,3112.39 2428.97,3112.69 2428.97,3112.98C2428.98,3113.27 2428.99,3113.59 2429,3113.93L2429.44,3113.93C2429.47,3114 2429.49,3114.07 2429.5,3114.14C2429.51,3114.21 2429.51,3114.27 2429.51,3114.33C2429.51,3114.55 2429.39,3114.65 2429.15,3114.65L2427.21,3114.65C2427.18,3114.58 2427.17,3114.51 2427.16,3114.44C2427.14,3114.37 2427.14,3114.31 2427.14,3114.25C2427.14,3114.03 2427.26,3113.93 2427.5,3113.93L2427.63,3113.93C2427.64,3113.61 2427.66,3113.31 2427.66,3113.03C2427.67,3112.74 2427.67,3112.47 2427.67,3112.2L2427.67,3111.86C2427.67,3111.27 2427.61,3110.86 2427.49,3110.62C2427.38,3110.38 2427.16,3110.26 2426.86,3110.26C2426.58,3110.26 2426.36,3110.35 2426.21,3110.53C2426.05,3110.71 2425.97,3111.02 2425.97,3111.46L2425.97,3112.1C2425.97,3112.39 2425.97,3112.69 2425.98,3112.98C2425.99,3113.27 2425.99,3113.59 2426,3113.93L2426.37,3113.93C2426.39,3114 2426.41,3114.07 2426.42,3114.14C2426.43,3114.21 2426.44,3114.27 2426.44,3114.33C2426.44,3114.55 2426.32,3114.65 2426.08,3114.65L2424.05,3114.65C2424.02,3114.58 2424,3114.51 2423.99,3114.44C2423.98,3114.37 2423.97,3114.31 2423.97,3114.25C2423.97,3114.03 2424.1,3113.93 2424.34,3113.93Z" style="fill:white;fill-rule:nonzero;"/>
                <path d="M2433.52,3113.93L2433.82,3113.93C2433.83,3113.59 2433.84,3113.27 2433.85,3112.98C2433.86,3112.69 2433.86,3112.39 2433.86,3112.1L2433.86,3110.8C2433.86,3110.55 2433.82,3110.38 2433.75,3110.3C2433.68,3110.22 2433.55,3110.18 2433.38,3110.18L2433.23,3110.18C2433.2,3110.1 2433.18,3110.03 2433.17,3109.95C2433.16,3109.88 2433.16,3109.81 2433.16,3109.75C2433.16,3109.53 2433.28,3109.42 2433.52,3109.42L2434.87,3109.42C2434.89,3109.51 2434.9,3109.61 2434.91,3109.72C2434.92,3109.83 2434.93,3109.94 2434.93,3110.03C2435.18,3109.81 2435.46,3109.64 2435.75,3109.51C2436.04,3109.38 2436.37,3109.32 2436.74,3109.32C2437.05,3109.32 2437.31,3109.37 2437.52,3109.48C2437.73,3109.59 2437.88,3109.76 2437.99,3109.98C2438.25,3109.76 2438.5,3109.59 2438.77,3109.48C2439.03,3109.37 2439.33,3109.32 2439.66,3109.32C2440.16,3109.32 2440.54,3109.44 2440.78,3109.7C2441.02,3109.95 2441.14,3110.4 2441.14,3111.03L2441.14,3113.1C2441.14,3113.34 2441.15,3113.52 2441.17,3113.64C2441.2,3113.76 2441.24,3113.83 2441.29,3113.87C2441.35,3113.91 2441.43,3113.93 2441.53,3113.93L2441.71,3113.93C2441.74,3114 2441.76,3114.07 2441.77,3114.14C2441.78,3114.21 2441.78,3114.27 2441.78,3114.33C2441.78,3114.55 2441.66,3114.65 2441.42,3114.65L2439.79,3114.65C2439.79,3114.48 2439.8,3114.26 2439.81,3114C2439.82,3113.75 2439.82,3113.48 2439.83,3113.21C2439.84,3112.94 2439.84,3112.7 2439.84,3112.48L2439.84,3111.85C2439.84,3111.26 2439.78,3110.85 2439.67,3110.61C2439.55,3110.38 2439.33,3110.26 2439,3110.26C2438.74,3110.26 2438.53,3110.35 2438.38,3110.53C2438.22,3110.71 2438.14,3111.02 2438.14,3111.46L2438.14,3112.1C2438.14,3112.39 2438.15,3112.69 2438.15,3112.98C2438.16,3113.27 2438.17,3113.59 2438.18,3113.93L2438.63,3113.93C2438.65,3114 2438.67,3114.07 2438.68,3114.14C2438.69,3114.21 2438.7,3114.27 2438.7,3114.33C2438.7,3114.55 2438.58,3114.65 2438.34,3114.65L2436.39,3114.65C2436.37,3114.58 2436.35,3114.51 2436.34,3114.44C2436.33,3114.37 2436.32,3114.31 2436.32,3114.25C2436.32,3114.03 2436.44,3113.93 2436.68,3113.93L2436.81,3113.93C2436.83,3113.61 2436.84,3113.31 2436.84,3113.03C2436.85,3112.74 2436.85,3112.47 2436.85,3112.2L2436.85,3111.86C2436.85,3111.27 2436.79,3110.86 2436.68,3110.62C2436.56,3110.38 2436.35,3110.26 2436.04,3110.26C2435.76,3110.26 2435.55,3110.35 2435.39,3110.53C2435.23,3110.71 2435.15,3111.02 2435.15,3111.46L2435.15,3112.1C2435.15,3112.39 2435.16,3112.69 2435.16,3112.98C2435.17,3113.27 2435.18,3113.59 2435.19,3113.93L2435.55,3113.93C2435.58,3114 2435.59,3114.07 2435.6,3114.14C2435.61,3114.21 2435.62,3114.27 2435.62,3114.33C2435.62,3114.55 2435.5,3114.65 2435.26,3114.65L2433.23,3114.65C2433.2,3114.58 2433.18,3114.51 2433.17,3114.44C2433.16,3114.37 2433.16,3114.31 2433.16,3114.25C2433.16,3114.03 2433.28,3113.93 2433.52,3113.93Z" style="fill:white;fill-rule:nonzero;"/>
                <path d="M2442.7,3113.93L2443,3113.93C2443.01,3113.59 2443.03,3113.27 2443.03,3112.98C2443.04,3112.69 2443.04,3112.39 2443.04,3112.1L2443.04,3110.8C2443.04,3110.55 2443,3110.38 2442.93,3110.3C2442.86,3110.22 2442.74,3110.18 2442.56,3110.18L2442.41,3110.18C2442.38,3110.1 2442.37,3110.03 2442.35,3109.95C2442.34,3109.88 2442.34,3109.81 2442.34,3109.75C2442.34,3109.53 2442.46,3109.42 2442.7,3109.42L2444.38,3109.42C2444.38,3109.69 2444.37,3109.99 2444.36,3110.34C2444.34,3110.7 2444.33,3111.07 2444.33,3111.47L2444.33,3112.1C2444.33,3112.39 2444.34,3112.69 2444.34,3112.98C2444.35,3113.27 2444.36,3113.59 2444.37,3113.93L2444.94,3113.93C2444.96,3114 2444.97,3114.07 2444.99,3114.14C2445,3114.21 2445,3114.27 2445,3114.33C2445,3114.55 2444.88,3114.65 2444.64,3114.65L2442.41,3114.65C2442.38,3114.58 2442.37,3114.51 2442.35,3114.44C2442.34,3114.37 2442.34,3114.31 2442.34,3114.25C2442.34,3114.03 2442.46,3113.93 2442.7,3113.93ZM2443.6,3108.68C2443.25,3108.68 2443.02,3108.63 2442.91,3108.52C2442.79,3108.41 2442.73,3108.24 2442.73,3108.01C2442.73,3107.81 2442.8,3107.64 2442.93,3107.52C2443.06,3107.4 2443.28,3107.34 2443.6,3107.34C2443.94,3107.34 2444.16,3107.39 2444.28,3107.5C2444.4,3107.61 2444.46,3107.78 2444.46,3108.02C2444.46,3108.22 2444.4,3108.38 2444.26,3108.5C2444.13,3108.62 2443.91,3108.68 2443.6,3108.68Z" style="fill:white;fill-rule:nonzero;"/>
                <path d="M2446.19,3113.03L2446.19,3110.29L2445.43,3110.29C2445.4,3110.21 2445.38,3110.14 2445.36,3110.07C2445.35,3110 2445.34,3109.91 2445.34,3109.82C2445.34,3109.56 2445.47,3109.42 2445.72,3109.42L2446.19,3109.42L2446.54,3108.04L2446.92,3108.06C2447.14,3108.08 2447.28,3108.13 2447.37,3108.22C2447.45,3108.31 2447.49,3108.48 2447.49,3108.73L2447.49,3109.42L2449.23,3109.42C2449.26,3109.5 2449.28,3109.57 2449.29,3109.64C2449.31,3109.71 2449.31,3109.79 2449.31,3109.89C2449.31,3110.15 2449.19,3110.29 2448.93,3110.29L2447.49,3110.29L2447.49,3112.76C2447.49,3113.14 2447.54,3113.4 2447.66,3113.57C2447.77,3113.73 2447.94,3113.82 2448.16,3113.82C2448.3,3113.82 2448.43,3113.78 2448.54,3113.71C2448.66,3113.65 2448.76,3113.56 2448.85,3113.44C2448.98,3113.47 2449.1,3113.53 2449.19,3113.63C2449.29,3113.72 2449.34,3113.84 2449.34,3113.97C2449.34,3114.17 2449.2,3114.35 2448.92,3114.52C2448.64,3114.68 2448.27,3114.76 2447.82,3114.76C2447.25,3114.76 2446.84,3114.61 2446.58,3114.31C2446.32,3114.01 2446.19,3113.58 2446.19,3113.03Z" style="fill:white;fill-rule:nonzero;"/>
                <path d="M2453.97,3113.08C2453.97,3113.58 2453.78,3113.98 2453.39,3114.29C2452.99,3114.61 2452.46,3114.76 2451.77,3114.76C2451.33,3114.76 2450.96,3114.71 2450.65,3114.6C2450.34,3114.49 2450.1,3114.36 2449.94,3114.2C2449.77,3114.04 2449.69,3113.88 2449.69,3113.72C2449.69,3113.56 2449.75,3113.42 2449.86,3113.3C2449.97,3113.18 2450.11,3113.09 2450.26,3113.03C2450.44,3113.25 2450.66,3113.45 2450.91,3113.64C2451.16,3113.82 2451.48,3113.91 2451.87,3113.91C2452.13,3113.91 2452.34,3113.86 2452.47,3113.76C2452.61,3113.66 2452.68,3113.53 2452.68,3113.35C2452.68,3113.17 2452.61,3113.03 2452.46,3112.92C2452.31,3112.82 2452.09,3112.72 2451.79,3112.62L2451.24,3112.45C2450.79,3112.31 2450.43,3112.13 2450.19,3111.89C2449.95,3111.66 2449.83,3111.35 2449.83,3110.95C2449.83,3110.61 2449.91,3110.32 2450.09,3110.07C2450.26,3109.83 2450.5,3109.64 2450.8,3109.51C2451.11,3109.38 2451.46,3109.32 2451.86,3109.32C2452.27,3109.32 2452.61,3109.37 2452.89,3109.46C2453.16,3109.56 2453.38,3109.69 2453.52,3109.84C2453.66,3109.99 2453.73,3110.15 2453.73,3110.32C2453.73,3110.48 2453.68,3110.61 2453.56,3110.7C2453.45,3110.8 2453.3,3110.86 2453.12,3110.91L2452.94,3110.95L2452.87,3110.84C2452.74,3110.63 2452.57,3110.46 2452.38,3110.34C2452.19,3110.22 2451.97,3110.17 2451.73,3110.17C2451.54,3110.17 2451.39,3110.22 2451.27,3110.31C2451.15,3110.41 2451.09,3110.54 2451.09,3110.7C2451.09,3110.87 2451.15,3111 2451.28,3111.1C2451.41,3111.2 2451.62,3111.28 2451.9,3111.36L2452.39,3111.51C2452.96,3111.68 2453.36,3111.89 2453.61,3112.14C2453.85,3112.39 2453.97,3112.7 2453.97,3113.08Z" style="fill:white;fill-rule:nonzero;"/>
                <path d="M2416.94,3123.46L2414.45,3123.46C2414.49,3123.89 2414.58,3124.22 2414.71,3124.46C2414.84,3124.69 2415.01,3124.85 2415.22,3124.94C2415.43,3125.03 2415.66,3125.07 2415.91,3125.07C2416.19,3125.07 2416.43,3125.01 2416.62,3124.9C2416.81,3124.79 2417,3124.63 2417.18,3124.42C2417.33,3124.46 2417.45,3124.53 2417.55,3124.62C2417.65,3124.72 2417.7,3124.84 2417.7,3124.99C2417.7,3125.15 2417.61,3125.3 2417.44,3125.45C2417.28,3125.6 2417.04,3125.72 2416.74,3125.82C2416.43,3125.91 2416.08,3125.96 2415.69,3125.96C2414.8,3125.96 2414.14,3125.73 2413.72,3125.28C2413.3,3124.83 2413.09,3124.2 2413.09,3123.4C2413.09,3122.42 2413.32,3121.69 2413.77,3121.22C2414.22,3120.75 2414.82,3120.51 2415.55,3120.51C2416.05,3120.51 2416.46,3120.61 2416.78,3120.78C2417.1,3120.96 2417.34,3121.21 2417.5,3121.53C2417.66,3121.84 2417.74,3122.2 2417.74,3122.62C2417.74,3122.86 2417.71,3123.05 2417.66,3123.17C2417.6,3123.29 2417.52,3123.37 2417.4,3123.41C2417.29,3123.44 2417.13,3123.46 2416.94,3123.46ZM2414.45,3122.66L2416.41,3122.66L2416.41,3122.59C2416.41,3122.19 2416.33,3121.88 2416.16,3121.66C2416,3121.44 2415.76,3121.33 2415.46,3121.33C2415.18,3121.33 2414.95,3121.43 2414.77,3121.64C2414.59,3121.86 2414.48,3122.19 2414.45,3122.66Z" style="fill:white;fill-rule:nonzero;"/>
                <path d="M2421.65,3123.43L2421.11,3122.77L2421.97,3121.38L2421.46,3121.38C2421.44,3121.31 2421.42,3121.24 2421.41,3121.18C2421.39,3121.12 2421.39,3121.05 2421.39,3120.97C2421.39,3120.74 2421.51,3120.62 2421.76,3120.62L2423.62,3120.62C2423.64,3120.69 2423.66,3120.76 2423.67,3120.82C2423.69,3120.88 2423.69,3120.95 2423.69,3121.03C2423.69,3121.15 2423.66,3121.24 2423.61,3121.29C2423.55,3121.35 2423.46,3121.38 2423.33,3121.38L2423.03,3121.38L2421.65,3123.43ZM2420.23,3120.62C2420.38,3120.97 2420.57,3121.34 2420.78,3121.72C2421,3122.09 2421.27,3122.52 2421.59,3122.99C2421.9,3123.45 2422.29,3123.99 2422.74,3124.59C2422.9,3124.82 2423.03,3124.96 2423.13,3125.03C2423.23,3125.09 2423.34,3125.12 2423.48,3125.12L2423.67,3125.12C2423.69,3125.2 2423.71,3125.27 2423.72,3125.34C2423.73,3125.41 2423.74,3125.47 2423.74,3125.53C2423.74,3125.74 2423.62,3125.85 2423.38,3125.85L2421.99,3125.85C2421.88,3125.66 2421.75,3125.42 2421.59,3125.15C2421.42,3124.88 2421.23,3124.57 2421.01,3124.23C2420.78,3123.89 2420.54,3123.51 2420.26,3123.11C2419.99,3122.71 2419.69,3122.28 2419.36,3121.82C2419.24,3121.65 2419.14,3121.53 2419.04,3121.47C2418.95,3121.41 2418.82,3121.38 2418.66,3121.38L2418.42,3121.38C2418.4,3121.3 2418.38,3121.22 2418.37,3121.15C2418.36,3121.08 2418.35,3121.01 2418.35,3120.95C2418.35,3120.84 2418.38,3120.76 2418.43,3120.7C2418.49,3120.65 2418.58,3120.62 2418.71,3120.62L2420.23,3120.62ZM2420.33,3122.98L2420.87,3123.65L2420,3125.12L2420.53,3125.12C2420.55,3125.19 2420.57,3125.27 2420.58,3125.34C2420.59,3125.41 2420.6,3125.47 2420.6,3125.53C2420.6,3125.64 2420.57,3125.72 2420.51,3125.77C2420.46,3125.83 2420.37,3125.85 2420.24,3125.85L2418.34,3125.85C2418.31,3125.77 2418.3,3125.7 2418.28,3125.63C2418.27,3125.56 2418.27,3125.5 2418.27,3125.44C2418.27,3125.22 2418.39,3125.12 2418.63,3125.12L2418.93,3125.12L2420.33,3122.98Z" style="fill:white;fill-rule:nonzero;"/>
                <path d="M2426.11,3122.82L2426.11,3124.87C2426.23,3124.95 2426.37,3125.02 2426.55,3125.07C2426.72,3125.12 2426.9,3125.15 2427.1,3125.15C2427.31,3125.15 2427.5,3125.1 2427.68,3124.99C2427.85,3124.89 2427.98,3124.71 2428.09,3124.45C2428.19,3124.19 2428.24,3123.83 2428.24,3123.37C2428.24,3122.85 2428.19,3122.45 2428.09,3122.16C2427.98,3121.88 2427.84,3121.68 2427.67,3121.56C2427.49,3121.44 2427.28,3121.39 2427.04,3121.39C2426.74,3121.39 2426.5,3121.5 2426.35,3121.73C2426.19,3121.95 2426.11,3122.32 2426.11,3122.82ZM2424.47,3127.43L2424.77,3127.43C2424.79,3127.14 2424.8,3126.87 2424.8,3126.61C2424.81,3126.34 2424.81,3126.09 2424.81,3125.86L2424.81,3121.99C2424.81,3121.75 2424.78,3121.58 2424.7,3121.5C2424.63,3121.42 2424.51,3121.38 2424.33,3121.38L2424.18,3121.38C2424.16,3121.3 2424.14,3121.22 2424.13,3121.15C2424.12,3121.08 2424.11,3121.01 2424.11,3120.95C2424.11,3120.73 2424.23,3120.62 2424.47,3120.62L2425.81,3120.62C2425.83,3120.7 2425.85,3120.8 2425.86,3120.9C2425.87,3121 2425.88,3121.09 2425.88,3121.17C2426.08,3120.96 2426.3,3120.8 2426.56,3120.68C2426.82,3120.57 2427.12,3120.51 2427.45,3120.51C2427.93,3120.51 2428.32,3120.61 2428.65,3120.81C2428.97,3121.01 2429.22,3121.29 2429.38,3121.67C2429.55,3122.04 2429.63,3122.49 2429.63,3123.01C2429.63,3123.69 2429.52,3124.24 2429.3,3124.68C2429.07,3125.11 2428.77,3125.43 2428.38,3125.64C2428,3125.86 2427.56,3125.96 2427.07,3125.96C2426.85,3125.96 2426.66,3125.94 2426.51,3125.9C2426.36,3125.86 2426.23,3125.82 2426.11,3125.77L2426.11,3126.08C2426.11,3126.21 2426.11,3126.4 2426.11,3126.65C2426.11,3126.91 2426.12,3127.17 2426.14,3127.43L2426.89,3127.43C2426.91,3127.5 2426.93,3127.57 2426.94,3127.64C2426.95,3127.71 2426.96,3127.77 2426.96,3127.83C2426.96,3128.05 2426.84,3128.15 2426.6,3128.15L2424.18,3128.15C2424.16,3128.08 2424.14,3128 2424.13,3127.94C2424.12,3127.87 2424.11,3127.81 2424.11,3127.75C2424.11,3127.53 2424.23,3127.43 2424.47,3127.43Z" style="fill:white;fill-rule:nonzero;"/>
                <path d="M2434.22,3123.46L2431.73,3123.46C2431.77,3123.89 2431.86,3124.22 2431.99,3124.46C2432.12,3124.69 2432.29,3124.85 2432.5,3124.94C2432.71,3125.03 2432.93,3125.07 2433.19,3125.07C2433.47,3125.07 2433.7,3125.01 2433.9,3124.9C2434.09,3124.79 2434.28,3124.63 2434.46,3124.42C2434.6,3124.46 2434.72,3124.53 2434.83,3124.62C2434.93,3124.72 2434.98,3124.84 2434.98,3124.99C2434.98,3125.15 2434.89,3125.3 2434.72,3125.45C2434.55,3125.6 2434.32,3125.72 2434.01,3125.82C2433.71,3125.91 2433.36,3125.96 2432.96,3125.96C2432.07,3125.96 2431.42,3125.73 2431,3125.28C2430.58,3124.83 2430.37,3124.2 2430.37,3123.4C2430.37,3122.42 2430.59,3121.69 2431.05,3121.22C2431.5,3120.75 2432.1,3120.51 2432.83,3120.51C2433.33,3120.51 2433.74,3120.61 2434.06,3120.78C2434.38,3120.96 2434.62,3121.21 2434.78,3121.53C2434.94,3121.84 2435.01,3122.2 2435.01,3122.62C2435.01,3122.86 2434.99,3123.05 2434.93,3123.17C2434.88,3123.29 2434.8,3123.37 2434.68,3123.41C2434.57,3123.44 2434.41,3123.46 2434.22,3123.46ZM2431.73,3122.66L2433.69,3122.66L2433.69,3122.59C2433.69,3122.19 2433.61,3121.88 2433.44,3121.66C2433.28,3121.44 2433.04,3121.33 2432.74,3121.33C2432.45,3121.33 2432.22,3121.43 2432.05,3121.64C2431.87,3121.86 2431.76,3122.19 2431.73,3122.66Z" style="fill:white;fill-rule:nonzero;"/>
                <path d="M2439.36,3123.82L2439.36,3121.6C2439.24,3121.51 2439.09,3121.45 2438.92,3121.4C2438.75,3121.35 2438.57,3121.33 2438.36,3121.33C2438.01,3121.33 2437.74,3121.46 2437.53,3121.72C2437.33,3121.98 2437.23,3122.44 2437.23,3123.09C2437.23,3123.61 2437.28,3124.01 2437.39,3124.29C2437.49,3124.58 2437.64,3124.77 2437.82,3124.88C2438,3124.99 2438.19,3125.04 2438.41,3125.04C2438.72,3125.04 2438.96,3124.94 2439.12,3124.74C2439.28,3124.54 2439.36,3124.24 2439.36,3123.82ZM2440.94,3125.85L2439.72,3125.85C2439.69,3125.78 2439.66,3125.69 2439.64,3125.59C2439.61,3125.49 2439.6,3125.39 2439.59,3125.3C2439.41,3125.5 2439.2,3125.66 2438.94,3125.78C2438.68,3125.9 2438.38,3125.96 2438.02,3125.96C2437.33,3125.96 2436.79,3125.74 2436.41,3125.29C2436.03,3124.85 2435.84,3124.22 2435.84,3123.42C2435.84,3122.72 2435.95,3122.16 2436.18,3121.73C2436.4,3121.31 2436.71,3121 2437.1,3120.8C2437.49,3120.61 2437.93,3120.51 2438.42,3120.51C2438.62,3120.51 2438.8,3120.53 2438.95,3120.56C2439.11,3120.59 2439.24,3120.62 2439.36,3120.67L2439.36,3119.78C2439.36,3119.53 2439.33,3119.37 2439.26,3119.29C2439.18,3119.21 2439.06,3119.17 2438.88,3119.17L2438.55,3119.17C2438.53,3119.09 2438.51,3119.01 2438.5,3118.94C2438.49,3118.87 2438.48,3118.8 2438.48,3118.73C2438.48,3118.51 2438.6,3118.41 2438.84,3118.41L2440.71,3118.41C2440.71,3118.58 2440.7,3118.8 2440.7,3119.06C2440.69,3119.32 2440.68,3119.59 2440.67,3119.86C2440.66,3120.14 2440.66,3120.39 2440.66,3120.62L2440.66,3124.48C2440.66,3124.75 2440.68,3124.93 2440.74,3125.01C2440.8,3125.09 2440.9,3125.12 2441.05,3125.12L2441.24,3125.12C2441.26,3125.2 2441.28,3125.27 2441.29,3125.34C2441.3,3125.41 2441.3,3125.47 2441.3,3125.53C2441.3,3125.74 2441.18,3125.85 2440.94,3125.85Z" style="fill:white;fill-rule:nonzero;"/>
                <path d="M2442.21,3125.12L2442.52,3125.12C2442.53,3124.79 2442.54,3124.47 2442.55,3124.18C2442.55,3123.89 2442.55,3123.59 2442.55,3123.3L2442.55,3121.99C2442.55,3121.75 2442.52,3121.58 2442.45,3121.5C2442.38,3121.42 2442.25,3121.38 2442.07,3121.38L2441.92,3121.38C2441.9,3121.3 2441.88,3121.22 2441.87,3121.15C2441.86,3121.08 2441.85,3121.01 2441.85,3120.95C2441.85,3120.73 2441.97,3120.62 2442.21,3120.62L2443.9,3120.62C2443.9,3120.89 2443.89,3121.19 2443.87,3121.54C2443.86,3121.89 2443.85,3122.27 2443.85,3122.67L2443.85,3123.3C2443.85,3123.59 2443.85,3123.89 2443.86,3124.18C2443.86,3124.47 2443.87,3124.79 2443.88,3125.12L2444.45,3125.12C2444.47,3125.2 2444.49,3125.27 2444.5,3125.34C2444.51,3125.41 2444.52,3125.47 2444.52,3125.53C2444.52,3125.74 2444.4,3125.85 2444.16,3125.85L2441.92,3125.85C2441.9,3125.78 2441.88,3125.7 2441.87,3125.64C2441.86,3125.57 2441.85,3125.51 2441.85,3125.45C2441.85,3125.23 2441.97,3125.12 2442.21,3125.12ZM2443.11,3119.88C2442.77,3119.88 2442.54,3119.83 2442.42,3119.72C2442.3,3119.61 2442.24,3119.44 2442.24,3119.2C2442.24,3119 2442.31,3118.84 2442.44,3118.72C2442.57,3118.6 2442.8,3118.54 2443.11,3118.54C2443.45,3118.54 2443.68,3118.59 2443.8,3118.7C2443.92,3118.81 2443.98,3118.98 2443.98,3119.22C2443.98,3119.42 2443.91,3119.58 2443.78,3119.7C2443.65,3119.82 2443.43,3119.88 2443.11,3119.88Z" style="fill:white;fill-rule:nonzero;"/>
                <path d="M2445.71,3124.22L2445.71,3121.49L2444.94,3121.49C2444.91,3121.41 2444.89,3121.34 2444.88,3121.27C2444.86,3121.2 2444.85,3121.11 2444.85,3121.02C2444.85,3120.76 2444.98,3120.62 2445.24,3120.62L2445.71,3120.62L2446.05,3119.24L2446.44,3119.26C2446.65,3119.28 2446.8,3119.33 2446.88,3119.42C2446.96,3119.51 2447,3119.68 2447,3119.93L2447,3120.62L2448.75,3120.62C2448.78,3120.7 2448.8,3120.77 2448.81,3120.84C2448.82,3120.91 2448.83,3120.99 2448.83,3121.09C2448.83,3121.35 2448.7,3121.49 2448.45,3121.49L2447,3121.49L2447,3123.96C2447,3124.34 2447.06,3124.6 2447.17,3124.77C2447.29,3124.93 2447.45,3125.01 2447.67,3125.01C2447.81,3125.01 2447.94,3124.98 2448.06,3124.91C2448.18,3124.85 2448.28,3124.75 2448.36,3124.64C2448.5,3124.67 2448.61,3124.73 2448.71,3124.83C2448.8,3124.92 2448.85,3125.04 2448.85,3125.17C2448.85,3125.37 2448.71,3125.55 2448.43,3125.72C2448.15,3125.88 2447.79,3125.96 2447.34,3125.96C2446.77,3125.96 2446.35,3125.81 2446.1,3125.51C2445.84,3125.21 2445.71,3124.78 2445.71,3124.22Z" style="fill:white;fill-rule:nonzero;"/>
                <path d="M2449.67,3125.12L2449.97,3125.12C2449.98,3124.79 2449.99,3124.47 2450,3124.18C2450.01,3123.89 2450.01,3123.59 2450.01,3123.3L2450.01,3121.99C2450.01,3121.75 2449.97,3121.58 2449.9,3121.5C2449.83,3121.42 2449.7,3121.38 2449.53,3121.38L2449.38,3121.38C2449.35,3121.3 2449.33,3121.22 2449.32,3121.15C2449.31,3121.08 2449.31,3121.01 2449.31,3120.95C2449.31,3120.73 2449.43,3120.62 2449.67,3120.62L2451.35,3120.62C2451.35,3120.89 2451.34,3121.19 2451.32,3121.54C2451.31,3121.89 2451.3,3122.27 2451.3,3122.67L2451.3,3123.3C2451.3,3123.59 2451.3,3123.89 2451.31,3124.18C2451.32,3124.47 2451.33,3124.79 2451.34,3125.12L2451.9,3125.12C2451.93,3125.2 2451.94,3125.27 2451.95,3125.34C2451.97,3125.41 2451.97,3125.47 2451.97,3125.53C2451.97,3125.74 2451.85,3125.85 2451.61,3125.85L2449.38,3125.85C2449.35,3125.78 2449.33,3125.7 2449.32,3125.64C2449.31,3125.57 2449.31,3125.51 2449.31,3125.45C2449.31,3125.23 2449.43,3125.12 2449.67,3125.12ZM2450.56,3119.88C2450.22,3119.88 2449.99,3119.83 2449.87,3119.72C2449.76,3119.61 2449.7,3119.44 2449.7,3119.2C2449.7,3119 2449.76,3118.84 2449.9,3118.72C2450.03,3118.6 2450.25,3118.54 2450.56,3118.54C2450.9,3118.54 2451.13,3118.59 2451.25,3118.7C2451.37,3118.81 2451.43,3118.98 2451.43,3119.22C2451.43,3119.42 2451.37,3119.58 2451.23,3119.7C2451.1,3119.82 2450.88,3119.88 2450.56,3119.88Z" style="fill:white;fill-rule:nonzero;"/>
                <path d="M2453.99,3123.08C2453.99,3123.84 2454.08,3124.38 2454.28,3124.69C2454.47,3124.99 2454.75,3125.15 2455.1,3125.15C2455.29,3125.15 2455.47,3125.09 2455.62,3124.98C2455.78,3124.87 2455.9,3124.69 2455.99,3124.43C2456.09,3124.18 2456.13,3123.83 2456.13,3123.4C2456.13,3122.63 2456.03,3122.09 2455.84,3121.79C2455.65,3121.48 2455.37,3121.33 2455.01,3121.33C2454.83,3121.33 2454.66,3121.38 2454.5,3121.49C2454.34,3121.6 2454.22,3121.78 2454.13,3122.04C2454.03,3122.3 2453.99,3122.64 2453.99,3123.08ZM2452.59,3123.4C2452.59,3122.78 2452.7,3122.25 2452.91,3121.82C2453.12,3121.39 2453.41,3121.07 2453.8,3120.85C2454.18,3120.62 2454.63,3120.51 2455.15,3120.51C2455.95,3120.51 2456.55,3120.74 2456.94,3121.2C2457.33,3121.65 2457.53,3122.27 2457.53,3123.07C2457.53,3123.7 2457.42,3124.23 2457.21,3124.66C2457,3125.09 2456.71,3125.41 2456.33,3125.63C2455.95,3125.85 2455.49,3125.96 2454.97,3125.96C2454.17,3125.96 2453.57,3125.73 2453.18,3125.28C2452.79,3124.83 2452.59,3124.2 2452.59,3123.4Z" style="fill:white;fill-rule:nonzero;"/>
                <path d="M2458.58,3125.12L2458.88,3125.12C2458.9,3124.79 2458.91,3124.47 2458.91,3124.18C2458.92,3123.89 2458.92,3123.59 2458.92,3123.3L2458.92,3121.99C2458.92,3121.75 2458.89,3121.58 2458.81,3121.5C2458.74,3121.42 2458.62,3121.38 2458.44,3121.38L2458.29,3121.38C2458.26,3121.3 2458.25,3121.22 2458.24,3121.15C2458.22,3121.08 2458.22,3121.01 2458.22,3120.95C2458.22,3120.73 2458.34,3120.62 2458.58,3120.62L2459.93,3120.62C2459.95,3120.7 2459.96,3120.8 2459.97,3120.92C2459.99,3121.03 2459.99,3121.14 2459.99,3121.23C2460.25,3121.01 2460.52,3120.84 2460.81,3120.71C2461.1,3120.58 2461.43,3120.51 2461.81,3120.51C2462.31,3120.51 2462.7,3120.64 2462.97,3120.9C2463.24,3121.15 2463.38,3121.6 2463.38,3122.23L2463.38,3124.3C2463.38,3124.54 2463.39,3124.72 2463.42,3124.84C2463.44,3124.95 2463.48,3125.03 2463.54,3125.07C2463.6,3125.11 2463.68,3125.12 2463.78,3125.12L2463.96,3125.12C2463.98,3125.2 2464,3125.27 2464.01,3125.34C2464.02,3125.41 2464.02,3125.47 2464.02,3125.53C2464.02,3125.74 2463.91,3125.85 2463.67,3125.85L2462.03,3125.85C2462.03,3125.68 2462.04,3125.46 2462.05,3125.2C2462.06,3124.95 2462.07,3124.68 2462.08,3124.41C2462.08,3124.14 2462.09,3123.89 2462.09,3123.68L2462.09,3123.04C2462.09,3122.66 2462.06,3122.34 2462,3122.11C2461.95,3121.88 2461.85,3121.71 2461.72,3121.61C2461.58,3121.51 2461.39,3121.46 2461.14,3121.46C2460.84,3121.46 2460.61,3121.55 2460.45,3121.73C2460.29,3121.91 2460.22,3122.22 2460.22,3122.66L2460.22,3123.3C2460.22,3123.59 2460.22,3123.89 2460.22,3124.18C2460.23,3124.47 2460.24,3124.79 2460.25,3125.12L2460.82,3125.12C2460.84,3125.2 2460.86,3125.27 2460.87,3125.34C2460.88,3125.41 2460.88,3125.47 2460.88,3125.53C2460.88,3125.74 2460.76,3125.85 2460.53,3125.85L2458.29,3125.85C2458.26,3125.78 2458.25,3125.7 2458.24,3125.64C2458.22,3125.57 2458.22,3125.51 2458.22,3125.45C2458.22,3125.23 2458.34,3125.12 2458.58,3125.12Z" style="fill:white;fill-rule:nonzero;"/>
            </g>
            <g transform="matrix(26.9492,0,0,26.5027,-52500.1,-81145.6)">
                <path d="M2413.22,3113.8L2414.41,3113.8C2414.42,3113.47 2414.43,3113.15 2414.44,3112.85C2414.44,3112.55 2414.44,3112.26 2414.44,3111.99L2414.44,3108.68C2414.44,3108.41 2414.4,3108.22 2414.32,3108.11C2414.24,3108 2414.1,3107.94 2413.9,3107.94L2413.04,3107.94C2413.01,3107.87 2412.99,3107.79 2412.97,3107.7C2412.95,3107.61 2412.94,3107.53 2412.94,3107.45C2412.94,3107.31 2412.98,3107.2 2413.06,3107.13C2413.13,3107.06 2413.27,3107.02 2413.46,3107.02L2415.98,3107.02C2415.98,3107.21 2415.97,3107.43 2415.96,3107.7C2415.95,3107.96 2415.94,3108.23 2415.94,3108.51C2415.93,3108.78 2415.93,3109.05 2415.93,3109.29L2415.93,3111.99C2415.93,3112.26 2415.93,3112.55 2415.94,3112.85C2415.94,3113.15 2415.95,3113.47 2415.97,3113.8L2417.24,3113.8C2417.29,3113.96 2417.32,3114.12 2417.32,3114.26C2417.32,3114.5 2417.2,3114.62 2416.96,3114.62L2412.93,3114.62C2412.91,3114.53 2412.89,3114.45 2412.88,3114.39C2412.86,3114.32 2412.86,3114.24 2412.86,3114.16C2412.86,3113.92 2412.98,3113.8 2413.22,3113.8ZM2419.99,3112.6L2416.5,3112.6L2416.5,3112.29C2416.5,3112.04 2416.53,3111.83 2416.57,3111.66C2416.62,3111.5 2416.72,3111.29 2416.89,3111.03L2418.72,3108.09C2418.92,3107.78 2419.11,3107.55 2419.3,3107.41C2419.49,3107.26 2419.71,3107.16 2419.95,3107.1C2420.2,3107.05 2420.48,3107.02 2420.81,3107.02L2421.58,3107.02C2421.58,3107.21 2421.58,3107.43 2421.58,3107.68C2421.57,3107.93 2421.57,3108.18 2421.56,3108.44C2421.56,3108.7 2421.56,3108.95 2421.56,3109.19L2421.56,3111.68L2422.48,3111.68C2422.5,3111.74 2422.53,3111.82 2422.55,3111.93C2422.57,3112.04 2422.58,3112.14 2422.58,3112.24C2422.58,3112.37 2422.55,3112.46 2422.48,3112.52C2422.41,3112.57 2422.32,3112.6 2422.19,3112.6L2421.56,3112.6C2421.56,3112.79 2421.56,3112.98 2421.57,3113.18C2421.58,3113.38 2421.59,3113.59 2421.59,3113.8L2422.49,3113.8C2422.54,3113.96 2422.57,3114.12 2422.57,3114.26C2422.57,3114.5 2422.44,3114.62 2422.19,3114.62L2418.81,3114.62C2418.76,3114.46 2418.74,3114.31 2418.74,3114.16C2418.74,3113.92 2418.86,3113.8 2419.11,3113.8L2419.99,3113.8L2420.41,3113.8L2420.41,3110.03L2420.41,3110.03L2420.41,3108.1L2417.95,3110.22L2419.7,3110.23L2417.95,3111.74L2419.99,3111.76L2419.99,3112.6Z" style="fill:white;"/>
            </g>
            <g transform="matrix(0.305637,0,0,0.210781,11696.2,64.2381)">
                <path d="M3339.33,5638.39L3262.24,5733.09L3339.37,5734.03L3339.33,5638.39" style="fill:rgb(255,147,0);"/>
            </g>
            <g transform="matrix(0.305637,0,0,0.210781,11696.2,104.812)">
                <path d="M3339.33,5638.39L3262.24,5733.09L3339.37,5734.03L3339.33,5638.39" style="fill:rgb(0,150,255);"/>
            </g>
        </g>
    </g>
</svg>
