<?xml version="1.0" encoding="UTF-8"?>
<svg id="Vrstva_1" xmlns="http://www.w3.org/2000/svg" xmlns:serif="http://www.serif.com/" version="1.1" viewBox="0 0 343 157.89">
  <!-- Generator: Adobe Illustrator 30.3.0, SVG Export Plug-In . SVG Version: 2.1.3 Build 182)  -->
  <defs>
    <style>
      .st0, .st1, .st2 {
        fill-rule: evenodd;
      }

      .st0, .st3 {
        fill: #fff;
      }

      .st1 {
        fill: #0096ff;
      }

      .st2 {
        fill: #00a621;
      }
    </style>
  </defs>
  <path class="st0" d="M50.74,137.91h-31.98c-.44-1.18-.74-2.36-.89-3.54-.3-1.03-.3-2.06-.3-3.09,0-3.54,1.91-5.3,5.89-5.3h5.01c.3-4.13.44-8.55.59-13.41,0-4.86.15-10.31.15-16.5v-58.5c0-4.13-.74-6.78-1.92-8.11-1.18-1.33-3.24-2.07-6.19-2.07h-2.36c-.44-1.32-.74-2.5-.89-3.68-.3-1.18-.3-2.36-.3-3.54,0-3.54,1.91-5.3,5.89-5.3h27.85c0,4.42-.15,9.87-.44,16.5-.3,6.49-.3,13.27-.3,20.04v7.37c3.24-2.65,7.07-4.86,11.5-6.48,4.42-1.77,9.28-2.51,14.74-2.51,8.4,0,14.88,2.07,19.31,6.34,4.57,4.12,6.78,11.49,6.78,21.96v34.19c0,3.98.15,6.93.59,8.84.29,2.06,1.03,3.24,2.06,3.98.89.59,2.21.89,3.83.89h3.09c.3,1.18.59,2.36.74,3.54.15,1.18.3,2.21.3,3.09,0,3.54-1.92,5.3-5.9,5.3h-50.1v-15.91l32.86-.3-28.15-22.55,28.15-.3-39.64-31.68v70.73Z"/>
  <path class="st2" d="M57.48,81.41l14.12,11.27-14.12.11v-11.39"/>
  <path class="st1" d="M57.48,104.33l14.12,11.27-14.12.11v-11.39"/>
  <g>
    <path class="st3" d="M140.93,50.21h1.02c.03-.82.07-1.71.1-2.67v-14.97c0-.82-.1-1.35-.33-1.62-.26-.26-.66-.4-1.25-.4h-.49c-.07-.26-.13-.53-.17-.76s-.07-.46-.07-.69c0-.69.4-1.06,1.19-1.06h5.57c0,.86-.07,1.95-.1,3.26-.03,1.32-.07,2.67-.07,4.02v1.45c.66-.53,1.42-.96,2.31-1.29.86-.33,1.85-.49,2.94-.49,1.68,0,2.97.4,3.86,1.25.89.82,1.32,2.31,1.32,4.39v6.83c0,.79.07,1.38.13,1.78.07.4.2.63.4.76.2.13.46.2.79.2h.59c.07.23.13.46.17.69.03.23.07.43.07.63,0,.73-.4,1.05-1.19,1.05h-5.41c.03-.56.03-1.29.07-2.14.03-.82.07-1.71.1-2.61s.03-1.68.03-2.41v-2.08c0-1.29-.1-2.31-.26-3.1-.2-.76-.5-1.32-.96-1.65-.43-.33-1.09-.49-1.91-.49-.96,0-1.71.3-2.24.89-.53.56-.79,1.58-.79,3v5.08c.03.96.07,2.01.1,3.13h1.88c.07.23.13.46.16.69.03.23.07.43.07.63,0,.73-.4,1.05-1.19,1.05h-7.39c-.07-.23-.13-.46-.17-.69-.03-.23-.07-.43-.07-.63,0-.73.4-1.06,1.19-1.06Z"/>
    <path class="st3" d="M165.5,43.45c0,2.51.33,4.29.99,5.31.63.99,1.55,1.52,2.7,1.52.63,0,1.22-.2,1.71-.56.5-.36.92-.96,1.22-1.81.3-.82.46-1.98.46-3.4,0-2.54-.33-4.32-.96-5.31-.63-1.02-1.55-1.52-2.74-1.52-.63,0-1.19.17-1.68.53-.53.36-.92.99-1.25,1.81-.3.86-.46,1.98-.46,3.43ZM160.92,44.5c0-2.04.33-3.79,1.02-5.21.69-1.42,1.68-2.47,2.94-3.2,1.29-.73,2.77-1.09,4.45-1.09,2.67,0,4.62.73,5.9,2.24,1.32,1.48,1.95,3.56,1.95,6.17,0,2.08-.33,3.82-1.02,5.24s-1.68,2.47-2.94,3.2c-1.25.73-2.74,1.09-4.45,1.09-2.64,0-4.62-.76-5.9-2.24-1.32-1.48-1.95-3.56-1.95-6.2Z"/>
    <path class="st3" d="M181.53,47.24v-9.04h-2.51c-.1-.26-.16-.5-.23-.73-.03-.23-.07-.53-.07-.82,0-.86.43-1.32,1.25-1.32h1.55l1.15-4.55,1.25.07c.73.07,1.22.23,1.48.53.26.3.4.86.4,1.68v2.28h5.74c.1.26.17.5.2.73.07.23.07.5.07.82,0,.86-.4,1.32-1.25,1.32h-4.75v8.14c0,1.25.17,2.11.56,2.67.36.53.92.82,1.65.82.46,0,.89-.13,1.29-.36.36-.2.69-.49.99-.89.43.1.82.3,1.12.63.33.3.5.69.5,1.12,0,.66-.46,1.25-1.39,1.81-.92.53-2.11.79-3.63.79-1.88,0-3.23-.49-4.09-1.48s-1.29-2.41-1.29-4.22Z"/>
    <path class="st3" d="M206.29,44.7h-8.18c.1,1.42.4,2.54.82,3.3.43.76.99,1.29,1.68,1.58s1.45.43,2.28.43c.92,0,1.71-.17,2.34-.56.63-.36,1.25-.89,1.85-1.58.5.13.89.36,1.22.69.33.3.49.69.49,1.19,0,.53-.3,1.02-.86,1.52-.56.49-1.32.89-2.31,1.22-.99.3-2.14.46-3.46.46-2.93,0-5.11-.76-6.5-2.24-1.38-1.48-2.08-3.53-2.08-6.2,0-3.23.73-5.64,2.24-7.19,1.48-1.55,3.46-2.31,5.87-2.31,1.65,0,3,.3,4.06.89,1.06.59,1.85,1.38,2.37,2.44.53,1.02.79,2.24.79,3.59,0,.79-.1,1.42-.26,1.81-.2.4-.46.66-.86.79-.36.1-.89.17-1.52.17ZM198.08,42.06h6.46v-.23c0-1.32-.26-2.34-.82-3.07-.53-.73-1.32-1.09-2.31-1.09-.92,0-1.68.36-2.28,1.06s-.96,1.78-1.06,3.33Z"/>
    <path class="st3" d="M212.19,50.21h1.02c.03-.82.07-1.71.1-2.67,0-.99.03-2.08.03-3.3v-11.67c0-.82-.13-1.35-.36-1.62-.26-.26-.66-.4-1.25-.4h-.5c-.07-.26-.13-.53-.17-.76-.03-.23-.07-.46-.07-.69,0-.69.43-1.06,1.19-1.06h5.57c0,.86-.03,1.95-.1,3.26-.03,1.32-.07,2.67-.07,4.02v8.84c0,.96,0,1.95.03,2.9,0,.96.03,2.01.07,3.13h1.88c.1.23.13.46.17.69.03.23.07.43.07.63,0,.73-.4,1.05-1.19,1.05h-7.39c-.07-.23-.13-.46-.17-.69-.03-.23-.07-.43-.07-.63,0-.73.43-1.06,1.19-1.06Z"/>
    <path class="st3" d="M140.6,87.11h1.02c.03-.79.07-1.68.1-2.67,0-.96.03-2.04.03-3.26v-11.67c0-.82-.13-1.35-.36-1.62-.26-.26-.66-.4-1.25-.4h-.5c-.07-.26-.13-.53-.17-.76-.03-.23-.03-.46-.03-.69,0-.73.4-1.06,1.15-1.06h5.57c0,.86-.03,1.95-.1,3.26-.03,1.32-.07,2.64-.07,4.02v7.45c.53-.46,1.09-.96,1.68-1.52.59-.56,1.15-1.12,1.75-1.71.56-.59,1.09-1.19,1.58-1.71h-1.52c-.07-.23-.13-.46-.17-.66-.07-.2-.07-.43-.07-.69,0-.76.4-1.15,1.19-1.15h6.79c.1.23.17.46.2.66.07.2.07.43.07.69,0,.4-.1.69-.26.86-.2.2-.5.3-.96.3h-.69c-.76.73-1.55,1.42-2.34,2.18-.82.73-1.62,1.45-2.37,2.11l3.46,5.67c.56.96.99,1.58,1.39,1.91.36.33.79.46,1.22.46h.82c.1.26.13.49.2.73,0,.23.03.43.03.63,0,.69-.4,1.06-1.19,1.06h-4.88c-.17-.3-.4-.76-.69-1.39-.33-.63-.66-1.32-1.06-2.08-.4-.76-.79-1.55-1.19-2.31-.4-.76-.76-1.39-1.09-1.95l-1.91,1.71c0,.43,0,.96.03,1.65,0,.66.03,1.32.07,1.95h1.88c.1.26.13.49.17.73.03.23.07.43.07.63,0,.69-.4,1.06-1.19,1.06h-7.39c-.07-.23-.13-.5-.17-.69-.03-.23-.03-.43-.03-.63,0-.73.4-1.09,1.15-1.09Z"/>
    <path class="st3" d="M169.46,83.58v-1.45h-2.61c-.96,0-1.68.23-2.11.66-.43.43-.66.99-.66,1.71s.2,1.32.59,1.75c.4.4.99.59,1.78.59,1.02,0,1.78-.3,2.24-.86.49-.59.76-1.38.76-2.41ZM174.37,89.18l-3.56.33c-.16-.23-.3-.53-.43-.86-.1-.33-.2-.66-.23-.92-.73.76-1.48,1.29-2.28,1.65-.82.33-1.81.49-2.97.49-1.48,0-2.7-.43-3.66-1.25s-1.42-2.11-1.42-3.79.63-3.03,1.85-3.96c1.25-.92,3.1-1.38,5.54-1.38h2.24v-.79c0-1.15-.13-2.01-.36-2.61-.2-.59-.59-1.02-1.12-1.25-.53-.23-1.22-.33-2.14-.33h-.99l-.59,2.41c-.23.1-.56.17-.89.23-.36.07-.73.1-1.09.1-.33,0-.66-.13-.99-.4-.33-.23-.59-.59-.79-.99-.2-.43-.3-.82-.3-1.29,0-.33.1-.63.3-.86.17-.23.53-.46.99-.69.69-.3,1.62-.56,2.77-.79,1.15-.2,2.41-.33,3.73-.33,2.01,0,3.5.43,4.39,1.29.89.86,1.35,2.31,1.35,4.35v7.49c0,.76.1,1.25.26,1.45.17.23.5.33.96.33h.73c.07.2.1.36.13.53s.07.4.07.63c0,.4-.1.69-.33.86-.2.2-.59.33-1.15.36Z"/>
    <path class="st3" d="M179.81,84.14v-9h-2.54c-.07-.26-.13-.49-.2-.73s-.07-.53-.07-.82c0-.86.4-1.32,1.25-1.32h1.55l1.15-4.55,1.25.07c.73.07,1.19.23,1.45.53.26.3.43.86.43,1.68v2.28h5.74c.1.26.17.49.2.73.03.23.07.49.07.82,0,.86-.43,1.32-1.25,1.32h-4.75v8.14c0,1.25.17,2.11.56,2.67.36.53.92.79,1.65.79.46,0,.89-.1,1.25-.33.4-.2.73-.53,1.02-.89.43.1.79.3,1.12.63.33.3.46.69.46,1.12,0,.66-.46,1.25-1.35,1.81-.92.53-2.14.79-3.63.79-1.88,0-3.23-.49-4.09-1.48s-1.29-2.41-1.29-4.25Z"/>
    <path class="st3" d="M192.77,87.11h.99c.07-.79.1-1.68.1-2.67.03-.96.03-2.04.03-3.26v-11.67c0-.82-.1-1.35-.36-1.62-.23-.26-.63-.4-1.22-.4h-.49c-.1-.26-.13-.53-.17-.76-.07-.23-.07-.46-.07-.69,0-.73.4-1.06,1.19-1.06h5.57c-.03.86-.07,1.95-.1,3.26-.07,1.32-.07,2.64-.07,4.02v1.45c.63-.53,1.42-.96,2.28-1.29.89-.33,1.88-.53,2.97-.53,1.68,0,2.93.43,3.82,1.29.92.82,1.35,2.31,1.35,4.39v6.83c0,.79.03,1.38.13,1.78.07.36.2.63.4.76s.46.17.79.17h.59c.07.26.13.49.17.73.03.23.07.43.07.63,0,.69-.4,1.06-1.19,1.06h-5.41c0-.56.03-1.29.07-2.14.03-.82.07-1.71.07-2.61.03-.89.07-1.71.07-2.41v-2.11c0-1.25-.1-2.31-.26-3.07-.2-.76-.49-1.32-.96-1.65-.46-.33-1.09-.5-1.91-.5-.96,0-1.71.3-2.24.86-.53.59-.79,1.62-.79,3.03v5.08c.03.96.07,2.01.1,3.1h1.85c.1.26.17.49.2.73.03.23.03.43.03.63,0,.69-.4,1.06-1.15,1.06h-7.39c-.1-.23-.13-.5-.17-.69-.07-.23-.07-.43-.07-.63,0-.73.4-1.09,1.19-1.09Z"/>
    <path class="st3" d="M213.74,87.11h.99c.07-1.09.1-2.14.1-3.1.03-.96.03-1.95.03-2.9v-4.32c0-.79-.13-1.35-.36-1.62-.23-.26-.63-.4-1.22-.4h-.5c-.1-.26-.13-.53-.16-.76-.07-.23-.07-.46-.07-.66,0-.73.4-1.09,1.19-1.09h4.45c.07.26.1.59.17.99.03.36.03.73.03,1.02.86-.73,1.75-1.29,2.7-1.71.96-.43,2.04-.66,3.3-.66,1.02,0,1.85.2,2.54.56.69.36,1.22.92,1.55,1.65.86-.73,1.71-1.29,2.57-1.65.86-.36,1.85-.56,2.94-.56,1.68,0,2.9.43,3.69,1.29.79.82,1.19,2.31,1.19,4.39v6.83c0,.79.03,1.38.1,1.78.1.36.23.63.43.76s.43.17.76.17h.63c.07.26.13.49.17.73.03.23.07.43.07.63,0,.69-.4,1.06-1.19,1.06h-5.41c.03-.56.03-1.29.07-2.14.03-.82.07-1.71.07-2.61.03-.89.03-1.71.03-2.41v-2.11c0-1.91-.17-3.26-.56-4.06-.4-.76-1.12-1.15-2.21-1.15-.86,0-1.55.3-2.04.89-.53.59-.76,1.62-.76,3.07v2.11c0,.96,0,1.95.03,2.9,0,.96.03,2.01.1,3.1h1.45c.07.26.13.49.17.73.03.23.07.43.07.63,0,.69-.4,1.06-1.19,1.06h-6.43c-.07-.23-.13-.5-.17-.69-.03-.23-.07-.43-.07-.63,0-.73.4-1.09,1.19-1.09h.43c.07-1.02.1-2.01.1-2.97.03-.92.03-1.81.03-2.7v-1.12c0-1.95-.2-3.3-.56-4.09-.4-.79-1.09-1.19-2.11-1.19-.92,0-1.62.3-2.14.89-.53.59-.76,1.62-.76,3.07v5.01c.03.96.07,2.01.1,3.1h1.19c.1.26.13.49.2.73.03.23.03.43.03.63,0,.69-.4,1.06-1.19,1.06h-6.69c-.1-.23-.13-.5-.16-.69-.07-.23-.07-.43-.07-.63,0-.73.4-1.09,1.19-1.09Z"/>
    <path class="st3" d="M252.92,83.58v-1.45h-2.57c-.99,0-1.68.23-2.14.66-.43.43-.63.99-.63,1.71s.2,1.32.59,1.75c.4.4.99.59,1.75.59,1.02,0,1.78-.3,2.28-.86.49-.59.73-1.38.73-2.41ZM257.83,89.18l-3.53.33c-.17-.23-.33-.53-.43-.86-.13-.33-.2-.66-.26-.92-.69.76-1.45,1.29-2.28,1.65-.79.33-1.78.49-2.94.49-1.48,0-2.7-.43-3.66-1.25-.96-.82-1.45-2.11-1.45-3.79s.63-3.03,1.88-3.96c1.25-.92,3.1-1.38,5.54-1.38h2.21v-.79c0-1.15-.1-2.01-.33-2.61s-.59-1.02-1.12-1.25c-.53-.23-1.25-.33-2.14-.33h-.99l-.59,2.41c-.26.1-.56.17-.92.23-.36.07-.73.1-1.06.1s-.69-.13-.99-.4c-.36-.23-.63-.59-.79-.99-.23-.43-.33-.82-.33-1.29,0-.33.1-.63.3-.86.2-.23.53-.46,1.02-.69.66-.3,1.58-.56,2.74-.79,1.15-.2,2.41-.33,3.73-.33,2.04,0,3.49.43,4.39,1.29.92.86,1.39,2.31,1.39,4.35v7.49c0,.76.07,1.25.26,1.45.17.23.5.33.96.33h.73c.07.2.1.36.13.53s.03.4.03.63c0,.4-.1.69-.3.86-.2.2-.59.33-1.19.36Z"/>
    <path class="st3" d="M262.42,87.11h.99c.07-1.09.1-2.14.1-3.1.03-.96.03-1.95.03-2.9v-4.32c0-.79-.1-1.35-.36-1.62-.23-.26-.63-.4-1.22-.4h-.5c-.07-.26-.13-.53-.16-.76-.03-.23-.07-.46-.07-.66,0-.73.4-1.09,1.19-1.09h4.45c.07.26.1.59.17.99.03.36.03.73.03,1.02.86-.73,1.75-1.29,2.7-1.71.96-.43,2.04-.66,3.3-.66,1.65,0,2.94.43,3.86,1.29.89.82,1.32,2.31,1.32,4.39v6.83c0,.79.03,1.38.13,1.78.07.36.2.63.4.76.2.13.46.17.79.17h.59c.1.26.13.49.16.73.03.23.03.43.03.63,0,.69-.36,1.06-1.15,1.06h-5.41c.03-.56.03-1.29.07-2.14.03-.82.07-1.71.1-2.61,0-.89.03-1.71.03-2.41v-2.11c0-1.25-.1-2.31-.3-3.07-.17-.76-.5-1.32-.92-1.65-.46-.33-1.09-.5-1.91-.5-.99,0-1.75.3-2.24.89-.56.59-.79,1.62-.79,3.07v5.01c.03.96.07,2.01.1,3.1h1.88c.07.26.13.49.17.73.03.23.03.43.03.63,0,.69-.36,1.06-1.15,1.06h-7.39c-.07-.23-.13-.5-.16-.69-.03-.23-.07-.43-.07-.63,0-.73.4-1.09,1.19-1.09Z"/>
    <path class="st3" d="M294.01,82.82v-7.32c-.4-.3-.89-.5-1.45-.66-.56-.16-1.15-.23-1.85-.23-1.15,0-2.04.43-2.74,1.29-.66.86-.99,2.37-.99,4.52,0,1.71.17,3.03.53,3.96.33.96.82,1.58,1.42,1.95.59.36,1.22.53,1.95.53,1.02,0,1.81-.33,2.34-.99.53-.66.79-1.65.79-3.03ZM299.22,89.51h-4.02c-.1-.23-.2-.53-.26-.86-.1-.33-.13-.66-.17-.96-.59.66-1.29,1.19-2.14,1.58-.86.4-1.85.59-3.03.59-2.28,0-4.06-.73-5.31-2.21-1.25-1.45-1.88-3.53-1.88-6.17,0-2.31.36-4.15,1.09-5.57.76-1.38,1.78-2.41,3.07-3.07,1.29-.63,2.74-.96,4.35-.96.66,0,1.25.07,1.75.17.53.1.96.2,1.35.36v-2.93c0-.82-.1-1.35-.33-1.62-.26-.26-.66-.4-1.25-.4h-1.09c-.07-.26-.13-.53-.17-.76-.03-.23-.07-.46-.07-.69,0-.73.4-1.06,1.19-1.06h6.17c0,.56-.03,1.29-.03,2.14-.03.86-.07,1.75-.1,2.64-.03.92-.03,1.75-.03,2.51v12.73c0,.89.1,1.48.26,1.75.2.26.53.36,1.02.36h.59c.1.26.17.49.2.73.03.23.03.43.03.63,0,.69-.4,1.06-1.19,1.06Z"/>
    <path class="st3" d="M304.06,84.43v-7.65c0-.79-.1-1.35-.3-1.62s-.56-.4-1.06-.4h-.49c-.07-.26-.13-.53-.17-.76-.03-.23-.03-.46-.03-.66,0-.73.4-1.09,1.15-1.09h5.21v2.14c0,.86-.03,1.71-.03,2.54s-.03,1.62-.03,2.21v3.69c0,1.52.23,2.57.66,3.13.43.59,1.12.86,2.04.86s1.65-.26,2.18-.82c.53-.56.82-1.55.82-2.97v-6.27c0-.79-.1-1.35-.3-1.62s-.56-.4-1.06-.4h-.49c-.07-.26-.13-.53-.17-.76-.03-.23-.07-.46-.07-.66,0-.36.13-.63.36-.82.26-.17.59-.26.99-.26h5.05v2.14c-.03.86-.03,1.71-.03,2.57-.03.86-.03,1.58-.03,2.21v5.87c0,.86.1,1.42.26,1.68.2.26.56.36,1.06.36h.59c.07.26.13.49.17.73.03.23.07.43.07.63,0,.69-.4,1.06-1.19,1.06h-4.06c-.1-.23-.2-.53-.26-.86-.07-.33-.13-.66-.17-.96-.69.76-1.52,1.32-2.41,1.68-.89.33-1.95.49-3.1.49-1.62,0-2.87-.43-3.79-1.29s-1.38-2.24-1.38-4.15Z"/>
    <path class="st3" d="M146.01,116.45v6.76c.4.26.86.49,1.45.66.56.17,1.19.26,1.81.26.73,0,1.35-.2,1.91-.53.56-.33,1.02-.92,1.35-1.78.33-.86.5-2.04.5-3.59,0-1.68-.17-3-.5-3.96-.33-.92-.79-1.62-1.38-1.98-.59-.4-1.29-.56-2.08-.56-.99,0-1.75.36-2.28,1.12-.53.73-.79,1.95-.79,3.59ZM145.35,125.85l-.53,1.02c-.3,0-.66,0-1.09-.07-.43-.03-.86-.07-1.29-.13-.43-.07-.79-.17-1.09-.3.07-.73.13-1.52.2-2.37s.1-1.68.13-2.51c0-.82.03-1.58.03-2.28s.03-1.22.03-1.65v-11.15c0-.82-.13-1.35-.36-1.62-.26-.26-.66-.4-1.25-.4h-.5c-.07-.3-.13-.53-.17-.76-.03-.23-.03-.46-.03-.69,0-.73.4-1.05,1.15-1.05h5.57c0,.49,0,1.05-.03,1.75,0,.69-.03,1.45-.07,2.21,0,.76-.03,1.55-.07,2.31v2.21c.5-.46,1.12-.82,1.85-1.12.73-.26,1.58-.43,2.61-.43,2.34,0,4.12.73,5.34,2.21,1.22,1.45,1.85,3.46,1.85,6.03,0,2.24-.36,4.06-1.12,5.51-.73,1.42-1.75,2.47-3,3.17-1.29.69-2.74,1.05-4.35,1.05-.79,0-1.52-.1-2.18-.3-.66-.17-1.22-.4-1.65-.66Z"/>
    <path class="st3" d="M170.02,120.51v-1.45h-2.57c-.99,0-1.68.2-2.14.66-.43.43-.63.99-.63,1.71s.2,1.32.59,1.75c.4.4.99.59,1.78.59.99,0,1.75-.3,2.24-.86.5-.59.73-1.38.73-2.41ZM174.93,126.12l-3.53.33c-.17-.23-.33-.53-.43-.86-.13-.33-.2-.66-.26-.92-.69.73-1.48,1.29-2.28,1.62-.79.36-1.78.53-2.93.53-1.48,0-2.7-.43-3.66-1.25s-1.45-2.11-1.45-3.79.63-3.03,1.88-3.96c1.25-.92,3.1-1.38,5.54-1.38h2.21v-.79c0-1.15-.1-2.01-.33-2.61-.23-.59-.59-1.02-1.12-1.25-.53-.23-1.25-.36-2.14-.36h-.99l-.59,2.41c-.26.1-.56.2-.92.26-.36.07-.73.1-1.06.1s-.69-.13-1.02-.4c-.3-.23-.56-.59-.79-.99-.2-.43-.3-.82-.3-1.29,0-.33.1-.63.3-.86s.53-.46,1.02-.69c.66-.3,1.58-.56,2.74-.79,1.15-.2,2.41-.33,3.73-.33,2.04,0,3.5.43,4.42,1.29.89.86,1.35,2.31,1.35,4.35v7.45c0,.76.07,1.29.23,1.48.2.23.49.33.99.33h.73c.07.17.1.36.13.53.03.17.03.4.03.63,0,.4-.1.69-.3.86-.23.2-.59.33-1.19.36Z"/>
    <path class="st3" d="M192.11,121.27c0,1.62-.66,2.97-1.95,3.99-1.29,1.02-3.03,1.55-5.31,1.55-1.45,0-2.67-.16-3.73-.53-1.02-.36-1.78-.79-2.31-1.32-.56-.53-.82-1.06-.82-1.58,0-.56.2-1.02.56-1.39.36-.4.79-.69,1.32-.92.59.76,1.32,1.42,2.14,2.01.82.63,1.88.92,3.17.92.86,0,1.52-.17,1.98-.5.46-.33.69-.79.69-1.35,0-.59-.23-1.09-.73-1.42-.5-.36-1.22-.66-2.21-.99l-1.81-.56c-1.52-.46-2.67-1.09-3.46-1.85s-1.19-1.81-1.19-3.1c0-1.12.26-2.08.86-2.9.56-.79,1.35-1.42,2.34-1.85,1.02-.43,2.18-.66,3.5-.66s2.47.17,3.4.5c.89.33,1.58.73,2.08,1.25.46.49.69,1.02.69,1.58,0,.53-.16.96-.56,1.25-.36.3-.86.53-1.45.69l-.59.13-.23-.36c-.46-.69-.99-1.25-1.62-1.65-.63-.4-1.35-.59-2.18-.59-.59,0-1.12.17-1.48.49-.4.33-.59.76-.59,1.29,0,.56.2.99.63,1.29.43.33,1.09.63,2.01.89l1.65.49c1.88.56,3.2,1.22,3.99,2.04.82.82,1.22,1.88,1.22,3.13Z"/>
    <path class="st3" d="M207.05,118.56h-8.21c.13,1.42.43,2.51.86,3.3.43.76.99,1.29,1.68,1.58.69.3,1.42.43,2.28.43.92,0,1.68-.2,2.34-.56.63-.36,1.25-.89,1.85-1.58.46.13.86.36,1.19.66.36.33.53.73.53,1.22,0,.53-.3,1.02-.86,1.52-.56.5-1.32.89-2.34,1.22-.99.3-2.14.46-3.46.46-2.93,0-5.08-.76-6.46-2.24-1.38-1.48-2.08-3.56-2.08-6.2,0-3.23.73-5.64,2.24-7.19,1.48-1.55,3.43-2.34,5.87-2.34,1.65,0,3,.3,4.06.89s1.85,1.42,2.37,2.47c.53,1.02.76,2.21.76,3.56,0,.82-.07,1.42-.26,1.85-.17.4-.43.66-.82.79-.36.1-.89.16-1.52.16ZM198.84,115.93h6.46v-.26c0-1.29-.26-2.31-.82-3.03-.53-.73-1.32-1.09-2.31-1.09s-1.71.33-2.28,1.02c-.59.73-.96,1.81-1.06,3.36Z"/>
    <path class="st3" d="M231.88,114.67l-.3-.49c-.43-.73-.89-1.35-1.45-1.78-.53-.46-1.19-.66-1.95-.66-.66,0-1.22.16-1.75.49-.53.33-.92.89-1.25,1.65-.3.79-.46,1.85-.46,3.2,0,1.75.23,3.13.63,4.09.4.96.92,1.62,1.58,2.01.66.36,1.35.56,2.08.56.82,0,1.55-.17,2.18-.56.63-.36,1.22-.92,1.78-1.68.49.13.92.36,1.29.69.33.33.53.76.53,1.25s-.26.99-.76,1.52c-.5.53-1.19.96-2.11,1.32s-2.04.53-3.36.53c-2.74,0-4.81-.69-6.27-2.11-1.42-1.42-2.14-3.59-2.14-6.46,0-2.11.36-3.83,1.06-5.21.73-1.38,1.71-2.44,3-3.13,1.29-.69,2.74-1.06,4.42-1.06,1.42,0,2.57.2,3.5.59.89.4,1.58.89,2.01,1.45.43.59.66,1.15.66,1.71,0,.99-.76,1.62-2.24,1.95l-.66.13Z"/>
    <path class="st3" d="M246.75,120.51v-1.45h-2.57c-.99,0-1.68.2-2.14.66-.43.43-.63.99-.63,1.71s.2,1.32.59,1.75c.4.4.99.59,1.78.59.99,0,1.75-.3,2.24-.86.49-.59.73-1.38.73-2.41ZM251.67,126.12l-3.53.33c-.17-.23-.33-.53-.43-.86-.13-.33-.2-.66-.26-.92-.69.73-1.48,1.29-2.28,1.62-.79.36-1.78.53-2.93.53-1.48,0-2.7-.43-3.66-1.25s-1.45-2.11-1.45-3.79.63-3.03,1.88-3.96c1.25-.92,3.1-1.38,5.54-1.38h2.21v-.79c0-1.15-.1-2.01-.33-2.61-.23-.59-.59-1.02-1.12-1.25-.53-.23-1.25-.36-2.14-.36h-.99l-.59,2.41c-.26.1-.56.2-.92.26-.36.07-.73.1-1.06.1s-.69-.13-1.02-.4c-.3-.23-.56-.59-.79-.99-.2-.43-.3-.82-.3-1.29,0-.33.1-.63.3-.86s.53-.46,1.02-.69c.66-.3,1.58-.56,2.74-.79,1.15-.2,2.41-.33,3.73-.33,2.04,0,3.5.43,4.42,1.29.89.86,1.35,2.31,1.35,4.35v7.45c0,.76.07,1.29.26,1.48.16.23.46.33.96.33h.73c.07.17.1.36.13.53.03.17.03.4.03.63,0,.4-.1.69-.3.86-.23.2-.59.33-1.19.36Z"/>
    <path class="st3" d="M256.25,124.04h.99c.07-1.09.1-2.14.1-3.1.03-.99.03-1.95.03-2.93v-4.29c0-.82-.1-1.35-.36-1.62-.23-.26-.63-.4-1.22-.4h-.49c-.1-.26-.13-.53-.17-.76-.07-.23-.07-.46-.07-.69,0-.69.4-1.05,1.19-1.05h4.45c.07.26.1.59.13.99.07.36.07.69.07,1.02.86-.73,1.75-1.32,2.7-1.71.96-.43,2.04-.66,3.3-.66,1.02,0,1.85.2,2.54.56.69.36,1.22.92,1.55,1.65.86-.73,1.71-1.29,2.57-1.65.86-.36,1.85-.56,2.93-.56,1.68,0,2.9.43,3.69,1.29.79.82,1.19,2.31,1.19,4.39v6.83c0,.79.03,1.35.13,1.75.07.4.2.66.4.79.16.13.43.17.79.17h.59c.1.26.17.49.17.73.03.23.07.43.07.63,0,.69-.4,1.06-1.19,1.06h-5.41c.03-.59.03-1.29.07-2.14.03-.82.07-1.71.07-2.6.03-.89.07-1.71.07-2.41v-2.11c0-1.91-.2-3.26-.59-4.06-.4-.76-1.12-1.15-2.21-1.15-.86,0-1.55.3-2.04.89-.53.59-.76,1.62-.76,3.07v2.08c0,.99,0,1.95.03,2.93,0,.96.03,2.01.07,3.1h1.48c.07.26.13.49.17.73s.07.43.07.63c0,.69-.4,1.06-1.19,1.06h-6.43c-.07-.26-.13-.5-.17-.69-.03-.23-.07-.43-.07-.63,0-.73.4-1.09,1.19-1.09h.43c.07-1.02.1-2.01.13-2.97v-3.86c0-1.91-.16-3.26-.56-4.06-.4-.79-1.09-1.19-2.11-1.19-.89,0-1.62.3-2.14.89-.53.59-.76,1.62-.76,3.07v5.01c.03.96.07,2.01.1,3.1h1.22c.07.26.13.49.13.73.07.23.07.43.07.63,0,.69-.4,1.06-1.15,1.06h-6.73c-.1-.26-.13-.5-.17-.69-.07-.23-.07-.43-.07-.63,0-.73.4-1.09,1.19-1.09Z"/>
    <path class="st3" d="M291.67,116.45v6.76c.4.26.89.49,1.45.66s1.19.26,1.81.26c.73,0,1.35-.2,1.91-.53.56-.33,1.02-.92,1.35-1.78.33-.86.49-2.04.49-3.59,0-1.68-.17-3-.49-3.96-.33-.92-.79-1.62-1.39-1.98-.59-.4-1.29-.56-2.04-.56-1.02,0-1.78.36-2.31,1.12-.53.73-.79,1.95-.79,3.59ZM286.29,131.62h.99c.03-.92.07-1.81.1-2.7,0-.86.03-1.68.03-2.44v-12.76c0-.82-.13-1.35-.36-1.62-.23-.26-.66-.4-1.25-.4h-.46c-.1-.26-.16-.53-.2-.76-.03-.23-.03-.46-.03-.69,0-.69.4-1.05,1.19-1.05h4.39c.1.26.13.59.17.92.03.3.07.63.1.89.63-.69,1.38-1.22,2.24-1.62.86-.36,1.81-.56,2.93-.56,1.55,0,2.87.33,3.92.99,1.09.66,1.88,1.58,2.44,2.8.53,1.25.82,2.74.82,4.45,0,2.24-.36,4.06-1.12,5.51-.73,1.42-1.75,2.47-3,3.17-1.29.69-2.74,1.05-4.35,1.05-.73,0-1.35-.07-1.85-.2-.46-.13-.92-.26-1.32-.43v.99c0,.46,0,1.09.03,1.91,0,.86.03,1.71.1,2.54h2.47c.07.26.1.49.16.73.03.23.03.43.03.63,0,.69-.4,1.06-1.15,1.06h-7.98c-.1-.26-.16-.5-.2-.69-.03-.23-.03-.43-.03-.63,0-.73.4-1.09,1.19-1.09Z"/>
  </g>
</svg>