<?xml version="1.0" encoding="UTF-8" standalone="no"?>
<!DOCTYPE svg PUBLIC "-//W3C//DTD SVG 1.1//EN" "http://www.w3.org/Graphics/SVG/1.1/DTD/svg11.dtd">
<svg width="100%" height="100%" viewBox="0 0 1080 1080" version="1.1" xmlns="http://www.w3.org/2000/svg" xmlns:xlink="http://www.w3.org/1999/xlink" xml:space="preserve" xmlns:serif="http://www.serif.com/" style="fill-rule:evenodd;clip-rule:evenodd;stroke-linejoin:round;stroke-miterlimit:2;">
    <g id="honza_trava_logo_V1" transform="matrix(1.00089,0,0,1.00089,-12297.1,-760.837)">
        <rect x="12286.1" y="760.158" width="1079.04" height="1079.04" style="fill:none;"/>
        <g transform="matrix(2.50653,0,0,1.6298,4367.88,-8055.99)">
            <path d="M3326.2,5801.94L3262.24,5801.16L3317.1,5733.76L3262.24,5733.09L3339.33,5638.39L3339.37,5734.03L3339.34,5734.03L3339.37,5802.11L3339.36,5802.11L3339.36,5842.37L3326.2,5842.37L3326.2,5801.94Z"/>
        </g>
        <g transform="matrix(0.890626,0,0,0.579102,9730.99,-2064.17)">
            <path d="M3339.33,5638.39L3262.24,5733.09L3339.37,5734.03L3339.33,5638.39" style="fill:rgb(255,38,0);"/>
        </g>
        <g transform="matrix(0.890626,0,0,0.579102,9730.99,-1952.69)">
            <path d="M3339.33,5638.39L3262.24,5733.09L3339.37,5734.03L3339.33,5638.39" style="fill:rgb(0,150,255);"/>
        </g>
        <g transform="matrix(9.1883,0,0,9.46869,-9355.14,-28199.3)">
            <path d="M2413.44,3113.84L2413.78,3113.84C2413.8,3113.56 2413.81,3113.26 2413.82,3112.93C2413.82,3112.6 2413.83,3112.23 2413.83,3111.81L2413.83,3107.84C2413.83,3107.56 2413.78,3107.38 2413.7,3107.29C2413.62,3107.2 2413.48,3107.15 2413.28,3107.15L2413.12,3107.15C2413.09,3107.06 2413.07,3106.98 2413.06,3106.9C2413.04,3106.82 2413.04,3106.74 2413.04,3106.66C2413.04,3106.42 2413.17,3106.3 2413.44,3106.3L2415.33,3106.3C2415.33,3106.6 2415.32,3106.97 2415.3,3107.42C2415.28,3107.86 2415.28,3108.32 2415.28,3108.78L2415.28,3109.28C2415.5,3109.1 2415.76,3108.95 2416.06,3108.84C2416.36,3108.72 2416.69,3108.67 2417.06,3108.67C2417.63,3108.67 2418.07,3108.81 2418.37,3109.1C2418.68,3109.38 2418.83,3109.88 2418.83,3110.59L2418.83,3112.91C2418.83,3113.18 2418.84,3113.38 2418.87,3113.51C2418.89,3113.65 2418.94,3113.73 2419.01,3113.78C2419.07,3113.82 2419.16,3113.84 2419.27,3113.84L2419.48,3113.84C2419.5,3113.92 2419.52,3114 2419.53,3114.08C2419.54,3114.16 2419.55,3114.23 2419.55,3114.29C2419.55,3114.53 2419.42,3114.65 2419.15,3114.65L2417.31,3114.65C2417.32,3114.45 2417.32,3114.21 2417.33,3113.93C2417.34,3113.64 2417.35,3113.34 2417.36,3113.04C2417.37,3112.73 2417.38,3112.46 2417.38,3112.22L2417.38,3111.5C2417.38,3111.07 2417.35,3110.72 2417.28,3110.46C2417.22,3110.2 2417.12,3110.01 2416.96,3109.9C2416.81,3109.78 2416.59,3109.73 2416.31,3109.73C2415.98,3109.73 2415.73,3109.83 2415.55,3110.02C2415.37,3110.22 2415.28,3110.56 2415.28,3111.05L2415.28,3111.79C2415.28,3112.12 2415.28,3112.45 2415.28,3112.78C2415.29,3113.11 2415.3,3113.46 2415.31,3113.84L2415.95,3113.84C2415.97,3113.92 2416,3114 2416.01,3114.08C2416.02,3114.16 2416.03,3114.23 2416.03,3114.29C2416.03,3114.53 2415.89,3114.65 2415.63,3114.65L2413.12,3114.65C2413.09,3114.57 2413.07,3114.49 2413.06,3114.41C2413.04,3114.34 2413.04,3114.27 2413.04,3114.2C2413.04,3113.96 2413.17,3113.84 2413.44,3113.84Z" style="fill-rule:nonzero;"/>
            <path d="M2421.8,3111.54C2421.8,3112.4 2421.91,3113 2422.13,3113.35C2422.35,3113.69 2422.65,3113.86 2423.05,3113.86C2423.27,3113.86 2423.46,3113.8 2423.63,3113.68C2423.81,3113.55 2423.95,3113.35 2424.05,3113.06C2424.15,3112.77 2424.21,3112.39 2424.21,3111.9C2424.21,3111.04 2424.1,3110.43 2423.88,3110.09C2423.67,3109.75 2423.36,3109.58 2422.95,3109.58C2422.74,3109.58 2422.55,3109.64 2422.38,3109.76C2422.2,3109.89 2422.06,3110.09 2421.96,3110.38C2421.85,3110.66 2421.8,3111.05 2421.8,3111.54ZM2420.23,3111.91C2420.23,3111.2 2420.35,3110.61 2420.59,3110.13C2420.82,3109.65 2421.16,3109.28 2421.59,3109.04C2422.02,3108.79 2422.52,3108.67 2423.1,3108.67C2424,3108.67 2424.67,3108.92 2425.11,3109.43C2425.55,3109.94 2425.77,3110.64 2425.77,3111.53C2425.77,3112.24 2425.65,3112.83 2425.42,3113.31C2425.18,3113.79 2424.85,3114.16 2424.43,3114.4C2424,3114.65 2423.49,3114.77 2422.91,3114.77C2422.01,3114.77 2421.34,3114.52 2420.89,3114.01C2420.45,3113.5 2420.23,3112.8 2420.23,3111.91Z" style="fill-rule:nonzero;"/>
            <path d="M2426.95,3113.84L2427.29,3113.84C2427.31,3113.46 2427.32,3113.11 2427.33,3112.78C2427.33,3112.45 2427.34,3112.12 2427.34,3111.79L2427.34,3110.33C2427.34,3110.05 2427.3,3109.86 2427.22,3109.77C2427.14,3109.68 2426.99,3109.64 2426.79,3109.64L2426.63,3109.64C2426.6,3109.55 2426.58,3109.46 2426.57,3109.38C2426.55,3109.3 2426.55,3109.22 2426.55,3109.15C2426.55,3108.91 2426.68,3108.79 2426.95,3108.79L2428.47,3108.79C2428.49,3108.88 2428.51,3108.99 2428.52,3109.12C2428.53,3109.24 2428.54,3109.36 2428.54,3109.47C2428.82,3109.22 2429.13,3109.03 2429.45,3108.88C2429.78,3108.74 2430.15,3108.67 2430.57,3108.67C2431.14,3108.67 2431.58,3108.81 2431.88,3109.1C2432.19,3109.38 2432.34,3109.88 2432.34,3110.59L2432.34,3112.91C2432.34,3113.18 2432.35,3113.38 2432.38,3113.51C2432.41,3113.65 2432.45,3113.73 2432.51,3113.78C2432.58,3113.82 2432.67,3113.84 2432.78,3113.84L2432.99,3113.84C2433.01,3113.92 2433.03,3114 2433.05,3114.08C2433.05,3114.16 2433.06,3114.23 2433.06,3114.29C2433.06,3114.53 2432.93,3114.65 2432.66,3114.65L2430.82,3114.65C2430.83,3114.45 2430.84,3114.21 2430.85,3113.93C2430.86,3113.64 2430.87,3113.34 2430.87,3113.04C2430.88,3112.73 2430.89,3112.46 2430.89,3112.22L2430.89,3111.5C2430.89,3111.07 2430.86,3110.72 2430.79,3110.46C2430.73,3110.2 2430.62,3110.01 2430.47,3109.9C2430.32,3109.78 2430.1,3109.73 2429.82,3109.73C2429.49,3109.73 2429.23,3109.83 2429.05,3110.03C2428.88,3110.23 2428.79,3110.58 2428.79,3111.08L2428.79,3111.79C2428.79,3112.12 2428.79,3112.45 2428.8,3112.78C2428.8,3113.11 2428.81,3113.46 2428.82,3113.84L2429.46,3113.84C2429.49,3113.92 2429.51,3114 2429.52,3114.08C2429.53,3114.16 2429.54,3114.23 2429.54,3114.29C2429.54,3114.53 2429.4,3114.65 2429.14,3114.65L2426.63,3114.65C2426.6,3114.57 2426.58,3114.49 2426.57,3114.41C2426.55,3114.34 2426.55,3114.27 2426.55,3114.2C2426.55,3113.96 2426.68,3113.84 2426.95,3113.84Z" style="fill-rule:nonzero;"/>
            <path d="M2433.6,3114.65L2433.6,3114.37C2433.6,3114.15 2433.64,3113.95 2433.71,3113.76C2433.78,3113.58 2433.9,3113.38 2434.09,3113.16L2436.18,3110.58C2436.34,3110.38 2436.46,3110.23 2436.53,3110.12C2436.6,3110.01 2436.64,3109.89 2436.65,3109.76L2435.04,3109.76L2434.89,3110.2C2434.79,3110.25 2434.67,3110.28 2434.52,3110.31C2434.37,3110.34 2434.23,3110.36 2434.1,3110.36C2434.01,3110.36 2433.93,3110.29 2433.84,3110.17C2433.75,3110.04 2433.67,3109.89 2433.61,3109.72C2433.55,3109.55 2433.52,3109.39 2433.52,3109.24C2433.52,3109.08 2433.55,3108.96 2433.63,3108.89C2433.7,3108.82 2433.84,3108.79 2434.05,3108.79L2438.32,3108.79L2438.32,3109.14C2438.32,3109.46 2438.28,3109.72 2438.21,3109.92C2438.13,3110.12 2438,3110.34 2437.81,3110.58L2435.82,3113.01C2435.71,3113.13 2435.62,3113.24 2435.55,3113.35C2435.48,3113.45 2435.43,3113.56 2435.41,3113.68L2436.39,3113.68C2436.76,3113.68 2437.11,3113.66 2437.42,3113.6C2437.74,3113.54 2438,3113.47 2438.2,3113.4C2438.26,3113.51 2438.31,3113.63 2438.35,3113.76C2438.39,3113.89 2438.41,3114.03 2438.41,3114.18C2438.41,3114.34 2438.37,3114.46 2438.28,3114.54C2438.19,3114.62 2438.02,3114.65 2437.76,3114.65L2433.6,3114.65Z" style="fill-rule:nonzero;"/>
            <path d="M2442.41,3112.63L2442.41,3112.14L2441.54,3112.14C2441.2,3112.14 2440.96,3112.21 2440.81,3112.36C2440.66,3112.51 2440.59,3112.7 2440.59,3112.94C2440.59,3113.2 2440.66,3113.39 2440.8,3113.53C2440.93,3113.68 2441.13,3113.74 2441.4,3113.74C2441.74,3113.74 2442,3113.65 2442.16,3113.45C2442.33,3113.25 2442.41,3112.98 2442.41,3112.63ZM2444.09,3114.54L2442.88,3114.65C2442.82,3114.57 2442.78,3114.48 2442.74,3114.36C2442.7,3114.24 2442.67,3114.14 2442.65,3114.04C2442.41,3114.3 2442.15,3114.48 2441.88,3114.6C2441.6,3114.72 2441.27,3114.77 2440.88,3114.77C2440.37,3114.77 2439.95,3114.63 2439.63,3114.35C2439.3,3114.06 2439.14,3113.63 2439.14,3113.06C2439.14,3112.48 2439.35,3112.03 2439.78,3111.71C2440.2,3111.39 2440.83,3111.24 2441.66,3111.24L2442.41,3111.24L2442.41,3110.97C2442.41,3110.58 2442.38,3110.29 2442.3,3110.09C2442.22,3109.88 2442.1,3109.74 2441.92,3109.66C2441.74,3109.58 2441.49,3109.54 2441.19,3109.54L2440.85,3109.54L2440.65,3110.36C2440.57,3110.39 2440.46,3110.42 2440.34,3110.45C2440.22,3110.47 2440.1,3110.48 2439.98,3110.48C2439.86,3110.48 2439.75,3110.44 2439.64,3110.35C2439.52,3110.26 2439.43,3110.15 2439.37,3110.01C2439.3,3109.87 2439.26,3109.72 2439.26,3109.57C2439.26,3109.45 2439.3,3109.36 2439.36,3109.28C2439.43,3109.2 2439.54,3109.12 2439.71,3109.04C2439.94,3108.94 2440.25,3108.85 2440.64,3108.78C2441.04,3108.7 2441.46,3108.67 2441.91,3108.67C2442.6,3108.67 2443.1,3108.81 2443.41,3109.1C2443.71,3109.39 2443.87,3109.89 2443.87,3110.58L2443.87,3113.12C2443.87,3113.38 2443.9,3113.55 2443.95,3113.62C2444.01,3113.7 2444.12,3113.74 2444.29,3113.74L2444.53,3113.74C2444.55,3113.79 2444.56,3113.85 2444.58,3113.91C2444.59,3113.97 2444.59,3114.04 2444.59,3114.12C2444.59,3114.26 2444.56,3114.36 2444.49,3114.42C2444.41,3114.49 2444.28,3114.53 2444.09,3114.54Z" style="fill-rule:nonzero;"/>
            <path d="M2413.77,3123.7L2413.77,3120.62L2412.91,3120.62C2412.88,3120.54 2412.86,3120.46 2412.84,3120.38C2412.82,3120.3 2412.82,3120.21 2412.82,3120.1C2412.82,3119.8 2412.96,3119.65 2413.24,3119.65L2413.77,3119.65L2414.16,3118.1L2414.59,3118.13C2414.83,3118.14 2415,3118.2 2415.09,3118.3C2415.18,3118.41 2415.22,3118.6 2415.22,3118.88L2415.22,3119.65L2417.18,3119.65C2417.21,3119.74 2417.24,3119.82 2417.25,3119.89C2417.27,3119.97 2417.27,3120.07 2417.27,3120.18C2417.27,3120.47 2417.13,3120.62 2416.85,3120.62L2415.22,3120.62L2415.22,3123.4C2415.22,3123.82 2415.29,3124.12 2415.42,3124.3C2415.55,3124.49 2415.73,3124.58 2415.98,3124.58C2416.14,3124.58 2416.28,3124.54 2416.41,3124.47C2416.54,3124.39 2416.66,3124.29 2416.75,3124.16C2416.9,3124.19 2417.03,3124.26 2417.14,3124.37C2417.25,3124.48 2417.3,3124.61 2417.3,3124.76C2417.3,3124.98 2417.14,3125.18 2416.83,3125.37C2416.52,3125.55 2416.11,3125.64 2415.6,3125.64C2414.96,3125.64 2414.5,3125.47 2414.21,3125.14C2413.92,3124.8 2413.77,3124.32 2413.77,3123.7Z" style="fill-rule:nonzero;"/>
            <path d="M2418.22,3124.71L2418.55,3124.71C2418.57,3124.33 2418.58,3123.97 2418.59,3123.64C2418.59,3123.32 2418.6,3122.99 2418.6,3122.65L2418.6,3121.19C2418.6,3120.91 2418.56,3120.73 2418.48,3120.64C2418.4,3120.55 2418.26,3120.51 2418.05,3120.51L2417.89,3120.51C2417.86,3120.42 2417.84,3120.33 2417.83,3120.25C2417.82,3120.17 2417.81,3120.09 2417.81,3120.02C2417.81,3119.78 2417.95,3119.65 2418.22,3119.65L2419.73,3119.65C2419.75,3119.75 2419.77,3119.87 2419.78,3120.02C2419.79,3120.18 2419.8,3120.34 2419.8,3120.51C2420.1,3120.2 2420.43,3119.96 2420.78,3119.79C2421.14,3119.62 2421.49,3119.53 2421.86,3119.53C2422.09,3119.53 2422.26,3119.58 2422.36,3119.66C2422.46,3119.75 2422.51,3119.91 2422.51,3120.13C2422.51,3120.33 2422.48,3120.52 2422.42,3120.68C2422.35,3120.85 2422.28,3120.96 2422.21,3121.02C2422.1,3121.12 2421.96,3121.18 2421.79,3121.21C2421.62,3121.24 2421.43,3121.26 2421.23,3121.26L2421.02,3120.65C2420.69,3120.79 2420.45,3120.98 2420.29,3121.22C2420.13,3121.45 2420.05,3121.78 2420.05,3122.22L2420.05,3122.65C2420.05,3122.99 2420.05,3123.32 2420.06,3123.64C2420.07,3123.97 2420.07,3124.33 2420.09,3124.71L2420.93,3124.71C2420.95,3124.79 2420.97,3124.87 2420.98,3124.95C2421,3125.02 2421,3125.09 2421,3125.16C2421,3125.4 2420.87,3125.52 2420.6,3125.52L2417.89,3125.52C2417.86,3125.43 2417.84,3125.36 2417.83,3125.28C2417.82,3125.2 2417.81,3125.14 2417.81,3125.07C2417.81,3124.83 2417.95,3124.71 2418.22,3124.71Z" style="fill-rule:nonzero;"/>
            <path d="M2426.5,3123.49L2426.5,3123L2425.62,3123C2425.29,3123 2425.04,3123.08 2424.9,3123.22C2424.75,3123.37 2424.67,3123.57 2424.67,3123.81C2424.67,3124.06 2424.74,3124.26 2424.88,3124.4C2425.01,3124.54 2425.21,3124.61 2425.48,3124.61C2425.82,3124.61 2426.08,3124.51 2426.25,3124.32C2426.41,3124.12 2426.5,3123.85 2426.5,3123.49ZM2428.17,3125.41L2426.97,3125.52C2426.91,3125.44 2426.86,3125.34 2426.82,3125.23C2426.78,3125.11 2426.75,3125.01 2426.74,3124.91C2426.49,3125.17 2426.23,3125.35 2425.96,3125.47C2425.69,3125.58 2425.35,3125.64 2424.96,3125.64C2424.46,3125.64 2424.04,3125.5 2423.71,3125.22C2423.39,3124.93 2423.22,3124.5 2423.22,3123.93C2423.22,3123.35 2423.43,3122.9 2423.86,3122.58C2424.28,3122.26 2424.91,3122.1 2425.74,3122.1L2426.5,3122.1L2426.5,3121.84C2426.5,3121.45 2426.46,3121.16 2426.38,3120.96C2426.31,3120.75 2426.18,3120.61 2426,3120.53C2425.82,3120.45 2425.58,3120.41 2425.27,3120.41L2424.94,3120.41L2424.73,3121.23C2424.65,3121.26 2424.54,3121.29 2424.42,3121.31C2424.3,3121.33 2424.18,3121.35 2424.06,3121.35C2423.94,3121.35 2423.83,3121.3 2423.71,3121.21C2423.6,3121.13 2423.51,3121.01 2423.44,3120.87C2423.38,3120.73 2423.34,3120.59 2423.34,3120.45C2423.34,3120.33 2423.38,3120.23 2423.44,3120.15C2423.51,3120.07 2423.63,3119.99 2423.79,3119.91C2424.02,3119.8 2424.33,3119.71 2424.73,3119.64C2425.12,3119.57 2425.55,3119.53 2425.99,3119.53C2426.68,3119.53 2427.18,3119.68 2427.49,3119.97C2427.8,3120.26 2427.95,3120.76 2427.95,3121.45L2427.95,3123.99C2427.95,3124.25 2427.98,3124.42 2428.04,3124.5C2428.1,3124.57 2428.21,3124.61 2428.37,3124.61L2428.62,3124.61C2428.64,3124.67 2428.65,3124.72 2428.66,3124.78C2428.68,3124.84 2428.68,3124.91 2428.68,3124.98C2428.68,3125.13 2428.65,3125.23 2428.57,3125.29C2428.5,3125.36 2428.37,3125.4 2428.17,3125.41ZM2425.19,3118.73L2426.52,3116.79L2426.75,3116.91C2426.96,3117 2427.11,3117.1 2427.21,3117.21C2427.31,3117.31 2427.36,3117.43 2427.36,3117.57C2427.36,3117.7 2427.32,3117.83 2427.23,3117.94C2427.14,3118.05 2427.01,3118.17 2426.82,3118.31L2425.69,3119.19L2425.19,3118.73Z" style="fill-rule:nonzero;"/>
            <path d="M2431.05,3125.52L2429.73,3121.21C2429.65,3120.93 2429.57,3120.74 2429.48,3120.65C2429.39,3120.55 2429.24,3120.51 2429.03,3120.51L2428.87,3120.51C2428.84,3120.42 2428.82,3120.33 2428.81,3120.25C2428.8,3120.17 2428.79,3120.09 2428.79,3120.02C2428.79,3119.9 2428.82,3119.81 2428.89,3119.75C2428.95,3119.68 2429.05,3119.65 2429.19,3119.65L2430.92,3119.65L2431.07,3120.45C2431.11,3120.66 2431.17,3120.94 2431.25,3121.26C2431.33,3121.59 2431.43,3121.95 2431.53,3122.32C2431.64,3122.7 2431.74,3123.07 2431.86,3123.44C2431.97,3123.8 2432.08,3124.12 2432.18,3124.41C2432.29,3124.07 2432.4,3123.72 2432.51,3123.36C2432.62,3123 2432.72,3122.65 2432.81,3122.31C2432.91,3121.96 2433,3121.64 2433.07,3121.33C2433.15,3121.02 2433.22,3120.74 2433.27,3120.51L2432.72,3120.51C2432.69,3120.43 2432.67,3120.35 2432.65,3120.28C2432.64,3120.21 2432.63,3120.13 2432.63,3120.04C2432.63,3119.78 2432.77,3119.65 2433.04,3119.65L2435.26,3119.65C2435.29,3119.73 2435.31,3119.81 2435.33,3119.88C2435.34,3119.95 2435.35,3120.03 2435.35,3120.12C2435.35,3120.24 2435.32,3120.34 2435.26,3120.41C2435.19,3120.47 2435.09,3120.51 2434.94,3120.51L2434.61,3120.51C2434.38,3121.19 2434.15,3121.88 2433.92,3122.57C2433.7,3123.25 2433.47,3123.94 2433.25,3124.63C2433.2,3124.8 2433.14,3124.95 2433.07,3125.09C2433,3125.22 2432.9,3125.33 2432.75,3125.41C2432.61,3125.48 2432.4,3125.52 2432.13,3125.52L2431.05,3125.52Z" style="fill-rule:nonzero;"/>
            <path d="M2439.19,3123.5L2439.19,3123.01L2438.32,3123.01C2437.98,3123.01 2437.74,3123.08 2437.59,3123.23C2437.44,3123.37 2437.37,3123.57 2437.37,3123.81C2437.37,3124.07 2437.44,3124.26 2437.57,3124.4C2437.71,3124.54 2437.91,3124.61 2438.18,3124.61C2438.52,3124.61 2438.78,3124.51 2438.94,3124.32C2439.11,3124.12 2439.19,3123.85 2439.19,3123.5ZM2440.87,3125.41L2439.66,3125.52C2439.6,3125.44 2439.55,3125.34 2439.51,3125.23C2439.47,3125.11 2439.45,3125.01 2439.43,3124.91C2439.19,3125.17 2438.93,3125.35 2438.65,3125.47C2438.38,3125.58 2438.05,3125.64 2437.66,3125.64C2437.15,3125.64 2436.73,3125.5 2436.41,3125.22C2436.08,3124.93 2435.92,3124.5 2435.92,3123.93C2435.92,3123.35 2436.13,3122.9 2436.55,3122.58C2436.98,3122.26 2437.61,3122.1 2438.44,3122.1L2439.19,3122.1L2439.19,3121.84C2439.19,3121.45 2439.16,3121.16 2439.08,3120.95C2439,3120.75 2438.88,3120.61 2438.7,3120.53C2438.52,3120.45 2438.27,3120.41 2437.97,3120.41L2437.63,3120.41L2437.43,3121.23C2437.34,3121.26 2437.24,3121.29 2437.12,3121.31C2436.99,3121.34 2436.87,3121.35 2436.76,3121.35C2436.64,3121.35 2436.53,3121.31 2436.41,3121.22C2436.3,3121.13 2436.21,3121.01 2436.14,3120.87C2436.08,3120.73 2436.04,3120.59 2436.04,3120.44C2436.04,3120.32 2436.08,3120.22 2436.14,3120.14C2436.21,3120.06 2436.32,3119.99 2436.49,3119.91C2436.72,3119.81 2437.03,3119.72 2437.42,3119.64C2437.82,3119.57 2438.24,3119.53 2438.69,3119.53C2439.38,3119.53 2439.88,3119.68 2440.18,3119.97C2440.49,3120.26 2440.65,3120.75 2440.65,3121.45L2440.65,3123.99C2440.65,3124.25 2440.68,3124.41 2440.73,3124.49C2440.79,3124.57 2440.9,3124.61 2441.07,3124.61L2441.31,3124.61C2441.33,3124.66 2441.34,3124.72 2441.36,3124.78C2441.37,3124.84 2441.37,3124.91 2441.37,3124.99C2441.37,3125.12 2441.34,3125.22 2441.26,3125.29C2441.19,3125.35 2441.06,3125.39 2440.87,3125.41Z" style="fill-rule:nonzero;"/>
        </g>
    </g>
</svg>
