<svg xmlns="http://www.w3.org/2000/svg" xmlns:xlink="http://www.w3.org/1999/xlink" width="236.426" height="33.268" viewBox="0 0 236.426 33.268">
  <defs>
    <clipPath id="clip-path">
      <rect id="Rectangle_3951" data-name="Rectangle 3951" width="236.426" height="33.268" fill="none"/>
    </clipPath>
  </defs>
  <g id="Group_3433" data-name="Group 3433" transform="translate(0 0)">
    <g id="Group_3432" data-name="Group 3432" transform="translate(0 0)" clip-path="url(#clip-path)">
      <path id="Path_3129" data-name="Path 3129" d="M72.176,49.236a.1.1,0,0,1,.005.01Z" transform="translate(-38.907 -26.541)" fill="#fff"/>
      <path id="Path_3130" data-name="Path 3130" d="M72.176,49.236a.1.1,0,0,1,.005.01Z" transform="translate(-38.907 -26.541)" fill="#f27b1c"/>
      <rect id="Rectangle_3949" data-name="Rectangle 3949" width="33.269" height="33.267" transform="translate(0 0.001)" fill="#fff"/>
      <path id="Path_3131" data-name="Path 3131" d="M99.954,3.515c1.4,0,2.125.268,2.125,1.537V7.265c0,1.267-.724,1.537-2.125,1.537H89.329V3.515ZM84.717,19.338h4.612V12.1h4.386l8,7.235h6.689L99.321,12.1h2.624c3.074,0,4.475-1.039,4.475-3.659V3.922c0-2.667-1.4-3.709-4.475-3.709H84.717V19.338" transform="translate(-45.667 -0.115)" fill="#161615"/>
      <path id="Path_3132" data-name="Path 3132" d="M144.776,11h12.471v9.655H144.776Zm-3.765.806v8.154c0,2.924.95,3.656,4.023,3.656h11.957c3.036,0,4.023-.732,4.023-3.656V11.8c0-2.963-.987-3.659-4.023-3.659H145.034c-3.036,0-4.023.7-4.023,3.659" transform="translate(-76.012 -4.391)" fill="#161615"/>
      <path id="Path_3133" data-name="Path 3133" d="M197.53,11v9.655H207.7V17.361l3.8.767v1.829c0,2.888-.987,3.657-4.059,3.657h-9.653c-3.108,0-4.024-.805-4.024-3.657V11.8c0-2.891.951-3.659,4.024-3.659h9.653c3.071,0,4.059.733,4.059,3.659v1.5l-3.8.548V11Z" transform="translate(-104.449 -4.391)" fill="#161615"/>
      <path id="Path_3134" data-name="Path 3134" d="M241.677,8.146h3.8V14.4l9.032-6.252h5.45l-10.679,7.166,11.885,8.3h-5.96l-9.727-6.987v6.987h-3.8Z" transform="translate(-130.277 -4.391)" fill="#161615"/>
      <path id="Path_3135" data-name="Path 3135" d="M312.582,3.515c1.4,0,2.123.268,2.123,1.537V7.04c0,1.268-.723,1.539-2.123,1.539H301.954V3.515ZM297.344,19.338h4.61v-7.46H314.57c3.075,0,4.475-1.039,4.475-3.707V3.922c0-2.713-1.4-3.709-4.475-3.709H297.344V19.338" transform="translate(-160.284 -0.115)" fill="#161615"/>
      <path id="Path_3136" data-name="Path 3136" d="M355.249,11h12.468v9.655H355.249Zm-3.766.806v8.154c0,2.924.949,3.656,4.021,3.656h11.957c3.036,0,4.022-.732,4.022-3.656V11.8c0-2.963-.986-3.659-4.022-3.659H355.5c-3.034,0-4.021.7-4.021,3.659" transform="translate(-189.468 -4.391)" fill="#161615"/>
      <rect id="Rectangle_3950" data-name="Rectangle 3950" width="3.768" height="15.468" transform="translate(186.694 3.755)" fill="#161615"/>
      <path id="Path_3137" data-name="Path 3137" d="M424.145,8.146h2.6l13.129,10.275V8.146h3.4V23.614h-2.6L427.583,13.193V23.614h-3.438Z" transform="translate(-228.637 -4.391)" fill="#161615"/>
      <path id="Path_3138" data-name="Path 3138" d="M483.522,23.614h-3.767V10.925H472.3V8.145h18.722v2.78h-7.5Z" transform="translate(-254.593 -4.391)" fill="#161615"/>
      <path id="Path_3139" data-name="Path 3139" d="M174.39,62h4.119v3.456H174.39Zm-.931.44v2.6c0,.919.267,1.162,1.21,1.162h3.559c.932,0,1.21-.256,1.21-1.162v-2.6c0-.895-.267-1.171-1.21-1.171h-3.559c-.943,0-1.21.277-1.21,1.171" transform="translate(-93.504 -33.026)" fill="#161615"/>
      <path id="Path_3140" data-name="Path 3140" d="M195.087,65.453h3.606V61.265h.941v3.77c0,.9-.255,1.162-1.209,1.162h-3.059c-.93,0-1.211-.255-1.211-1.162v-3.77h.932Z" transform="translate(-104.659 -33.025)" fill="#161615"/>
      <path id="Path_3141" data-name="Path 3141" d="M215.361,66.2h-.932V62H212.1v-.732h5.6V62h-2.338Z" transform="translate(-114.334 -33.025)" fill="#161615"/>
      <path id="Path_3142" data-name="Path 3142" d="M233.868,62c1.478,0,2.222.42,2.222,1.711,0,1.336-.732,1.745-2.222,1.745h-1.8V62Zm.105-.732h-2.838V66.2h2.838c2.036,0,3.048-.8,3.048-2.478a2.4,2.4,0,0,0-1.07-2.071,3.811,3.811,0,0,0-1.978-.384" transform="translate(-124.595 -33.025)" fill="#161615"/>
      <path id="Path_3143" data-name="Path 3143" d="M252.41,62h4.117v3.456H252.41Zm-.932.44v2.6c0,.919.267,1.162,1.21,1.162h3.56c.931,0,1.21-.256,1.21-1.162v-2.6c0-.895-.268-1.171-1.21-1.171h-3.56c-.943,0-1.21.277-1.21,1.171" transform="translate(-135.56 -33.026)" fill="#161615"/>
      <path id="Path_3144" data-name="Path 3144" d="M272.853,62h4.12v3.456h-4.12Zm-.929.44v2.6c0,.919.268,1.162,1.211,1.162h3.56c.929,0,1.209-.256,1.209-1.162v-2.6c0-.895-.267-1.171-1.209-1.171h-3.56c-.943,0-1.211.277-1.211,1.171" transform="translate(-146.582 -33.026)" fill="#161615"/>
      <path id="Path_3145" data-name="Path 3145" d="M296.182,61.985c.348,0,.523.094.523.5v.592c0,.4-.115.5-.523.5h-2.63V61.985Zm-3.56,4.212h.93v-1.93H294.9l1.968,1.93h1.246l-2.176-1.93h.652c.721,0,1.034-.269,1.034-.944V62.217c0-.685-.313-.952-1.034-.952h-3.968V66.2" transform="translate(-157.739 -33.025)" fill="#161615"/>
      <path id="Path_3146" data-name="Path 3146" d="M323.59,61.265h4.969V62h-4.037v1.267h2.431V64h-2.431v1.479h4.085v.72H323.59Z" transform="translate(-174.432 -33.025)" fill="#161615"/>
      <path id="Path_3147" data-name="Path 3147" d="M342.084,63.674l-2.513-2.409h1.256l1.78,1.792,1.629-1.792h1.153l-2.271,2.29,2.769,2.642h-1.3l-1.991-2-1.79,2h-1.2Z" transform="translate(-183.047 -33.025)" fill="#161615"/>
      <path id="Path_3148" data-name="Path 3148" d="M363.033,61.985c.373,0,.556.081.556.465v.63c0,.37-.183.466-.556.466h-2.818V61.985ZM359.286,66.2h.929v-1.93h3.235c.746,0,1.083-.259,1.083-.944V62.217c0-.685-.327-.952-1.083-.952h-4.164V66.2" transform="translate(-193.674 -33.025)" fill="#161615"/>
      <path id="Path_3149" data-name="Path 3149" d="M377.606,61.265h4.969V62h-4.037v1.267h2.433V64h-2.433v1.479h4.083v.72h-5.014Z" transform="translate(-203.55 -33.025)" fill="#161615"/>
      <path id="Path_3150" data-name="Path 3150" d="M398.86,61.985c.349,0,.525.094.525.5v.592c0,.4-.115.5-.525.5h-2.631V61.985ZM395.3,66.2h.928v-1.93h1.352l1.965,1.93h1.247l-2.175-1.93h.652c.72,0,1.034-.269,1.034-.944V62.217c0-.685-.314-.952-1.034-.952H395.3V66.2" transform="translate(-213.088 -33.025)" fill="#161615"/>
      <path id="Path_3151" data-name="Path 3151" d="M415.144,66.2h-.928V62h-2.328v-.732h5.6V62h-2.34Z" transform="translate(-222.029 -33.025)" fill="#161615"/>
      <path id="Path_3152" data-name="Path 3152" d="M28.5,16.394c1.593,1,3.635,2.214,4.764,2.137V0H0V27.04C5.526,20.982,13.28,14.3,20.488,10.477a23.656,23.656,0,0,1,5.264,4.091c-2.129-1.389-4.142-2.752-5.625-2.608-2.2,1.46-14.241,11.657-1.628,7.682C8.438,24.582,2.791,31.31,8.822,33.268H33.269V22.7a19.31,19.31,0,0,0-4.764-6.3" transform="translate(0 0)" fill="#f6842b"/>
    </g>
  </g>
</svg>
