<svg viewBox="0 0 284 100" version="1.1" xmlns="https://www.w3.org/2000/svg" xmlns:xlink="https://www.w3.org/1999/xlink" xml:space="preserve" xmlns:serif="https://www.serif.com/" style="fill-rule:evenodd;clip-rule:evenodd;stroke-linejoin:round;stroke-miterlimit:1.41421;">
					<g>
						<path d="M2.477,0.083l44.664,0c1.359,0 2.471,1.109 2.471,2.465l0,94.283c0,1.355 -1.112,2.465 -2.471,2.465l-44.664,0c-1.36,0 -2.471,-1.11 -2.471,-2.465l0,-94.283c0,-1.356 1.111,-2.465 2.471,-2.465Z" style="fill:#faa619;"/>
						<path d="M34,32.927l0.09,51.171l-18.405,-0.074l-0.072,-50.999l-8.336,0.037l17.512,-22.58l17.551,22.466l-8.34,-0.021Z" style="fill:#231f20;"/>
						<path d="M162.628,72.479c-0.62,7.399 -7.85,12.68 -18.584,12.68c-11.191,0 -18.594,-6.075 -18.598,-15.393c-0.004,-9.372 7.168,-15.333 19.256,-15.333c10.457,0 16.559,4.364 17.58,12.03l-10.394,0c-0.51,-3.3 -3.221,-5.415 -7.743,-5.415c-5.084,0 -8.474,3.552 -8.472,8.771c0.003,5.162 3.337,8.714 8.476,8.714c4.35,0 7.518,-2.648 7.799,-6.054l10.68,0Zm-77.763,-2.713c0.006,9.42 7.295,15.393 19.274,15.393c11.977,0 19.205,-5.973 19.203,-15.393c-0.007,-9.372 -7.127,-15.333 -19.218,-15.333c-12.093,0 -19.263,5.961 -19.259,15.333Zm79.018,-23.849c0.016,2.334 3.065,3.517 7.715,3.451c5.268,-0.074 9.094,-1.521 9.068,-6.248l-0.013,-1.826c-2.57,2.284 -5.989,3.299 -10.488,3.299c-10.401,0 -17.397,-5.428 -17.445,-13.437c-0.044,-7.864 6.835,-13.493 17.119,-13.493c4.609,0 8.042,0.967 10.695,3.247l-0.014,-2.483l9.471,0l-0.012,22.465c0.027,4.257 0.055,7.576 -3.254,10.35c-2.945,2.472 -6.899,3.722 -12.041,4.061l-0.019,10.951l13.557,-10.813l12.148,0l-15.026,11.715l16.28,16.981l-12.543,0l-10.683,-11.496l-3.729,2.765l0.004,8.731l-9.389,0l0,-29.148c-7.102,-1.015 -11.541,-3.903 -11.571,-8.614l-0.002,-0.458l10.172,0Zm-89.756,9.524l0.004,3.779c3.584,-4.051 6.8,-5.049 11.865,-4.575l0.004,7.563c-6.455,-0.795 -11.865,1.611 -11.863,9.098l0.008,12.831l-9.41,0l0.015,-28.696l9.377,0Zm20.964,14.381c-0.004,-5.321 3.558,-8.798 9.04,-8.798c5.483,0 8.981,3.418 8.987,8.742c-0.002,5.317 -3.504,8.789 -8.987,8.789c-5.48,0 -9.037,-3.419 -9.04,-8.733Zm109.621,-6.237c-2.909,0 -5.272,2.365 -5.272,5.271c0,2.906 2.363,5.272 5.272,5.272c2.906,0 5.271,-2.366 5.271,-5.272c0,-2.906 -2.365,-5.271 -5.271,-5.271Zm0,0.801c2.468,0 4.47,2.001 4.47,4.47c0,2.469 -2.002,4.471 -4.47,4.471c-2.469,0 -4.471,-2.002 -4.471,-4.471c0,-2.469 2.002,-4.47 4.471,-4.47Zm-1.079,7.631l-0.835,0l0,-6.389c0.423,-0.079 1.037,-0.135 1.605,-0.135c0.893,0 1.48,0.172 1.873,0.527c0.316,0.289 0.51,0.731 0.51,1.24c0,0.846 -0.539,1.412 -1.211,1.644l0,0.028c0.49,0.174 0.787,0.635 0.941,1.307c0.211,0.904 0.365,1.528 0.5,1.778l-0.865,0c-0.105,-0.192 -0.25,-0.739 -0.422,-1.548c-0.193,-0.892 -0.549,-1.229 -1.306,-1.257l-0.79,0l0,2.805Zm0,-3.44l0.856,0c0.894,0 1.461,-0.49 1.461,-1.23c0,-0.837 -0.606,-1.202 -1.49,-1.202c-0.405,0 -0.682,0.029 -0.827,0.068l0,2.364Zm53.688,-22.66c0.014,2.334 3.062,3.517 7.714,3.451c5.266,-0.074 9.093,-1.521 9.067,-6.248l-0.013,-1.826c-2.571,2.284 -5.989,3.299 -10.488,3.299c-10.401,0 -17.397,-5.428 -17.444,-13.437c-0.044,-7.864 6.834,-13.493 17.117,-13.493c4.609,0 8.044,0.967 10.696,3.247l-0.014,-2.483l9.47,0l-0.011,22.465c0.027,4.257 0.054,7.576 -3.252,10.35c-3.516,2.948 -8.463,4.157 -15.151,4.157c-10.677,0 -17.824,-3.042 -17.863,-9.024l-0.002,-0.458l10.174,0Zm-184.569,-7.867c0.567,3.183 3.235,4.28 8.68,4.28c4.262,0 6.619,-1.772 6.611,-3.317c-0.012,-1.756 -1.742,-2.275 -5.373,-2.543l-5.234,-0.399c-5.757,-0.438 -13.899,-1.206 -13.944,-8.877c-0.037,-6.228 5.764,-9.744 16.823,-9.744c10.642,0 16.654,3.613 16.698,9.297l-9.679,0c-0.606,-2.356 -3.074,-3.441 -7.506,-3.441c-4.089,0 -6.383,1.189 -6.373,2.736c0.005,1.262 0.996,2.065 3.972,2.301l5.351,0.426c6.118,0.486 15.171,0.523 15.225,8.914c0.036,6.759 -5.817,10.496 -17.343,10.496c-11.398,0 -17.459,-3.465 -18.066,-10.129l10.158,0Zm52.465,-19.587l-0.002,4.314c4.174,-4.446 12.807,-6.741 18.889,-3.8c5.352,2.587 5.819,6.928 5.828,12.372l0.032,15.809l-9.426,0l0.01,-13.61c0.005,-5.639 -1.372,-9.11 -7.555,-8.66c-4.818,0.349 -7.785,3.316 -7.785,8.109l0.002,14.161l-9.395,0l0.016,-28.695l9.386,0Zm69.648,0l9.358,0l-0.021,28.695l-9.356,0l0.019,-28.695Zm-93.275,0l9.311,0l0.006,28.695l-9.328,0l0.011,-28.695Zm116.913,0l-0.014,4.314c3.297,-3.355 7.276,-5.06 11.775,-5.06c5.168,0 9.113,1.705 11.151,4.58c1.695,2.393 1.847,5.268 1.847,9.052l0.006,15.809l-9.4,0l0.021,-13.896c0.009,-5.749 -1.284,-8.41 -6.621,-8.41c-5.396,0 -8.726,3.032 -8.722,8.145l0.011,14.161l-9.468,0l-0.008,-28.695l9.422,0Zm-37.911,12.693c0.026,4.409 -3.382,7.301 -8.832,7.301c-5.453,0 -8.898,-2.841 -8.92,-7.301c-0.031,-4.464 3.381,-7.307 8.833,-7.307c5.453,0 8.894,2.892 8.919,7.307Zm93.437,0c0.025,4.409 -3.384,7.301 -8.833,7.301c-5.452,0 -8.899,-2.841 -8.919,-7.301c-0.032,-4.464 3.381,-7.307 8.832,-7.307c5.453,0 8.894,2.892 8.92,7.307Z"/>
					</g>
				</svg>